<mxfile host="Electron" modified="2024-04-27T13:44:41.461Z" agent="Mozilla/5.0 (Windows NT 10.0; Win64; x64) AppleWebKit/537.36 (KHTML, like Gecko) draw.io/24.2.5 Chrome/120.0.6099.109 Electron/28.1.0 Safari/537.36" etag="P-i4dM6A-hCg5_GRcJm4" version="24.2.5" type="device">
  <diagram id="C5RBs43oDa-KdzZeNtuy" name="Page-1">
    <mxGraphModel dx="1105" dy="662" grid="1" gridSize="1" guides="1" tooltips="1" connect="1" arrows="1" fold="1" page="1" pageScale="1" pageWidth="827" pageHeight="1169" math="0" shadow="0">
      <root>
        <mxCell id="WIyWlLk6GJQsqaUBKTNV-0" />
        <mxCell id="WIyWlLk6GJQsqaUBKTNV-1" parent="WIyWlLk6GJQsqaUBKTNV-0" />
        <mxCell id="zkfFHV4jXpPFQw0GAbJ--0" value="arch/arm/plat-s3c24xx/devs.c" style="swimlane;fontStyle=3;align=center;verticalAlign=top;childLayout=stackLayout;horizontal=1;startSize=26;horizontalStack=0;resizeParent=1;resizeLast=0;collapsible=1;marginBottom=0;rounded=0;shadow=0;strokeWidth=1;fillColor=#d5e8d4;strokeColor=#82b366;" parent="WIyWlLk6GJQsqaUBKTNV-1" vertex="1">
          <mxGeometry x="60" y="140" width="180" height="104" as="geometry">
            <mxRectangle x="220" y="120" width="160" height="26" as="alternateBounds" />
          </mxGeometry>
        </mxCell>
        <mxCell id="zkfFHV4jXpPFQw0GAbJ--1" value="向上注册一个platform_device" style="text;align=left;verticalAlign=top;spacingLeft=4;spacingRight=4;overflow=hidden;rotatable=0;points=[[0,0.5],[1,0.5]];portConstraint=eastwest;fillColor=#d5e8d4;strokeColor=#82b366;" parent="zkfFHV4jXpPFQw0GAbJ--0" vertex="1">
          <mxGeometry y="26" width="180" height="26" as="geometry" />
        </mxCell>
        <mxCell id="zkfFHV4jXpPFQw0GAbJ--2" value=".name = &quot;s3c2410-i2c&quot;" style="text;align=left;verticalAlign=top;spacingLeft=4;spacingRight=4;overflow=hidden;rotatable=0;points=[[0,0.5],[1,0.5]];portConstraint=eastwest;rounded=0;shadow=0;html=0;fillColor=#f8cecc;strokeColor=#b85450;" parent="zkfFHV4jXpPFQw0GAbJ--0" vertex="1">
          <mxGeometry y="52" width="180" height="26" as="geometry" />
        </mxCell>
        <mxCell id="zkfFHV4jXpPFQw0GAbJ--3" value=".resource = i2c控制器硬件信息" style="text;align=left;verticalAlign=top;spacingLeft=4;spacingRight=4;overflow=hidden;rotatable=0;points=[[0,0.5],[1,0.5]];portConstraint=eastwest;rounded=0;shadow=0;html=0;fillColor=#f8cecc;strokeColor=#b85450;" parent="zkfFHV4jXpPFQw0GAbJ--0" vertex="1">
          <mxGeometry y="78" width="180" height="26" as="geometry" />
        </mxCell>
        <mxCell id="zkfFHV4jXpPFQw0GAbJ--13" value=" s3c24xx_i2c_probe " style="swimlane;fontStyle=0;align=center;verticalAlign=top;childLayout=stackLayout;horizontal=1;startSize=26;horizontalStack=0;resizeParent=1;resizeLast=0;collapsible=1;marginBottom=0;rounded=0;shadow=0;strokeWidth=1;fillColor=#d80073;strokeColor=#A50040;fontColor=#ffffff;" parent="WIyWlLk6GJQsqaUBKTNV-1" vertex="1">
          <mxGeometry x="274" y="170" width="240" height="170" as="geometry">
            <mxRectangle x="340" y="380" width="170" height="26" as="alternateBounds" />
          </mxGeometry>
        </mxCell>
        <mxCell id="zkfFHV4jXpPFQw0GAbJ--14" value="① 分配 adapter，即实例化一个 i2c 控制器" style="text;align=left;verticalAlign=top;spacingLeft=4;spacingRight=4;overflow=hidden;rotatable=0;points=[[0,0.5],[1,0.5]];portConstraint=eastwest;fillColor=#e1d5e7;strokeColor=#9673a6;" parent="zkfFHV4jXpPFQw0GAbJ--13" vertex="1">
          <mxGeometry y="26" width="240" height="24" as="geometry" />
        </mxCell>
        <mxCell id="zkfFHV4jXpPFQw0GAbJ--15" value="" style="line;html=1;strokeWidth=1;align=left;verticalAlign=middle;spacingTop=-1;spacingLeft=3;spacingRight=3;rotatable=0;labelPosition=right;points=[];portConstraint=eastwest;" parent="zkfFHV4jXpPFQw0GAbJ--13" vertex="1">
          <mxGeometry y="50" width="240" height="8" as="geometry" />
        </mxCell>
        <mxCell id="x74ONLKLbEEUaDy3nGKP-9" value="② 设置 adapter，获取 device 设备侧硬件&#xa;信息资源 resource，用来配置 i2c 控制器。&#xa;为adapter设置传输函数：master_xfer" style="text;align=left;verticalAlign=top;spacingLeft=4;spacingRight=4;overflow=hidden;rotatable=0;points=[[0,0.5],[1,0.5]];portConstraint=eastwest;fillColor=#e1d5e7;strokeColor=#9673a6;" parent="zkfFHV4jXpPFQw0GAbJ--13" vertex="1">
          <mxGeometry y="58" width="240" height="52" as="geometry" />
        </mxCell>
        <mxCell id="x74ONLKLbEEUaDy3nGKP-11" value="" style="line;html=1;strokeWidth=1;align=left;verticalAlign=middle;spacingTop=-1;spacingLeft=3;spacingRight=3;rotatable=0;labelPosition=right;points=[];portConstraint=eastwest;" parent="zkfFHV4jXpPFQw0GAbJ--13" vertex="1">
          <mxGeometry y="110" width="240" height="8" as="geometry" />
        </mxCell>
        <mxCell id="x74ONLKLbEEUaDy3nGKP-10" value="③ 注册 adapter，调用 i2c_add_adapter&#xa;将构建的 adapter 放入 adapters 链表，并&#xa;从 i2c_driver 链表取出各个 i2c_driver  匹配" style="text;align=left;verticalAlign=top;spacingLeft=4;spacingRight=4;overflow=hidden;rotatable=0;points=[[0,0.5],[1,0.5]];portConstraint=eastwest;fillColor=#e1d5e7;strokeColor=#9673a6;" parent="zkfFHV4jXpPFQw0GAbJ--13" vertex="1">
          <mxGeometry y="118" width="240" height="52" as="geometry" />
        </mxCell>
        <mxCell id="zkfFHV4jXpPFQw0GAbJ--17" value="driver/i2c/busses/i2c-s3c2410.c" style="swimlane;fontStyle=1;align=center;verticalAlign=top;childLayout=stackLayout;horizontal=1;startSize=26;horizontalStack=0;resizeParent=1;resizeLast=0;collapsible=1;marginBottom=0;rounded=0;shadow=0;strokeWidth=1;fillColor=#d5e8d4;strokeColor=#82b366;" parent="WIyWlLk6GJQsqaUBKTNV-1" vertex="1">
          <mxGeometry x="546" y="140" width="190" height="104" as="geometry">
            <mxRectangle x="550" y="140" width="160" height="26" as="alternateBounds" />
          </mxGeometry>
        </mxCell>
        <mxCell id="zkfFHV4jXpPFQw0GAbJ--18" value="向上注册一个platform_driver" style="text;align=left;verticalAlign=top;spacingLeft=4;spacingRight=4;overflow=hidden;rotatable=0;points=[[0,0.5],[1,0.5]];portConstraint=eastwest;fillColor=#d5e8d4;strokeColor=#82b366;" parent="zkfFHV4jXpPFQw0GAbJ--17" vertex="1">
          <mxGeometry y="26" width="190" height="26" as="geometry" />
        </mxCell>
        <mxCell id="zkfFHV4jXpPFQw0GAbJ--19" value=".name = &quot;s3c2410-i2c&quot;" style="text;align=left;verticalAlign=top;spacingLeft=4;spacingRight=4;overflow=hidden;rotatable=0;points=[[0,0.5],[1,0.5]];portConstraint=eastwest;rounded=0;shadow=0;html=0;fillColor=#f8cecc;strokeColor=#b85450;" parent="zkfFHV4jXpPFQw0GAbJ--17" vertex="1">
          <mxGeometry y="52" width="190" height="26" as="geometry" />
        </mxCell>
        <mxCell id="zkfFHV4jXpPFQw0GAbJ--20" value=".probe = s3c24xx_i2c_probe " style="text;align=left;verticalAlign=top;spacingLeft=4;spacingRight=4;overflow=hidden;rotatable=0;points=[[0,0.5],[1,0.5]];portConstraint=eastwest;rounded=0;shadow=0;html=0;fillColor=#f8cecc;strokeColor=#b85450;" parent="zkfFHV4jXpPFQw0GAbJ--17" vertex="1">
          <mxGeometry y="78" width="190" height="26" as="geometry" />
        </mxCell>
        <mxCell id="x74ONLKLbEEUaDy3nGKP-0" value="&lt;b&gt;I2C驱动框架：以2.6内核的s3c2440为例&lt;/b&gt;" style="text;html=1;align=center;verticalAlign=middle;resizable=0;points=[];autosize=1;strokeColor=none;fillColor=none;" parent="WIyWlLk6GJQsqaUBKTNV-1" vertex="1">
          <mxGeometry x="274" y="60" width="240" height="30" as="geometry" />
        </mxCell>
        <mxCell id="x74ONLKLbEEUaDy3nGKP-1" value="platform_bus" style="rounded=1;whiteSpace=wrap;html=1;fillColor=#60a917;strokeColor=#2D7600;fontColor=#ffffff;fontStyle=1;fontSize=14;" parent="WIyWlLk6GJQsqaUBKTNV-1" vertex="1">
          <mxGeometry x="330" y="90" width="126" height="30" as="geometry" />
        </mxCell>
        <mxCell id="x74ONLKLbEEUaDy3nGKP-2" value="" style="endArrow=classic;html=1;rounded=0;entryX=0.011;entryY=0.603;entryDx=0;entryDy=0;entryPerimeter=0;" parent="WIyWlLk6GJQsqaUBKTNV-1" target="x74ONLKLbEEUaDy3nGKP-1" edge="1">
          <mxGeometry width="50" height="50" relative="1" as="geometry">
            <mxPoint x="170" y="140" as="sourcePoint" />
            <mxPoint x="354.00000000000006" y="118.18000000000006" as="targetPoint" />
          </mxGeometry>
        </mxCell>
        <mxCell id="x74ONLKLbEEUaDy3nGKP-3" value="" style="endArrow=classic;html=1;rounded=0;exitX=0.539;exitY=0.009;exitDx=0;exitDy=0;exitPerimeter=0;entryX=0.999;entryY=0.624;entryDx=0;entryDy=0;entryPerimeter=0;" parent="WIyWlLk6GJQsqaUBKTNV-1" edge="1" target="x74ONLKLbEEUaDy3nGKP-1">
          <mxGeometry width="50" height="50" relative="1" as="geometry">
            <mxPoint x="622.4100000000001" y="139.99999999999994" as="sourcePoint" />
            <mxPoint x="460" y="110" as="targetPoint" />
          </mxGeometry>
        </mxCell>
        <mxCell id="x74ONLKLbEEUaDy3nGKP-5" value="" style="endArrow=classic;startArrow=classic;html=1;rounded=0;exitX=1.002;exitY=0.111;exitDx=0;exitDy=0;entryX=-0.012;entryY=0.105;entryDx=0;entryDy=0;entryPerimeter=0;exitPerimeter=0;" parent="WIyWlLk6GJQsqaUBKTNV-1" source="zkfFHV4jXpPFQw0GAbJ--0" target="zkfFHV4jXpPFQw0GAbJ--17" edge="1">
          <mxGeometry width="50" height="50" relative="1" as="geometry">
            <mxPoint x="250" y="150.5" as="sourcePoint" />
            <mxPoint x="520" y="151.5" as="targetPoint" />
          </mxGeometry>
        </mxCell>
        <mxCell id="x74ONLKLbEEUaDy3nGKP-7" value="平台总线设备驱动匹配" style="text;html=1;align=center;verticalAlign=middle;resizable=0;points=[];autosize=1;strokeColor=none;fillColor=none;" parent="WIyWlLk6GJQsqaUBKTNV-1" vertex="1">
          <mxGeometry x="323" y="127" width="140" height="30" as="geometry" />
        </mxCell>
        <mxCell id="x74ONLKLbEEUaDy3nGKP-18" value="" style="shape=image;verticalLabelPosition=bottom;labelBackgroundColor=default;verticalAlign=top;aspect=fixed;imageAspect=0;image=data:image/png,iVBORw0KGgoAAAANSUhEUgAAAssAAACfCAYAAAAPiJQTAAAgAElEQVR4Ae2dP6sjR9b/FQpjgUGziEHPMLLBjMFssjzJBMbBChbG48CwyTKhwPDDwcCucfBMsgLDwpOMcTYOBIuDyRxNInxh2PcwSu+bmBdwfk9196m/p7qrqltS6+obXKQrdVWdOvWt6k8fna6erFYrwh98AA1AA9AANAANQAPQADQADYQamMApoVPgE/gEGoAGoAFoABqABqABaEBpoBiWHz58SPjL9wEmHiYeNAANQAPQADQADUADl6MBwPKJoR+T43ImB8YKYwUNQAPQADQADUADgGXAMnLWkbcPDUAD0AA0AA1AA9BARAOA5TsOy4vdhCYH72+3GOWEWG7mNNtPPXunNF9f41XtkuZ7NW7j6P9iW4/LdDenZWQxQfRlLDr9kuav39Lk7Wuaf3l+mxY/vKbJ27c0ffnDndDOXevPSeftckO76Z4Ok0P1t1ucX58n7T/WzlGyR4oGzgjLn9CrR5/R7Wef0lcnBtbj5Fqn9SdlUIY85rSwvKD5bkrTfT5QLRsYC8B+JLA45Jik1TUmWF7QTF9wjQPe03w4wIn4yy9p8fI1Td8q+Gz+Xr+m2Q/PRgx+Y4LlZzRjv40E3vtpJ7M/Xz6j2ev6YqHWz2uavhyzdgaYMzEgXG5p30AyYPmIfo75H5/3AvXzwfLHn9Lt558T3RVYTuxPv4W65wTbzOqo7bEiy+s5TRVUZcOygbHZZtlL0Gf176CL0ZhgeUXXGVlm6LRAWYPfW5q8fkmLQce85/zWtrDdiCwfYz1Ijiw/e+leZDnauRtR9hz/bmZ1NPkw3dJmOZTWUU/OGODYcr0AloeKagOWaVUKy8eGeA0R5RPl9IvMuGD59P0fw1h9SfOXr2n27Esnirz88gcdLZ3+8OUIL+7GBcvXqR2OQNf6YR8sLYCePRuDxk9lw5q2UwXLe9oClEe4ZpxKB5fbDmAZsDzcxAUsD+fLFWCZAWOMr0vOwwUsD6j5yz2Rihp99pIkIF68bH6pePnsinzHsLyjzUUGL+6YNjEG2XNvGFj+uMnXVWkV/PfZZ3TzycfuXsyfPDLf83HSq5Ca8Y9Hqu7P6NXHD+lh055u63OhrdZI78f06jOrPgmYP/6Ebj77zLH39tGn9A/VPh9f0B9xUU0RLoNolUKxpIXKDdZ5pBOa7hZO9EtsJzmCuyTpZrvpfkZzP02C67RsCfOOO1IzuI7U9JB1nRtttyPa1vi1zttucm2DslNyUz+alBBly1rdcFjfHKn8q3xqcqtVuaEW0HA81Y19df8iOcLrsIzsA4buSdxe9r+XPtMr3329CG7WVDcHLmI3ayb3p6fPv3xWRYuDHORneRFihmUJhvTcC/JV65vcFoPedCfkVL/lHNlIGoaQhz19/ZLmgQ84Qv1WhL6qn89e1rncr920Ag2EdupBKhzm+i25P+Xa6dUfb31n7Uza/JHrA68NrcHRfA5YHt+YlM+Ha+xLf1hmKJWg9/PP6eaTfnDJYMqwfPPpozrXWWjPaYvtEsD74cN2WP7qUxeSDZR/TvTokzPD8kwDnA2L1fsu2GQo6jjOAKG3i0YDxNOtlVfMdWbBsslRDvrg1+Pbupk5Fwl+ecc2D5Zn23hZA76NbXvfz1Oab5ucb23jrH/OKl8E6Tp9nwuw3FHG94EeT9+Xjn9CmC6FZd2e1CfJhsz+FC/UX/4QzyF92wKEHnDon9I9QLTt0kBkwyK/b4Mkry27zuB9R3/E3TA6yvhpJbofEZsZIv2LBv5c3xSp+h6pw+6Xbo99Zb9K5TP7Y7eV8760P1Ibuo9Sf9QFefOrheM79kOkjNTOuD4DLI9rPADKuePRG5ZriP2cbj51o8hfNdFfB2A5IqteW2HWAuymDLdTgetnj+iVjlp/TP9guLVBtrX+Fli2osW3jz5xdur46pNP6eZTC5YL+pM7QPp4DyjsSLKKAtdRZgGs7JMvg60ELNZxSwWVVRTQgmK1iHP5QwQS2UYvQqn7oNsohGWu/+BH0pf6BjQFzwZ86wXBgT4nOm6V0z6xbav96cBfFcHnaG2Hv3V/YwsT19P0x466VpFZaes4LjOl2Xbp/JqgxkfWAfdJGre27yy7eey1n6zv7H7yccEYKf3Mabb1ty0s6U+kbdsO4T0Dz8xLnVg20WYf+LRuOXrKwFJtg9ayo4F1vL/zwfLZD9VOGrpuwc6070zUt2rDjlZXUUn1U78fWeYyajcPLw9b59L6ZTj3VrqZse07a4zYH12gx8cJ/pX9VtIfy65S37OdXf0R62ef+X5u7OK6k32Q35+nf70l+id1/N3Sqz/l1x3XLmA57psh/Yy6juXnnrDM0KkiyC4sc0Q4+toKs3FY9gG2ql+qS/pMwy3b3aR1BJ9/Trce/Ef7wWVb2zP9KR5ICxTdtIF6cjDQ+VFFpz0GmS7gERd51Q6DjQRdq6Pf4NfVR/5+4vWPYdm+wNB+Yb9qwGd4nBD7UterLxLYDz1huXU8Im00Zdg23Y9mzNhW/3v2gX8hsWq1wVp4k45jm43vfPuC/wv7E9QT1Sz3gcFKRZDzUi5WFsA40T4xsmza8aO0+Taz7cIr2yQCG9vgAVlTJmYXRzT97/VFhn9DWqsNls1Jx7HNb8lvP+q3wv5E6+vUUNOnpP5Y/bfqZV/KUfYCH1h1p/brHLC8XuzqvZVnm+xc0dR+4ThZc/DLMH7pCcsP6aEViSUV8f3UjcZGITMRLrk8R5ajkWqGVn5trT8Gy5/QTZXe8Yj+wfWkvra2NyAsa6jzBJACMynHNIuvlLNsUh7OAcsMYi2AGoBv7aMoKIonGoZl08cQQBNsEet2x6zdLrkNtsWMhZ+2Uf/vw7KGYk8/tQ0tPuV+JGkn9F3XQl3cH7Yr55UhR0WIVY5u4V7JKhI9qx76oepxc3VXK44cSpFYd/y7fNP2PUOXHA1n6HJhmWHYAX4rWs6fB7DKfvP6WtvgtiHazOVFsGef5PutuD85mpGOTeoP98u8ans9Pxqf5fvAlDXtjOezDe3sfZWnuLlvPGMzRr2M2yYRlr/44guS/uyBZoitXoWb4Ui6wc8Gz0S45HZOAsuZNrFttQ/S9o22fZj1PgKCuo4UmEk5ZrUihrg4kBmQ1O2rk0qXjdKJR32WZBfDY6Ttqu4G1kQgDNMzHNu1bSHwMdAZAGVbEiBT1xsuBOznINpblZHb4DLxsYnAsv5VwLZZ9pfol5QxKhj/8v6E/hTt9v0v3Dg1UQ8ZyY02r2QgXXEObRSICu32+lECy1yGoTj2GsCy2NcG7FL6mQKXBX4r70/PMUjpjzdeGpTftlxEFfggSfOeLacrI8Ayto1DZP1seuw376Ow3DWhHFC0IFjl9aon8/FNcSptQjw2E0xPAssPEVnWwFvl/ro5y+dNw5Dh0dFpBNYYyGQo9SfQuGGZwT2tL27fuKyG/gaAk+pKgeVV6DtnfIRFkm1KskEo31V/2/cqD1bto8zQqHJ/2473v2NYc6O7p4kOym3zeMsgz8Dm2stl2l+5rAbpBhiT6kqCy3y/sU1JNgypnaT+GH+ynZM2UK7sy/eBr8mU/0+fhrGmzbx5xDXSMLLWmJTxxDFmrh3TF4PDsgZjhuHPIykN/L24W4VJW+D6imFZaP8rnToSz1lOTvfgC4XE/hQPZgQEub4kIEwAHoYX+Sl8ajswFbmMRHc7bGRbg9cEu1QZ7qOGPe8EyLb733O5NCALgS+sNwHcPduCPlvb0Pn2qmO5TbWF3Ny+8S/RV1J7K4bZJvJe+yUylr79Se2yX1Kj+Km/Khx5MeSIXifM2HbIQLrSUdj03TXksbLbCt8zgGl4tcaLvwtu8MuEPNcuN5Jcw3pLlNSyR+d8t16MsD8z/NarP6FP3f62fJ/RrhmLFF8V+MD2c+L708Oy8iVu8EvWV+I4or6WOXoEH/aE5XovYrVDxFf2/sMPH5KKMFePsxZgtQZgjuKqm+m685yzYVlHie2b9aydM6rcZB+WH5LZNq7eu/krhuGmT9HdMJz24v0pFrgG0Zm7V+16SfMd78nbAT4pwMPHOJCm9l3mnRZaYJlhTO2EsE3Y95kFzW16N+YFvuLjgvrrPYfr1AQPLi3IHhssmyj+1OxfLewD7cCy7eO2fYvZt95rDcjKR81FQZfPuTz7vuN4G/LVjahLLl/tpiLthsEXJ2pHkJZ9mK16Al0kfafyjNUuEM9oae8coex6xlvKpQDNipycZQEADSAJT/8bajcMDfivzf7Iza4eHCkPYFnnU5ft91wDsspRbsBZ6Ls4Nolwme83jsSW9Ue0NUVLif1Z6F8t0nSl7Mn3wWmBodhngGVElFPm1oiP6Q/Lwn7HnIKhXtsitAzA9vHVeyHazMe21cdRaH414Gs9LKW5ge8m+lASvvnPL9P8H0srefiQ2Ma2/hQvNgzL0t611WchJOpIYrSMBL4GXsK82ClN2yLLFpgGZb08YscPiSBWnUy2fGFQ5+a67cgPChlrZFn1h21z+zEhtaOHAVvvhOhcuEh+aLloanw93Ss/Sprhttp0wG1K7ZjoctAnpUMJtvv0J3lxNWBlYLJ5klpzk1vwc74GUvc4Lj996d/cx74zEUI+1nlNhcyOvnEqhlO36svLZ2TAlm1qXvUWcXKfWlMFGkicvlapK2039nX7Wm6nwG99+tPhX7NGFfSnQzs8ZuEvAwU+SO6Hp4WTlkNk2ejpnOOAtkvHoScsm6fp1VFkBszPKHjanRWhZZhVDwf5h3rISAWuXPZzooFgua7/M+shJsquOupbg20YWWbbVKrGrfMEv5Q+dfendKBMFJJBhV+nLU/vKwSe4OlrTRtrhjsJkngSqr2LZw1Us43DPsFP2qmjLSrJQDq6yHJ1svKfxGeeKBiFZVWuiUDbT3E0cNo+PvPmqYRyqg2PY6F2mhNw9UtEBeSsAaWhlshxcX/Y3oRX6el9b1+Tgl7xqXoi8PDx3dvPVQ8vqcCSwZTLJtiaBDL+0/vMjYpRWFb1in5gG9uioBbItd7YVwCXVn+z/Vbcn9RxKOiPqB32sXkNYbm2KdsHlv+KzzFHrQOwPM5xSZ0DOK4/LIsQHOYcM4Re+2vxhOHIcluE9qiLHSZL8dhhXPATJDQADVy1BgDLOH9cNkMAlk8M+8UTBrCMk+1Vn2wve6EtnvcYc8z7O6EBhuU9bbF9HDR9gZoGLAOWMXEvcOICvgDP0AA0cEka2MwO9VP8plvaAJhx3r2w8y5gGbCMSdtr0qbk9nLebvMq3eTWywZAwyVBg7E1JRfW5LdWN4UNdHOgseFatANfn33Ml1va20/0mxxot7gW/aGfZ9dfz3MsYBmwDFjuNYkAy5e+CJ7PfgDc6XwPX5/O1y1guNzQbto8oASwjHNvr3Nvi86OUC9g+VJg+QiDP4rFE/3CggkNQAPQADQADUADI9ZAMSwDtE57VQN/w99j1sDf/vhHwh98MGYNjHn+wDas79DAuDUAWB7xlQwmz7gnD8bHjM+YIQm2AeKVBjBfzXyFL+ALaCBPA4BlwDJOItBAbw0ASAGkY9cA4CAPDuAv+AsaMBoALAOUeoMSJpSZUNfqCw1KX9+n/xwmdDhM6D//elSlZjz/1wfV/4fDB/TL14BK7asLTF35sRnL//z7Pj0fg/0ZervWuYl+Y32GBvprALAMWAYsQwO9NWAAcEW/NbD823cNGH83Hx6Wv35EP/77Aw3mCs4Pv39Av/1rNTzEfb2i335n4FcXAh/Qf/6d3o65WDAXEMZf3sXD1yv65d/c1px+7ATS0A//+X1OPx7losSMbdKFT0+/RX3k+MTY1KU3AEN/YIAP4cNr1QBgGaDUG5SudfKg3+bEYcCmDV5S4M+DRweM+LtH9MvvdfS6guQGzvV7BYtiOS6f8frd3AVyu63fE6KrVuTTjrYbf9W2PP/uPv0W9KmjH17duv+VjceJ4idHlvv6LXn80vWG+WrmK3wBX0ADeRoALAOWAcvQQG8NGPgT4EVDXQf8JQPSoyr6+tt3j5wo8vOv7+uoNqeAGLsyAFnbwX35gFRbXNdzCwR1NFOXsdthqP+AfmuixaJd2j8qOj6nH7/jVJY2f3Hdqsx9K5JcR5prcG4rb9s59Pu+fsuxh9uakB4L7U+3/4CDPDiAv+AvaMBoALAMUOoNSphQZkJdqy8YJP/2R4Y4K7LJ8JISiRWhMx2eOOVBhNKSur+bGwizyv/47yay/e+Vhmjjg9petuWgUjY417fJ43aPNfBffc7+Oriw55Th1JaIT9k+DZCW7U49x/q8h9/y7EvX27XOTfQb6zM00F8DgOW+sLye0/QwoUn1COMlLXbT+n/12WFK092ClmIbS1pu5jTbT2lSHVs/Cnm6n9F8s/QAtnlKnGpjrco0xzaPTV5uuY4pzTaCKNa+XROS2xHKirbjOCw+rgbyAEeA3yZXl28OrCKjKgfZiuimtMFQ2gqJQS7thNQNazl5vtyOAmHZLo541sDLxydBfAIsMwyL9enyE4rbJ4xBBJy5LSfNI9rv9nrZD612DTA+0phgzrpzFv6AP6CBdA0AlvvCoIblmYZYG36r9w3U2sI0gFuDr19murWBuYHlvd/GlObbmQPbk8OMFnaf2D4LyO223HbShWP3Be/hNwlOkj+z4c7OCW7et4KvBXg6PSISbVX2aFgT2mkFOKsdp54INDJgsu3crgi3Xt1/0/6IRZaFaGpTx/N/eTnWLb5IHR/uyylgmf3ktMVjFfF1aj+wTmGdggaggVINAJZtsCx578GoHUlebhhkPYBdrWi5ndF0N6fF2obiFcllGlhuotXztSrP0eQ6qr1cLWleRZynpL6vBWE+m22XToRbtVNFxA/28VwOr6UTaozlnv71luif1PF3S6/+VD7uqcAiHccw9puXovC8iTYzcAZlORWBYUptV9e2S4V1vH9cdYPdv2JRYj9aylFjK9XEBl5ux4I7hsBhYdmGaTtX+QP6Rd0wqPwyACw7fhf65nxv+yF4n+g3YRzzxscfr/r/Mc5N2FS+5sB38N0pNQBYLgFku4wFy2GU1sCqAdgugXMZG7ANLHMbBpb5OC5nwW8D61zGFxbXEfvePx7/d43dOL8fNyxzlFTdoGVuoksCMAY3C5br9A1plwrTThKwBqBnAIzhXo5EMxDaIGsi2kltd0aWvTaqtIUmh1pvG+cd09KfJF9zefa5dSGQWr7db8ONT8werF/jXJ8wLhiXS9AAYNkG35L3DMv7uRO5rQdfAFirDSln2aRIMASricSwbD4LQTdsi48xdaakfGDiXsLEHZuNMUBJ+pwBrIqEzumXwr2SVSRab78WRFSHgUeOEMcitvy9Hw3nz4eBZQbLOf1i7czhRsub/kb9IGy9FxxrLhD0OPJYZcIy9z/mt7/9cZjx0XYy3FuvY5szsAfnGmjgcjQAWLbgtUi4hbC82MngasDWgHEpLHe30dwo6ORHX454i8ar73ijvHfzaa2XNkhJ+k64qat6yEhutFnajUMBE0drU4DQAizbdg18sV0qWtrgssPCMgOvcCNk1BaGUi5rvab4pgCWue+HmN8GGh97rKT3WC+wtkMD0ECpBgDLfeGnBJa5zGFCs2DnC44Q94dljiyLO2T07TfKi9BYOhGPWW7caRhh9FLlp5qn2NV5yBL8xD7jn/vd6C5DopseEavD/zwF+MwxFoD6KSL6/xY7GHRb4JL7WO3LLD2trwBq/T6L/2fWa3zS0t/q4qTf+Ii2ehc9x5xjqBsQBg3cbQ0AlvtCH4NvRhoGQ+xELLNodtXoD8srvsFQ2I0DE/tuT2x7fC8NljX4JECjPlaDEaco+Dff8efWwyt0mRDY7XpTgc8cd3xY/lsrtJb31e63+L61XdePxh9doKzKHdHmZpztOYH317P+Yawx1kNoALAcheXv6ebv9Q4Ct5tX9DR2XAEsa4h1dqJQ+y7zDhUqPWIAWNa5zpNm5w1MmiEmDeoIdSSCVRKMqjzjD+g3lafsRUhVhLnedzkFtv5ITs6ykFNr4K1OW3hu2RfbbeHH5sl7rSkEVj0xP3Dbw6RhKLjkSKy3A4jaQYQfm52SVpFgu9OnRFgu8Rv76HBIHx/Hto6+hPN2Q9vpgQ6TA+1nm4v5pSjsRzgfcQx8Ag0MqwHAcgSC/WjczZ8jji+BZQtiTY4y5zBPaVptATcELK9IgXm9RRzX77/a7UT6GPERJiP8xRrIgRb3WAN94t66ByESrCPOcgRXPWDEBmHTnoleim35gN3RDteRAsAMgvKxHXY1qRtuWomVh61TO2x/+JF1N+prfNL1eff4BBcSxX7r8IM/Ph1w7PeRtapfl1vaT2pYVsC8W2A+a99gzcfFEzTgaACwHBXEESPLqs21Srew9krmp/2tV1TfmGdDbNluGHrhWy9o7jxZ0AZmux2cLLTPorqAjyQf+WCS9b/09L7DB/Gn6okwxsd3bz9XPbzk9w+IYVdFMsUn+Int2EBav5cB2IXQo8CygsXgxkjVl1XkYsG1KW2MTgnLtX3J49MXllcrWs/3VWS5ii7P187JUdI5PsP6Bw1cpwYAy4AinCCggd4aSAOvElhDGfh2GA2IkGNFlxFZvk4IEnWBc0Lvc8Jd8ytgGZMCkwIa6K0BAN0wQAc/Hs+Pwcl7uaFdk7N8mOxog3Wg9zoQ+Bg+hU/viAYAy3dkILFIISpyTg0A8o4HefDtML7V88OKJqv0i8NkT9sl1g/tH5wTAbjQQKABwDJEEYgCiyZOnLkaANANA3Tw4/H8qDXNsDzd026+oTXOATgHQAPQQIcGAMsdDtILLI7DZIIGohoA5B0P8uDbYXyLtRxBAGgAGijVAGAZABQFoFJRodz1LUgAumGADn48nh+xLl3fuoQxx5gPpQHAMmAZsAwNQAPQADQADUAD0AA0ENEAYDnimKGuRlAPrmyhAWgAGoAGoAFoABq4XA0AlgHLuJKEBqABaAAagAagAWgAGohoALAccUzpFeBiWz+Vb7qb07Ko7iXNq8ddT2m+vtyrsFL/oRzGHBqABqABaAAagAbGpAHAchHQxkTMj6VWj5MuhV3A8pgmyKht+e/vafn/bukP/0v0h/+9of8aVMsxjePzUWsCGkBkDBqABqCBwTUAWB5YVIgsA6aODVMP//KK7v+PAmT7D7B8bL+jfsxtaAAagAauUwOA5YFhuf9EQmS5vw/v8GT+71e0YEj+nxv6r7/w/4Bl6OYO63506zR8jfkGDVyTBgDLo1uEAcvXNAHz+/q0Sr24/5en9c9MGp4By/m+xMkOPoMGoAFoABro1gBgeQBYXuxUjrL3t1sk5MwsabGb0tQpW98gWJ7z3D3omBh3yEeA5YR5dofGe4D1CvMfeoAGoAFoIE8DgOUBTj5FsLyee5DswXbxDYJ5AsCEuXB/AZYBywOsYVgHLnwdgAawDkADR9UAYHlogW1mdZS5NbLMqRYTmu4WtLS3iFsvaIat444q+i4wePrXW6J/UsffLb360whOsIDls2qlS0v4fgRzZOg1HvVhzkEDV6cBwPLQok+B5dZjGKRLt57DyakvoACWoaG+GkJ5aAgagAaggbujAcDyGWCZ0zZmG0lIgOXrWmC+p5tYFPvvr+hplz4RWb66CMd1zQ9pjcRn0AA0AA2cVgOA5S4Yyf2+NWpcDy5g+bQiH/eiAlge9/hAqxgfaAAagAauXQOA5VwY7joesHzxkT6kYeDEcO0nBvQfcwAagAagAaMBwHIX/OZ+nwDLy229Pdx0uwzAkr/D1nFGpKeesIDl8/n+1GON9jDW0AA0AA1AA10aACxHYfh7uvl7vSPC7SYhd5TrSYDlld42bkrzTQPM6wXNd7zHstpGDjf4dYkX369olZ2zvKHt9ECHyYH2s01wsQaf4qQBDUAD0AA0AA24GgAsM+R6r3508ebPruOMkBY0cx4q4u+XrP6f0cKrn/OWpYeZ1N8Blo2PY76/xs+f0vJ/iP7Aj7yOvN7/S8Q3yy3tJzUsK2DeLSLHeXrFWMBP0AA0AA1AA9eqAcByFApSI8tlsLxa+U/vm9KsiTIDlrEgxReknrC8WtF6vq8iy1V0eb5GdDm6BkCHcR3CN/ANNAANXI8GAMs4UQKWrk0DVnQZkeXrWexxYsdYQwPQADRQpgHA8rWBEvp73RcHyw3tmpzlw2RHG+jhuvWA8cf4QwPQADTQqQHAMkTSKRJciZZdiY7Kb1Y0WaVfHCZ72i7vQL8wfzF/oQFoABqABo6sAcDykR08KmBCX693QWFYnu5pN9/QGlq4Xi1g7DH20AA0AA1kaQCwDMFkCQbwj2gsNAANQAPQADQADVyTBgDLgGXAMjQADUAD0AA0AA1AA9BARAOA5YhjrumKCX1FhAAagAagAWgAGoAGoAFZA4BlwDKuJKEBaAAagAagAWgAGoAGIhoALEccg6sr+eoKfoFfoAFoABpQGljSq5sZvXoKPUAP0MBRNPB0Tre3c3o6Ak4DLI9gEI4iMvQLV8jQADQADRxNA9/fTIhoQrevlkdrY6znhm9+/oh+ff8h/fRmQY+hsasb/1PpkucY3SzO7mPAMib62UV4qomHdhD9KNbAek7Tw4Qm6m8/p2V03VjQjI9zXqc03c1psZbGoKSMVU+CbYtdbft02w52fNxkN8DJab2g+W5q/Fb5bkqz7ULw35Lm+8a/jt+szzy/L7fTejxixzefzzaWr1Yr0n2MlUvo+9NX0wqUBz+JP3lA37z5iH56P6tgVAHpr+8+ohc/3x8RlN6nF9q+j+jbJ65/gzn25D69eFfDddWf9x/RT2/G1J8O+6NzHeWCsT6CrxiYz31RClg+wuCeQkBoAwsVNHA6DdRgNqVpBXRTmovQq+yJgS9Dn1S2pIzpe5JtGqil9pu6Uo5JXC87QTYA0mPBctjf3rCsfhomFVWe0feJ/kibqw/o23cWJCtQtv/e3aNvBm3PaCjNPnN8cmT5+T0X/J3+ICqd68z1rxAAABy0SURBVPfrPH5BN9V8m5415QmwPJLF5zongVl80X/4YrwaYJCb0WIzq6KZ8Qgtg++MFvbasl7QjCOnXoTUAHZOGdZLum0aEgNQrevi7+N94zY7XjV0T2jqR5HXS1psZzSN2MAaYNgutaWtPPfTjzhz2+2vS3p1W6df3Hzf4Qd7/JPeP6Bv33xEL54/cKLIj58sdCT3p58fXNAvgRyBrvvEfn1sAfSL50P7EPWxn+/U6/ez+pecM+YvA5aTFjFMwDs18TDmF3TCHcHcY/irAK+B4QB42c4ILCvNcT0HD4p1NNr/vK1M0x7XmWVbGG2N28b9Sn9lUO2TysF1FMEy+yQyRr1g+Uwn7cecI3xRsLyi1fN7JAHxN2+aCPqb+1iLcD5K0MAxL1LT1jbAcl+h8sJcnayWtHBy9FSeopCfx2XExZwjRfYJrTkBqzbWcx2h4ugMn1gmhymVRUtcsdQnk6b9Ju+wytWscvxUG5G8RxU1cvo/oel+RvPY8RVARPIaE8oYm1rayfZ17YtiHzR9mu3dfMp4vqoCohP5ra/Wr7Q8z696bknz054/p4XlPNtWxMf7IMsAWQSnni50G+L6Zvsq/p7ryLena3xMznLJWsn5k8lR5Sf3q2hxkIP8PC9CzLAsgacOZAS5wfUNeN905RR746fr8z7XgGunUhTCLvfn17byJ+lPk3PdjJNJe3Gj4Y5PhLzyn97do2/bxrREB4FNH1K0nSeLOt3lnZTawuk9YX55PaYFPlDayB2fEr/ZGuQL1TPd7AdYtgej5D3D2G6mIdaGuOp9BdLWiYHLiCcTabHnaJbfxpTm2/pnYdOmEJ3K7BeD4kz9XBq5CSY40XCfIseLJ72OMkEbqh+buE3KB0E73Eayr+txKvLByoIRyQ++DlR/2D7peKk/CWVEv2VqwDk5XHVZno9mXrWDXAssNykc4Q2CJWWUTnNtU2W4rYm5sGYNinPEWrdSdcD1KU3vYzc1ttfb7uN42ZRyfGGQP084dzIxV5kBxoZL630r+Fq+1mkLIgjVvtDwadWvwa8NSK12uub8KWH5dP1RN0/G86qDMeoYUzFNpqNM0IYaEytVRY+jNbZBO9yGqJFuWM7ywWpF2ePD9ll9sPsV9EfUZeb8E+uIrx1d+gcs93WofWJQcGNFkpd8cvR/duUy4smJT4BCZLkCqvpzPikwjC/1idMuVyYMPplUdTuRYZVv2ERMHfAzNs+2S+dOd+WDGrhDu7gdVcYW6rKJZgcnM/ab52cFDdqugwUBamy5TLKva5+xbek+qEG+Oj6wb0XLzbzaBcDup4EdtUPAEf3WV+MjK//0r7dE//y/FLbWv1t69acy/TtjxPqx9c6fiZpiGDVwreoz80C4oNMAm1PG0naybbU/9NrR2M9aD+Zbn3HX877ZhWM/o8XaneeOn7222Mbg4tc7zq2j8b04LkYL3F+eq/5rtE2+sS8xssVw+cJLnXjcRAxFSFL9e37PvbGv2qKtZfcI63h/l4nHzxfVThqun4wvij/nNotA3OQyiztpcN1Cv4fsD49PBW1OZPgB8Q2MbuTbQKcaU3vLPH1B8z4Wvf2QknVggaU7npZd7z9001u4TBEsNzeSJvnA1adr34rk8SnzW6hNTsU4z41+gOXWxTdhUeETpxgFNBDp3D3PZcRFXSrDJ2BzouWTyUSDuFQuwX6h/3wyscFfC1eyveOmJ7bVPQmxvQpu006icj2mj/y98xOzZK/uM9sQB/lkH+iLFTNG2me6PWNr9d2J/NZpR8y+kX5+SlhmTcnaDXVjR259CFP/c+qUOyZmfqeXMb9ipNvG+mPdT2i2bbbEE9ciPr7wNUjhUpHmljQuS2+y39vt4HWrC/r5OMnX1Rh5F+96rLJ+BmZAUFCTl3IhwXINdG0/sX9IadG5dh/qvlpjIX7GQFsAyxpSxbLGb8fuD9vhA1/VXwk+mz7H7OJoq/u96U+qDuR6zLjx9w7IS/bqMWQb4iCf7IMV15WhtyK/mf7a+stOg9I+kOuz6+56D1ju68wSGMsuwydTE3kKTyZ8ApRO4HlC4ZNJ10mHxcW2xE4+/Ll7UncjsRMVwfbvnHfGJqF/kl+lz3S98TpzfWAgyYwR+yf2ehq/5Y19zNbr/DyuDx67QNM6SsxbxfFrGyTy/OZj+bWtTIltlhb0r151W6lzvUwHyzqyzruBRC8ajH1x/5pjHFu4P3aUXc9zt0z+3K7L897Kyfu9MlCqn55V1K5wr2QViX7BW8oFkUOO0p54Wznumwi8rr/tcdKgF/SDy5yuPwzL0Qi/px9teySVgNMKXFh2I7HdOmAYDcFW+1ECY+kzbX+8zlwfrFb541PsN20/a2NF2XNQqEP7MfM7wHKmwwJHl8BYdhk+mRoQC08m8ZNnYHNHn3NPJnw8Q3HsNQQL9VOy2lLLvRlOjj5x/4wPwn41frKjZNm+ricm9ykZIlrbMZPdtpnbiPmLP+/nN7lt2w68j/iobUwZzmytVfNKmKtWSoKsp4IyRbbZ/eT5NCHnl5iOtaGvVkxqmpcu5bUbrm+27f770H9tdvK8k8fCr9v8X3SiFm6Cqh4ykhtt1hE9D6JaIcnY3uaPou8KYNlAUwvYn7A/uaDIxzMUx14DWFbaTtYBg22LjxhY7QuOVr9xnZ52ViviPqVeMKxa25H1xm3E/MWfi37z1oWiOejVUaT31YoAy30d2XbS0j/Ne9He7DLhySA8mfDJz2uroH+5JxO2Jffk44tW5fWqJ35pSHSiRAn9k/wqfaZ9Eq8z1wd9IsvH9Zu8gPm+v6T/T5WGwbpmPcqv/nwL56ryralLutjLL2Pq4yi09Orb5mqB6+irv1zt8NwSLwKbucm2tR3D7XJ9qf3IPZ7bWWWlYbi+VnWofE61j7KGg8yoLEOHCzb5kT7dH70OhrZ2HpMJy0mgXNlzuv7I/oz7gvvg+j9+fMyH7TqIg62uTwJW6TM9vvE6c33QJ7Lc12+q/0jD0IOaLzwtoHPVUQJjXEbnG5t+m8iLfaILT6bhySQOfrk+yj6ZcJTNgVvTp9z29U15nn/YrtgJNPSJdROUV5eySfZ1bTe3lXoCNjfrtUfMHF+cyG9Om+eaJwO2expY5vkkQaj7mauRcK7W/jf1hfrNLWPqkgHe2Ofa5s5Jni9txxxDOzy3Qj8Y+9i2tmMq23gtzVh7uP3sfvMNfn0fjMBg874temh8UY9BDHj4c++GrwHnm6iBDFhmyPw1qb+n6082KGb0WfSZPyYRHbBdsUgr+9P5PlKXskPdfFhfoA0QWda/cGTojdvPvDiUfFjDMm7wc3ZEkBx12s++p5u/13fc325e0VNf6Pw/L9bBz7FqseOTmg2+6nM+Odo3g7k7Oqg9k81NgXy8iUqFJ5NYW/6i2/1//smE7VM3MKVuFVWnX8xUnrL36GAVYa530DD9rcae4bK6mdLev7rep7gGB9tvJb6u/ZPvAzt6WOeaLlkjFZhLu2GcyG+WHaedQ91aG609PK+FiyxtM+vRATUeU0+7agz4+KDOzDLFtrnjwWtINjR26EnttV7Pa+/G3erpffzLkT9PZdvaYZnXPMHXLTaWzO16zHO2rlJ5xmpbsvv02NvnWEUW632X02DZyVkWgIPh6df3wtP/zrwbxjc6kp7WV+XnU/WHoTQ94slR75z9qwt0wHCpdgNx8twfkPGnD76WbXr3FXf3DKUPf/eRfB+UjI9l25sFle/7nTP/NrSdHugwOdB+thmELZGGEVlU/ejVzZ/dxVyfMPnElQXLNliZKFANe7yXsn0yCU+mfKIzJxM+cdjlIjZH+sx9KjqZWHmZcrTLP6Fxn/z+m/+lkzj3W25DQWrY53gZydd1+SIf6Isj0wfHTgeqGjtP5DceW7yG+pB8ojUjjRnPH577Dvyyrn29q3Z5jtoXyerzvDLltrl953qkOSP5JPUznjuO9r19xM26xTYZ30TLeWss2x89ntv0xrDTPu94u9/pPwMbQOC0C/81gDQdHWy28vJuJPvpjbQbhvKficb6bVT/C4Bt9yntfXd/gshxR3/YVidCWs2tU/SnIF9X2dax/3HgA84v9saS+65eAx04FwySFtRFEc8b82ouMvwy95obRIeB5SK9ZfvN9EvrMycNarml/aSGZQXMu4VQH6/jia+A5aijjhlZVgNXR5LNQz/M0/7qxdyG3vBkyicKc9Lhk41drkwgfDLJPok2W0WZPtnQKMCDeLzyQ3t0utqz2LspsL1Mjq9rnxX7gPfUdezr6JPoB/bdcH7Ti05U82V6uYv1po0/zzk79Sacq45/xOhyXply29zx5TUke5536kfNN3UhylHkRsv7tnlgfBmFXweWE44/AizrvOWUVAzpqW3vPyIFvWJ0TYRLPr57+7lqr993JidaRRKjbXWOoasVk6vqg5j9vxc9FvtjH1+/D2G5bvu4/SmEZeU3cVy5X54Posd3j021Z7Eznl0R7TqSbJ4Wqdqo9+euI8hDwXLh+OT6zdEo77E8odSnZ67n+yqyXEWX5+ve0WXAsjMg/gKB/50TPXzVe8LBn5hT0MAlayD/pI3xvuTxhu2j0C9HlVMuUplTrOgyIsvsFLwC4qABaAAagAZOoQG+0Y8SH3t9CpvQBrR/ZzXAucoZN/YtN7RrcpYPkx1tBvANIssDOHEUV17oBxZLaAAagAZOogHe75USH32NcwQitNBAmQb4PoGkhwFZ0WSVfnGY7Gm7LGvXHy/A8p08uXAOJOe9Jry23NTiiwb/DzP54Ef4cbwawBrSNTb6JH4xwJxykx7n3javg9wceKx5ftf6cyw/XW69399M/29LsgklX5QyLE/3tJtvaD0g3wGWB3Rm1+J6uu9xojudry93IYKPMHZxDWANifuGdaPylzN+Gj77ueauweVd6w/rCq967j2d083NIr517wnnFGD5hM7WAkCbJ/mpFP7GogsNQAPQADQADUADfTUAWAa4AlyhAWgAGoAGoAFoABqABiIaACxHHNP3KgTlcSULDUAD0AA0AA1AA9DA5WsAsAxYxpUkNAANQAPQADQADUAD0EBEA4DliGNwJXj5V4IYQ4zhkBr45uf66Wjxxw7D30P6G3VBT9AANDAWDQCWAcu4koQGzquBJw/omzcfkXlM64f067uP6MXP9aNax7FY2nfeh4+NDWx8cp9eOI+qNY+eDY6F/s6rP/gf/ocGoIEODQCWOxyEExuubKGBY2rgAX37bka/vvf2d+X/392jb0YyR5Mjy8/vueDPfVGv7xb0eCT9ga6PqWvUDX1BA3dJA4BlnLhwRQkNnFEDD+jbNx/Ri+cPHIh8/GRBL97XEP3Tzw/OaF/uCY8j0HWf+GTx2ALoF89z68Tx7Ee8QgvQADRwDg0AlgFKFwQiWCTOsUicq83HnCN8UbC8otXzeyQB8Tdvmgj6qJ+Khjl2Lr2jXWgPGhivBgDLA8DyYqceJz2l+XpFq/WC5rspTQ78iOkpzTZLGUjXS1rspjTVx05oup/RPHa8srWp3y4z2be0YZUxNrW0s57X9uzntAx8s6T53uqr9X2xDxr7ZnvbZxOa7ua0UP602tDvS/wm1YPPZP/29cuT+1W0OMhBfp4XIWZYlsBTayHIDf6Q1A143zyJaCezbxpw7VSKQtjl/vzaVv4k/WlyrptxMikwbjRc+1j5TMgr/+ndPfq2bUxLdBDY9CFF23myqNNdxNQWTu8J88vrMS3wQeUHPxe9Q28lfsvUqDNOKHucNQ1+vXq/ApYHmAQMirPtzAFfG05nG+/kzVBqgbJ9/HQrAHZHmaAN1bdN3CbVXtAOt1EIy1k+WK1ouXUh2fbBZLcIJyjbl+O3AcYYJyRPvzGfMsDYcGm9bwVfq06dtiCCUG2Lhk+rfg1+bUBqtdM1rqeE5dP1R908Gc+rDsaoY0zFNJmOMkEbakysVBU9jtbYBu1wG6JGumE5ywerFWWPD9tn9cHuV9CfDF126RbfJ65X8Hl4joVPRJ8AlgcQRg3LTSTZiQwvacEw6ICfidDOtksngrvUcNtEqi37uB1Vxl4Ml020OYBlCyynu4XVjmXXYUJOOS5TBMs5PqhBnuHYtW9Fy82cZlsflsv8ZvvqGt8//est0T+p4++WXv2p/wmG4fKFlzrxuIkYipCkNP78XnCT309vWnbDsI73j3v8fFHtpDH4WHObRSBucpm/laLeXPd7Fal0+z1kf3h8KmhzIsMPiG9gdCPfBjrVmNo3J+oLmvex6O2HlKwDCyzd/lt2vf/QTW/hMkWw3NxQmuQDV5+ufSuSx6fMb4Nr1jp/oO7+6xt8eL0+BCwPsJgwxPrAV00sCT43sypNI4jqNrZwtNX9nkFRwa0Ly7EJLNdjxM7fOxFcyV7tI7YhDvLJPlhxXUJ0W7dnbK36WOQ3r45Y3Xf489PBMgOCgpq8lAsJlmugk3aPMO2cNDrHQFsAyxpSxbKn6w/b4QNfNb8k+Gz6HPMzR1vd701/UnUg12PmLn/vgLxkr57HbEMc5JN9sOK6PiS3n8a+YA0u8ltLfbpfOCbwNXzjBM/gn+PMEcDyABONYdmJ0LbUqyE1kkqgo61eBFmlVPB3ExXB3trRYl8gDKMh2OrJJIGx9JnuS7zOXB+sVguaVf2f0ULX7/fB/b/Yb4n1a7/g+PLFl4FS/fSsonaFeyWrSPQL3lIuiBxylPbE28px30TgdbVqa0mDXtAPLnO6/jAsRyP8nva17ZFUAk4rCCCSfZWkA4bREGy1HyUwlj7T9sfrzPXBapU/PsV+0/azNvCqNQDflK/L8F1v3wGWBxBRLijy8Rp8I9DsRpabRXO9IP9mOPkGPwbbNhhtgNVOuTgVLLe2I58gevltgHHGoi2PS+AX4Sa16iEjudFmHdHzIKoVkhJtLNEDA2AGLBtoagH7E/YnFxT5eIbi2GsAy8q/yTpgsG3xEQOrfcHR6jeu09POakXcp9QLhlVrO7LeuI2Yv/hz0W8l2kSZ3jAUrGPwKXxqaQCwbDmjdLIwxOVGllOPj9ml8nrtnTdUCoQ5lmH57kWW+/rN+Eg+0d2170+XhhH6U+Vzqn2UNRxkgKYaB4YOF2zyI32DjGkmLCeBcrX+nK4/sj/DcWN/cR9c/8eP53L+a7sO4mCr65GAVfpMr+fxOnN90Cey3Ndvuv+6X/m+Rx3wGTTQXwOA5QEWoVxY1ukUDtz2GEyO0h7cKDLbJUaorZ0onO8jdanJpm4+rKPhIYBzW+kgyzDv3WDYNh7c/lB+a2vrDn13TljWizSDzfu26KE/B2LAw597N3wde8wyYJkh89ek/p6uP9mgmNFnPdZt4xDRAdsVi7SyP53vI3UpO9TNh/UF2gCRZf0LR4beuP3Mi8MkH7b5F99ZASN/PcH/0Fe5BgDL0cXle7r5e72DwO3mFT2NHreifFDkfN2O/YSdNuv0C7VDxNLbf1hFmOt9l11Y1lBebRFn5zfX+zvL4GvZpnOm3d0z9J7Sln35PrC3jav3ibb3dZZ3w7Bsa9uH2bILi0P54pDvu3oP2hcqT9nb8UFFFut9l9Ng2clZFoCD4enX98LT/868G8Y3OpKe1lfl51P1h6E0PeLJUe+O/YSdOVegA4ZLtRuIk+f+gIw/ffC1bNO7r7i7Zyh9+LuP5PugZHws24r2/d7Qdnqgw+RA+9kGAOjo65RrGtrKPw/cTZ8BliOT0I/G3fw5LoASUOza/3jiRYnNDXH8sJPwVYrqtt8UpyA17Fe8zIxmrQ8lyYgSV3430WUxf1uKIOut9cL+13V4FwyR8cUCEI57f58YQOC0C/81gDQdHWy28vJuJFMPGLG3KzM2mmis30b1vwDYpmxq37v7E0SOO/rDtjoR0kqjp+hPLK2lwx8d+x8HPuD8Ym8sue/qNdCBc8EgaUFdFIV2mosMv8y95gbRYWB5ZUWX7X7o95Lesv1m9W+5pf2khmUFzLuF9R3WNFw8QAMn1wBgOSq6Y0aWm4VPehqfvtlPgD7x+Gn70+6q9Il5cFNg6xPyVnUk2TwlULVRR6brC4Mh0jDM4l/tLe08wa+jT6IfGJ4Fv0XH2NiQD1IoK/pMemrb+4/iT9UT4ZKP795+rtrr953JiVaRxOGe4HdKWK71dNz+FMKymj/iuDKgChF08fjusan2LHbGsyuiXUeSzdMiVRv1PtV1BHkoWC4cH9EPLX6z1qr1fF9Flqvo8nx9cjgQ57dlH77HOeCaNABYxuTHIgwNQAPQADQwNg1Y0WVElgGm1wSmY+wrYHlsCyTswUkbGoAGoIHr1sByQ7smZ/kw2dEGerhuPWD8zz7+gGWI8OwiHONVJGxCJAcagAZOrgErmqzSLw6TPW2XGIeTjwO4AFzgaQCw7DkEkxILMzRwlzSQknfMOaTNq3Sz1mjWibvWn7uktQH6wrA83dNuvqH1aHQ3QN/QFwDoBWsAsHzBgweowwIODXRp4K7B5V3rT9f44XvMcWgAGji/BgDLgGVc7UID0AA0AA1AA9AANAANRDQAWI44Bldy57+SwxhgDKABaAAagAagAWjg3BoALAOWcSUJDUAD0AA0AA1AA9AANBDRAGA54phzX8WgfVxJQwPQADQADUAD0AA0cH4N9Iflxc48ZWi6ow22ucGVGS5AoAFoABqABqABaAAauCMaGBSWsS/k+a9+cAWKMYAGoAFoABqABqABaGA4DfSHZX3VsKbNTG2ifqDDbIOrKe2X4QYLwocvoQFoABqABqABaAAaOK0GBoRlZfiGdgqWp1tspg5YxgUTNAANQAPQADQADUADF68BwDJEfPEixhX2aa+w4W/4GxqABqABaOCaNHBmWF7TdravUjf28zWgDeAODUAD0AA0AA1AA9AANDAqDZwXlpdb2qu0jepvRxuIY1TiuKarRvQVURJoABqABqABaAAakDQwMCyvaTtV8JsKvogsS4OCzzBZoQFoABqABqABaAAaGIcGBoblld4RYz/f4CY/RMoRKYcGoAFoABqABqABaOCiNTA4LFc7YlTRZaRX4IpwHFeEGAeMAzQADUAD0AA0AA2UagCwjKu9i77aKxU+ymHRhAagAWgAGoAGoIEUDQwOy/xgEuxuAQGmCBDHQCfQADQADUAD0AA0MGYNDAzLuTf4QRxjFgdsgz6hAWgAGoAGoAFo4No1MDAs5z7BTz0iu95nGU/9w2S89smI/mMOQAPQADQADUAD49PAmWG5getmr2WkboxPIJi0GBNoABqABqABaAAauGYNnBmWV7Ra7JqHkhzoMNvgZjPccAgNQAPQADQADUAD0AA0MBoNnB+WVya6jMgyrlyv+coVfYf+oQFoABqABqCB8WngvLC8VE/w4/2Y97Rdjs9BEC3GBBqABqABaAAagAaggevVwICwrG7Wa8C3M53CRJMPVb7ynnaL9WjC7ZgQ1zshMPYYe2gAGoAGoAFoABqwNRCF5S+++ILsP7uQ897OOW5u1NstupzMsLyn/WxLG0SUcaGA3CxoABqABqABaAAagAZGqAERlh0Y7jLaguX9dIdUii5/4XssBNAANAANQAPQADQADVyMBvrDMgb7YgY76yII44pxhQagAWgAGoAGoAFogADLEAEWAmgAGoAGoAFoABqABqCBiAYAyxHHIArblXeO76ERaAAagAagAWgAGrj7GgAsA5ZxJQkNQAPQADQADUAD0AA0ENEAYDniGFwp3v0rRYwxxhgagAagAWgAGoAGujQAWAYs40oSGoAGoAFoABqABqABaCCiAcByxDFdVxn4Hlei0AA0AA1AA9AANAAN3H0NAJYBy7iShAagAWgAGoAGoAFoABqIaOD/A72XN2eZVwA7AAAAAElFTkSuQmCC;" parent="WIyWlLk6GJQsqaUBKTNV-1" vertex="1">
          <mxGeometry x="41.15" y="248" width="224.87" height="50" as="geometry" />
        </mxCell>
        <mxCell id="x74ONLKLbEEUaDy3nGKP-19" value="现在linux通过解析设备树节点创建device&lt;div&gt;&lt;span style=&quot;background-color: initial;&quot;&gt;并从设备树节点中获取i2c控制器硬件信息&lt;/span&gt;&lt;/div&gt;" style="text;html=1;align=center;verticalAlign=middle;resizable=0;points=[];autosize=1;strokeColor=#6c8ebf;fillColor=#dae8fc;gradientColor=#7ea6e0;" parent="WIyWlLk6GJQsqaUBKTNV-1" vertex="1">
          <mxGeometry x="26.02" y="301" width="240" height="40" as="geometry" />
        </mxCell>
        <mxCell id="x74ONLKLbEEUaDy3nGKP-20" value="" style="shape=image;verticalLabelPosition=bottom;labelBackgroundColor=default;verticalAlign=top;aspect=fixed;imageAspect=0;image=data:image/png,iVBORw0KGgoAAAANSUhEUgAAArcAAADjCAYAAACfHTy/AAAgAElEQVR4Ae2dPaskx9XHJ2yEGwRjGMRgdiQQKxBOlDkwCjyBkNaBQYnZcMCJFgT2osSJBgTOds2TXQcDxsFGq8jJ4AvC+Yae9H4Ap/4A56G6+1Sdeu3ql5nb0/MPLjN3pl5OnfpX1a/PVFcvNpsN4Q8+gAagAWgAGoAGoAFoABqYgwYWc2jEnNvw5MkTwl93H8xZE2gbFh9oABqABqABaCCuAcDtxCPXANvuYKt8hkEfH/TwDXwDDUAD0AA0MGcNAG4Bt7OMDM950KJtWJSgAWgAGoAGoIG4BgC3Ebhd7QtanBZUHJa0jqS5hLAQub2OyO3qsKj0ojSj/w6rSUaQ17sllcda39rWU0HLbXyiuITWH6eONS2Pqs/Gb/9U5pDH8estaun62rz67g0tfvqJitffPeo6dx6Nfk7LNz/R4qc3tPx83L6Zt9/G9dUofbve0aE40mlxqv4Oq3YbHwluV7Q8FFQczw2OfetZUakhZfxFr0tnD4fbj+ju6Sf08MnH9NUs9u/mtaeLj8dIe1m47avrDa2bizYDtQzjj6vzMfqgXxnngtvpzCH9/NK+eIxa7uef0+r1Gyp+UjDS/L15Q+V3z8eHrs+fU/mmhrq6rjdUvM6vZ90AYQWF332evoD9/DktX3Ndr2nVGijx/VC8eU2rkeGs7rvnVLKvcwBwoN9G1UurH5V+zwW3Hf2WZeuFx9s12bTe07GB2unD7XZJhYLHc8PtgHqmEnUZDLcffkwPn35KNBe4zWzP5SdSMTntyjp6e67IbW9dG+Aqd+v0onxNk98gW88FtxuayhzyqGMhq28YQgTYauj6iRYK7rLKEWMwlv75axugrXoyopeff2flLyJwu37+HZVV1FC2qaUdTtka8isbx48+Kl1kRyCH+i3WH2f9nHU1vu+y/XbW9mXofQb178o6Wnsq9rRb57f5cSK3vRfn/IZVE/ql6jmjgAC3zrYEwC1t+ur63NB9xnFwPkA7H9yez+aO8+Dk++XzKrpZPv/citKuP/9ORxZjENnNxxxxe0OqLs67FuBWPk/51sBS2URjg3ZJSFVg/pyBOAW3XLaC+e9EpLaO5Nagm8qfsnvod0P9NrT+vvnZp+PDLWsHr337JjfflvaFgtsj7TuAreoXwO3EJ37ALeDWm0ABtxpMPN90Hs+A2+E+zF2ouqfjLQBBiOzc1xvaPH9NIYBdvW4irK+fR7XFtizUFgbeqxqM3BpYr3yrYTcBp89f19sx3oSjx2xfyPaL9N8Av13EvqAWALeP5/vuYz1sK8PtgXbBPo7XMxxut83+P71HVW03KMj72ZOjRjJd6H1wq8KaQjfBFMeSlu7PqwPqGbRvcrvybtJRN6OtBt6kY8Hth81+U7XNgP8++YTuP/rQPvHgo6fme04Xeg1sVfjTU1X2J3T34RN60tSn6/o0UFcykvoh3X0iygvt+f3wI7r/5BPL3oenH9OfVP2cvkd7wgMlPhB0egbHakvBmlZqb7jQaXFYWdElnU8OPNZg67aEy+ha25htV+OnZmzL/bnBMde0vR4/zd5dL687JzRbJJSPtuoGt3rvr/KvstfsDVb5MvpN+j/63u9PdSNZ3T5/z3G39tQ2dptDGKwX8TZyn4Xmxa3fnvH6Z6DPm72m3h5aETHVuoz210ZDZBLqvL2g9Q1SXfapMqwqcA3bxdHLGlA5fRZ0Z8Atw2uwPJ3/J4rbl99fXJe17SHa7nS57IekXSP0T7hPpG3+XmV1I1ndRj9yW/ug+dzaF60ucuzIPtfdzW8M1j8FL6aqMlMXNIE96Grv9TIyfvq0h9s17dfHglsGAbH4y4XQWpR4ko6k1fkCk7hZ6PjmF/u12Iv9gwPq6bYwmYGVtK8VcEw5IZFpwGOIDEHqp5/S/UfDYJDrYbi9//hpvVc3UJ9VF9sVAOUnT9Jw+9XHNtQaiP6U6OlHjwy3pQYurU3WblufsgZb0iV1o07qGKxrs8fWawO3hV9dW3elBfVufss2B27LfTyvmRMa246unwta7ps9y2zbqRy+57JlrgqdlsBwm9eeehx3nUO0Blz/Wz4NwG9Le4b3T3peCs1V+jMJY3JPa/M+CaoCdPV2gUg0U9Wn4SpQTxK4RD1WORHIY7Bh27neIIw6ZW+0P2KRWwYhH8LW3zl7hBO+0P5363f+57ZcAm7ZT1Zd3FcRX+e2Q6fT/pX7m+V7368Mg6XrX7btJx9Ku/pNtz3STi6PNZXbnpDm+rRH1+foY1qfPxLc8kReykVYTThN1MYsZM5EyRNzAGRDjl2rxbKKggqIVfUwRMQWv471WHVz2ZFFR6fldNWxYXZUr4o274cdB2VD56d0/7Edpf2qia5awMkRT/WahE8BxE2eGm6byPAnT+lOR4U/pD8xjErwTJafgFsRjX14+pF1ksNXH31M9x8LuO3RHt0/XQcua6YBKxmpVf1ZR3H9KJ9VH2uiRTvn13VPuBU+kO3fbNb6JikFu+745vmgAmHrVxWRT/tE2lb7U4Oe8n0VIefIZou/W/uYy1FH+61oLX9NqX5xURfLfh3d2uPMccqmLB2wH0IAH/uO21OQmnvlUYVqToxpdHB7Wv3cAH7zE3/p/GS/biJk3mLO5XIkSwBG8hQDkd5NV93Q9V0sCuv2FUdlfQiqxjXXIyCFwSUEGtZcoNqm4asNbuX3cq/tG1qqG9SUX0aAW8u+QNus77lvgq+ZfquOGrNPo+jWP25/yf/5wkBF65/TWp4qUUWM60isexQYg2UF3VZE9HN9k13y4ijLb+wf2a9se+w7bo86KcTZg673hvs6HdyeYP+yrfXrs68fiL6nlr8HuvvMzpevp1C+R4FbnmDVImdDZ2tjePHMhNt4eWxDaGHY9L/xRnV01sLE9TtRtgyhxNtkd3ANtwyJKkJrwy3Db/Q1CZ9xuHWBsyo/VFboMw2jbHezzcH7/FN6cGA92g7Om6zPtCfXv1461mYFb76uGcBCkTFdVpZ27H7WeSvtsK5G1nWmXW1t5O8VgEq7GZ5sIG7ayX7VY57BzYwdXa6+WGU/+OAp6219n2x3vI5u7Qn0Z7Jek57rcS8WonNQU25Mg+xH93uuJ69/jH2t/rXmO16cVeTL3LSVVQYDg4DbGj5C+1BNPVmAadlot02DgYBXY28YQsaFW6cODWXNSREVsDlpEu0xttvtDH7OPg+2PZ0/7bfx+idoN7c/aT/bEIdB96KoqosvRlIXEsl6jd/YR94FXSx/83lM0zHdcT2928P+TLw+BtxuV4f6bNtyZ601SU00bRi255YnbxVpUZGavR25jBrgLXRGDLE8oT235qfSkSFAOYfb5izgtn28QEfqTwjFLifefg17ItJJKqL6sR3t1OkYAvk1EwY5P0duo5FgLpdfk+XH4PYjuq+2OzylP3E5ua/J+kaEWw1hTt/k6CInTaONi+o6y6447GnNRsYvw5MHacFx4I8dH8oybAmWbfdZ2q54Hel8dh3aN9KeLH+LucbRXF2/D/bsJzP/2du0+PMY3Ob1T0b7ZFvle164q0jja1r2PKtWRXr1cVoeaIwDewwLsYgof+/CCX8egxBLDwxLP4UieMrPDGFqT6XZhmCDStNezw8D+kn1GfdVR7jl9sf8ttmM0z+WH6XGmvcMdW7/1PnYr3G4DefL8Gmu3zid02+13b5d2q/uBZ7zv6u7tB8y2hPwbZvvz/f9jg7yXNui+81kyjYPbn/9619T6C/akMCNVMEbyqTzIotjrA5eZHjS9l8jcNmxHqv+nIVpSPnSH4n3DJ3Va+DmKwrdUCZBMRMGuZ6LwG1Hm9i22gd55/ZafZnwr5eurU9zdJGTRp0xGXqqmd5nqoBlZF1n2cWwF6m78mUDpkEY87creD6WZYg2MrQZKGNbfMALlxmexNnPYaiL15HOF67LsivL36qckA1hH6vy2S5/HrQh1/ixtpXzhf2Q0Z4u4yhwE9FCPZShazRXg58DAgyMDjRY/m+x14BEBDoTdXBeFzKC9XM5rXDL+0QDfuIyBrQ3aBvDVwe45bYvou0RWzHGttfp0zTUTQBug/qNX6hwe4J7lAXgurrjfL1h3fFrUCsXSxOA247HgCn7g3Dbt2EqCqWePMaTrvr5K1hWG0BIJ3La4M/EvChEFmLO6yzCQZtknep91sLkR5+yynbrSvxvgZ2AVrUvVT15jG/CUtsIgmk7guRF4PYJIrf6rNpL6jpL0zymEkAZGVfd4MkfO7cLt+Z0CA2kTV+FQJT9FPouNf9065/xYFftrzRP6ar3RqbsdL8LL9zDIoM5gGbSMHSmXiOArOZ2BtMEDHIbqwdWyH2jvDb0gFDXj8H/O5ZrfJJob2XzsP4J2sq+EK/stzDUTQFuzU2PGkgbn4dsZv+Gvkv5JO2Hccby5bclbGm3bB65O8a2BBW1TTkx6zte/ERUxsrH32dAJ0/k4aeZqeO3zhDhUoOnEwjkRqu6iywIrAJy9Q1jn0Z+4r8U3Abq/0pvpYjvuc3e/sBtzmyPpTcxGbZ+3qLNLEDI0M6j6DrDLuUfbqMGLcd/bLv7PefLg67LwW3MXtVW/i51Q1leewJjO9PftSbtSG3ty8hFe6dyjV3d+sfkax0zjj6i6TMgz88bAxT+3L+r3S/DbgsDRDLy2HYSg4ii1VG2BOzltDsJmf3b2uaLLtsScv1W13lGm4Xe2CYNjoHv1NFesRvKukKk9meyv2y96S0aTRS7BtGIXjqVa+qZJ9yq9o14Q1k+3NbnupZqn628+7g6xYDvKo9Mzhte2NTNJC37dHkit+5mVueD8l3BCbjtUo8YFJWAud5Y9LlJLxdHdWOdfefykpR/9IBw68j4v4bb+ixYdYLAV/L81ydPSEVwq8frBuBS522O83rI2KfbOXKro7Dy5jBxskJVtwu3T8gcA1afnfsVw2vTpuhpCVZ98X3HvX2u4ba0zyjersWvEjFdN5NNjnY4zSV1zXW2aFpf2FXHkcnxWZ+rWv8y40d2u8ETzwHGlzyWDDRnRJEzxpCJkhfmXOzAObxLZx7r1h6z0Gjt5fq7aUNdn/Jr45toP7Hv1OkP+WdpD25Pjq/VXku1/UDts3UikCqCW597G1nYnfKtPbeBn80ZbPhcUmvuVacLBE5LWDVPFmsDW92Hjk38OdcdgipOo19z4FbvUW3u+ud61QkT/Bjfc/zEnwlTffzGPurSP9pn3P62V+1bdaJEcwNj4Nzax4XbDdXwqSC7iWgH9Fy3nSPe3c5qvgTcdu6btr7L+v6x4NbaH2jv91ILYCriwRMtb2HQr14010zkOo2ut6AiFbkVUSgvb6d6uG1mITYdzQswp3FeowtUYDEMdLYLqLwNwX1NRUAZWN08FDibltOmynOjyQZUxcMlmhvG7qMPceCbzdw8zf+xbRZPnhDbmGqP6Z88P+v0DLdaY05/WjDKZac0yvld7aTyjKlrtjH314g6PYOmN24qv4QfrMBjOjXutZ/1hafxC9c5Otym5oHDqolUD4V15bdUn8Z04PdPcVRbu3x7jO/qvpQPF/H7yfiV83XrH2FXYF7iMv1XszjH9g160TINKOGf/YvXodMSlH0mOhisywWIlnq4jBxgZXALp22xq4n6dvODH330fZ/TZ+3944F/b7+1+MHtn046M21lsOP+06+vnwuoNOmV3ziP1wdRG3r4TZbVXEQUb9SDJVr6UtxUqNti/VLgXxx2b4/tj35aukQZjwK36qitwNPJTkVmNEGdfVk2cMoTvzp1YWlFPyunezetqTrqiHE9YfsTuems3HqGLUxVJLlalLgtuX5IC0SDZOjpZJ9+Qt7TvEQEVOd9oiKpT+mhAk0BkyPBrXpYgzoDt44gq/KVXXVUtQZRP3LLtqmtCw/WE8py2tTeHtP/af966aJw22hOTlj6fU/tXETXov0dI4mhkxxSkcJu8MQ+M2P3nHBbndFrPW3OPDGtttuHyW7tUX7mNvEcEHo17fW0p28si8yDWm9NnwbnX67Tr6d7e4R23LpT/zeRM+vpZD+9IQWpwaeGBeGJ07cfJ1Y97KGCBoZjzuvYH6yH85jXMLDaZZ0FbpVPvRvxVFvsM2J93di2pb/vAWkD/ZbdPylNJb9zn05mbsiroc+Hye4w2MNvls0C9HMi8MExxBoF3KY1Xo+HUW8oy6kQabpMRJvwTWJBgDXHYDE43vJrb50x3IYusqzJqls/9rYHdQ7a1gO/Q6fQADQADVyrBh4rcouF9+wL7y0D6pC2957MALdn13TvvsF8g76BBqABaOCGNMBwe6R9x+PAELmd+EAZAni3nLc3QAFub2jivNZoBuzuPb4nPt+jXdA2NGBrYFee6qeUFXvadQBcwO3EJ7tbBtQhbe89QQBuJwq3OftZeb9p8zrwZs7eGpr4nIJ22Yvn9fkjZ/8n789sXke6ees8vppbe65dXxOzf72no3xi2eJEh1W7jYDbiS9EQwDvlvP2noQBt4Dbic8JvbWNdk1U2+0Ltd3nc4PBubWna38iva3vgD/WOzoUzQMdALcBB13h5H7LgDqk7a2D5Qq1gDbNY0yjH9GP0AA0AA2cVwOI3AJyZhLNOO9AwUQE/0ID0AA0AA1AA9ehAcAt4BZwCw1AA9AANAANQAPQwGw0ALiFmGcjZlxRX8cVNfoJ/QQNQAPQADRwTg0AbucKt7gxCtA+V23PuF2rvXr07qJ6yuN6xu0856IWLRtzIuZEjKmb0QDgdq5ix0R+M4M4upgP0fZ2TSvrcbXqkbAFlfuV/3jsIfWovLHHEGeWy4/traBwv77ifpfHnfmPA/b6eaDfvPIy/X21+TAnXvHYQJTzasfdI80rgNtHcvzZhYqJHBN5b22vaXl0zow9if+PJa16l+0sUruSClm2fJ/zCGTWeZOvuGq43VB25Hao38bqv2sqh7WSo6trahdsxVwPDXgaANzOVRSYyD2xn/2CYjZaWtPyUFC5W1tR2vV2SeWoEMmRyrou7p+1ALdy58Cw5WOG8ILKQ/Nz/pXDLfsg/TrUbymfzvg7zImYE635Y8ZaRzsJcDtXEWAix0R+Bm3zFoDRIqS7kkIAuzq0P2WMbVkcVsTvR7PrDL5LA2vHhXaA30a1Y+p+kvZhTsScKPWA97PWA+B2iMB5sqwe8+nvUSzUohsov164mz1121UVJVP7Bes/O4plLURe2gUVx5KWu8A+Q7at+gluTau9/fNvzLaqvsB+y2g9gfZZNuP7aUwgjXasLQBqD21IO4k+Y4gMAanud28vaH2D1GqbD3BcjwJXXa5lF0cv6y0SnD4EtxqUgz9HczkLknn75Anb2d5mXZeeAxYUb3e6PPZDMv8I/RNtK887mBMjuk33X9SvlvZRBvwEDbRpAHA7ZNLQE3lJZWyPYmBxZrgtHeA0gLvwo1nip1qZjt/LhbnqdLbt2M22DeeTC61479UzxH/Ie5kFsKVPk6Aq+khvFwhCYj3ZargSmmGNJoFL1KP0q8sJjB/1PQMh287pw/rk7Qs+NHI5vm198vRbcLQN0meRdrdN6OwHvz3j9k/UDtbaodu8gzmxn3ai/eCMJ6SDf29NA4DbIZMAT+TNoiSjoevdsrlRxr/r2VrMrMirirDWewetxUnUI+vYbET6kwPEIo+CC5kvbhsv6OqueGe/pYZrvz23NmjGaO+zrx+IvqeWvwe6+2z4pMx6U30qbV830VwGRPld9X5XNr8m8K8Kto5S6aXeVDqlOXXSgpcnOP44mhrRGtslAJChLgy3yodcphgnXM4pdoNcnzwD+4ttEm3L85lsY4vfnPmge/8k2thr3jEXK9WFEObEzHGS6IfguEL6/LEEX127rwC3QyYBMZGHft6NLbgMGy4AVGLiMkV0LFYOi4+/jwFxtm3NwhoDBK4n9j3bg9f2ifFycMsXLArqbLht7ScGLRlRVO+FNk0Zpp6h+uDxYelZj1MGThtIs7TJY0vBrPppvmpXBAS5vj55OG+fV/Z5D7hN+228/jF9HtC59ldYb7F+YtsxJwZ82kdHyIMLhBvXAOB2iAB4Ig8u9hvaRBYqnsijETPLJl6UEotwyI7QZ7LcgG288OifkV2oaf4fCi/JxVHaiPfjTNDc1xWYlrTseVativTq7Tee5hkWbejs2tdag1759aLP37tjhz9v0yanY423pVf298nTtd06PfdVR7jVNkb8ZiLXw/pH2xkbmz3mHVUm5kRAbau2YprD5+OsEzPzI+B2SIdedCJPLUoNWMiFrYdtvMDwwh97zQECTFQTW6wCNxFVD2XoGs3dRC622vSWMc40oMW2CSTq4Lzt2mT7VQQ6NaZk//XJI/N3eN8Dbrnti5jflO8Tvht1rLbVE2kfzz3uRUvYNu6PVP9hTgz7roMWM8Ys6oA/p6oBwO2QAXzRifxykdu8BQaDesigvty2BL+f1P5XdY4tX7yon4K7tCUMIsMitzmAZtKYPcDcBv81DD66jGNgb3tkLuiTp4s/rbQR+LPSCDu1bSmwrdIP659Y/d7nmBM7jSXPf6Jv8Z0/d8En8EmuBgC3QyaTlok8DAFdf4Iz6WNRKV7grO/72NZxYc0VGdL5E9Jjwq3uD9ZIKxhJ+zlq5l5s8efihq3MscX6TUYeA9sDfKCV0BuAW9Z39QuHsdcaN67NffK4ZXT5n+vLuODI9Vvd36a9Z714ZU3JX5FE+zEnyrGE93ouEhrBZ9DFGBoA3AYH1Uu6/2N9J/vD7o6eBdPIn/rUDSpCkNv6CU/14usvsrEJPtqhvOCpu5yt/ZL12bp1PQ5s6EVG2SZuJGrOsA3bxtGd7ueSRm2P+Q6fXyjCo/bJqtMvVrSWGm1OMKjPvfU1GupPa89tAL4MbAWebhY5LWGlI8h5NoTsUp9x3VFQ5fFwkuPE6D0IfH3yDNU1j/WAf2Xb+/iNfbQ45fePrDPrPftMbfmQervZOXFH++JEp8WJjuXuQmNerEVD9Yj86LMr1QDgNtBxblTt/jeRyYIn8siNV2oRWcoJvqmrM9yKxTscrVKLlWNjT9vUTXDWQf9e24ZBSNYCGegT5HP6N9tHBuDC2glEWlu0UxyWwYeTqKPplrHznpWOXGBrqYftjQKr8AGDWzit8YH3PcOkN1b75OnTR6Yebq//6oy53n7r2D/Cv9njr9W2G5sT13s6Lmq4VYB7WPXRCPJk66+PZpFnlgAPuA0Ku2Pk1gPAwjpX1h2YfeBWlVGdFcp7BZs6FWhYERLdnrVOb8NqY1sAurWdoadZ6TY6C62uDxOw9t/UfBLsT6WDiHaCgMLpxa8AkXZWD3uwdMp5HY0E65FbC+r3HpAG6o3DrQA6F66bcng8miPO+uRx2hawMayPS8JtbWN2/2S3QbQ92qfNvBMpk/vAu0iPpGdfXsOcuF0eq8htFb1dbmcJEtwfeBVjoUW78NV5fQW4HSJAnsgj+8sg3vOKF/6Ff6GBiWkAc6IPryJ6i8jtxPQ6ZP1HXl/rE/IJ4HZIZ2Ain7S4AT5YSKCBC2sAc6I9J653dGj23J4WB9oNWW+Q1/Yt/AF/JDQAuE04p3VhxESOwTVEP8gL/cxNA5gTa02LaK3ajnBaHGm/vvCFxty0hfZgvuygAcBtB2d5sIuJHINtiH6Qdyb6ydk36+wljuz/9eaYR9HIgPZgTrThtjjSYbmj7aP0I2B6GuMJ/fAY/QC4HTLpYCKfCZxg8nmMyWc+dQ6AwSHzz9nyDmgP5kTMiWfTJebp+cyZ5+9LwC0GIiZjaAAagAagAWgAGoAGZqMBwC3EPBsx46r2/FfD8DF8DA1AA9AANDB1DQBuAbeAW2gAGoAGoAFoABqABmajAcAtxDwbMU/9ShL2IdoBDUAD0AA0AA2cXwOAW8At4BYagAYmooHVviD1+N34I47Pvyhg4YWPoQFo4No1ALidyKJ27UKC/TObDLdrWh0Ksh7dfCyo3K9oPfaY2a6o9B7Xm18PP3q3gsJ9++OBp6tVeUpBQcvUI7JVHwz023T9MLOxNPZ4QXm4GIcGWjUAuIVIWkWCRfDWFts1LY/Ouawn8f+xpNVY42ZX2gBt1bNsB2k+eqrJV1w13G4oO3I71G9j9R/KwfwJDUADE9QA4HaCnQKYvDWYnFp717Q8FFTu1hZcrrdLKkeFSI5U1nWx7tcC3MpdyjcM4QWVh+bn/CuHW/ZB+nWo31I+xXdp38M/8A80cA0aANwCbnHVCQ1ka4C3AIwWId2VFALY1aGJFCee5MW2LA4r4vej2TV1TQzw2zUsTLARAAUNQANDNAC4HbiI1Ytwsz9uu6oiXmrvX/1nR6SsjgrsaSyOJS137p7BJkqjFnkVOWt+Li6aRZ8X9cVJ1RUYDJ5NCwrXw1GwRbgc5addWbfrGPi5OLs9ARsH9oHlV5QVBtVGB94eWk9v6f5hvQW1xr739oLWN0it2vaQcv7NRsOqAtdw/3L0st4iwXaF4FaDcki3Gy5nQTJvnzxhO9P+VHl0XXreWFC83eny2A/J/CP0T6qtmBObPsKcGBm7aQ2ntIXv4LtcDQBuxYKa6zSZjifych/fO+iBgLNP0MBwDcVykd3w4nssNdgyOC/3DWzqRdHZCyl+3nXrUP/b9bQDBS/Cw9qDwSn1c5H3LXrz+jMyJvR2gSAk1v2q4Uprki/0ugGbLicCt64WOb2r6dq/5sLNhT4ux/18s+mTp5+2tQ3SZ5F2t+mF/eC3Z9z+SdlRt0fdfIg5MTTvhubelD/xXb9xBb/dtt8At5GFPHdgWAuTFXld65tD7IWGF001+Tt7GjWMyjulTWRJRWfVHdR6AVOLofpJVi/EIp8AGhXlNXe4C7tObpSW63IgufJR7Luu7bntAce6evb1A9H31PL3QHefDfcXa1TpjetXr+smmhuFW47UC+iyteTYJtK76da7ZXXSgqw//p61JvQsxynXIwCQx0QYbpWdXKbQPJdzCum9bx7HJ9LunPdsk2hb3E9uXdzGFoEZdIMAACAASURBVL9VR43JOWFD3frHrdf+n/VWgR3mRDH3Kj8z8Ef6KEcjSGPNY/njw9Yp8s3bH4DbgRMFT+TuYl4NHAZMGelqFq/YIuwv0rxgmUgrp1noRdkAJh8fxGna6rHB2/xE6gFPbNHt3J55D6jcCfNycMvaUFBnw22rrdznAm5rYAlsS9EXWEanreVHxh6PKVebdXk8HmwgbdN7lZfHoxo36qf5ql0tkNEnT6RdWf5gn/eA27TfjA5ic0KWfRltYzswJ4bHW5ZWM/w8Vn+hHKxJc9QA4HbgJMITuQeDkXJ5Yov9XMWfmwWIF2GzmHMZJg0vXLxQu/8HBi8v2hK8lc28uDqf1+3k8k15bAvbHXs1tpq8cxxQk2wT96mCORVJ63lWrYr08p7vhaMPExk1Ou3jC60nr/xaN/y9O9748zadcTrWaVt61YY+efq0vcrDfdURbrWNEb+N1T857cKcWJ/cwRqLveZoL8ffSIM1BRrwNQC4jUBorli6TuScPjbh8edm4hsCtynQaMr1FsMQGMfSmkgv2x17Ne3xRZjra6Qb4LvATUQL9VCGrtFcHaF1LnRiF0sdxpcGNP2LhNPeRB2ct11nrO8a9PPO6+2Tx7E91w894Jbbbn7JCdSd8N3Y44rnOPcCJFYPp4/NHfy56VvMiTFf4vOA9nPHHtLNarsH4HagoHlizp3IeSHKTR+KuHAZZrLnxZeBw/0/MOATi51XfrPghmzmtKHvMNEG/N7o7XLbEnwb1P5KdY6thoaOUcKw5n3g6NL/rKMUoJk04iY1d8uE/j98YafL4CeiZbS9T54ubbfSdoRbbVvsgkDPb8P6x7JRl+lrS6UL6yOcVqXnNuTPIX5buAzMiXE/d+lDpIUfr10DgNuWibqtg7tO5Ppn/4xFta67z0RuFhgz2duD1V8M5PdNnU1Ut25jGBa6t0fWc7vvHxNutab5AqcVjGQ/xS6c+HNxw1bm2GItpsBW2WzS9YRbBsdK18be2Bip/NQnT2a7dT/I9Fxfxvxg/BEZm7JcHXHv3j9BO62ypT7M3JMNqx3aXNuCObFrnyC9rVH4Y/7+ANwGJ+mXdP/H+k72h90dPQumqcXRGW7FXdvFYUntZ3/2m8g1dFZHfsk7o9e00lE7jvT6Qq/bpb5v6o8utmxf97NMMcH4fh/fJ2qfrDqZY0Vr55xZFcGtz73NgaP6dAW95zagBwNb9XYHc0JH/G58o8U8G2L+4bqjoKpBXmreaDcIYn3yJOaKmO3W55mg18dv7KP6TGz3pJYup1mkdYs50egqb453/bmjfXGi0+JEx3I3q5+KLa0PHSvID20kNAC4DTjHjard/8adfMz/3Sfy+qYt6zB9/VMqR6TkQs8TpfmMFymzkHMUSi7cbZGuyEMf2B/NIltUP9/a5XoTlD7ehu13X43tXl6uD69nmqhYP26fmP89sNNQZ9LwFgb1qhZsCa6mT1mH4Xze6Qct9XCdRudm3Jk668/8MSHTGh94ZTFMNsfsmXL75JF15r439XB7/Vdn/PT2W8f+6TkmMSd2neMdraz3dFzUcKsA97Byvu/ZL0bbKA++mL8GALfBieKckdtGVKEnRmnIlYsZL37mM38h50XLh9Dq/EreX9iUnxdN4DLVjTcxmBEDJLs9Ik/Q9/h+9Ik32DdFBanBXw6C8MTpw8cbSZurszwtzXFep2+D9fhg7AFpQDf+mOC6hI4D0WZlN8OY0XmfPFxf11ce3367DeSasV/5eaDfsvsn4GfZz7H37E/voqmtvKBO2S/SB+wz85nf/9yH1zknbpfHKnJbRW+X2zNd+HbVKtLHNI/Pp6cNwG3bhIvvMbFCA9AANAANXFIDInqLyO30wAkwO/0+AdxecsJCXVggoQFoABqABlIaWO/o0Oy5PS0OtEulxXfQEjQQ1ADgFsIICgNXptO/MkUfoY+ggRlpQERr1XaE0+JI+/WM2oe1FmvtBTUAuL2gs7EQYaKGBuaoAd4DyvtDM14j+3+noY+5tedKNMdwWxzpsNzRFmsTYBAa6K0BwC3E01s801iIr2Thgs5mrLO5weDc2oM5AnM1NHBrGgDcAjpmDB2Y0G5tQkN7oXloABqABqABwC3gFnALDUAD0AA0AA1AA9DAbDQAuIWYZyNmXK3jah0agAagAWgAGoAGALeAW8AtNAANQAPQADQADUADs9EA4BZino2YcbWOq/Vr18DLZUG0WNBDuaRnmJswN0ED0AA00EsDgFsIp5dwrh0iYH8LCK/X9LIs6GGxqGBLARcVBd0vV+ND13pF90UNdVU9i4Ieyvx6njVAWEHhsv3xwNPt+xXda38XdNd2xulAv03XDy3axJyNORsagAZaNAC4bXEQFgAsNLengTXdFQJqNXA1nxUlvRxr3KxKG6BlXUVG9HK9tPI/XDXcbig7cjvUb2P1H8oBZEAD0MAENQC4nWCn3B5MAaCn1edruisLul+trSjts/VSRxbHgUiOVNZ1sQ+eCXC7X6W0wRBe0H3Z/Jx/5XDLPki/DvVbyqf4Lu17+Af+gQauQQOAW8AtrjqhgWwN8BaAceB2Q5tVSSGAfVk2UeJyFbWNbSG1hYH3qt4E3A7z2zUsTLARAAUNQANDNAC4HQg2q4N61GZBy+2GNtsVLQ8FLU78+M2Cyl1kD+B2TatDQYVOu6DiWNIyll7Z2ZQv8yyOkTq2y7rs45LWXhvXtDwKu6vvm6cSqceCbpdUVt8vqGgeE7rec7tUfYFB16c9nl2BcpEmCnedBv56VUVjvT20q4g+I35niAwBqbbH2wta3yD1sm0PqaiT61HgqssV3282HL2st0hw+hB0a1AObnPgchYk8/bJE7azXdO6LrklI9rudHnsh7jfNrQZoX9Sba3b0+wZbnRX76VWFyx2lN4qJ7DP+6Eo6S6l0S665i0sQR2YXwHMXudGG6ov1K8WzVYdtR9c2a19XbUp0C992mNpPFAmvo/MB/CVNZagEwLcDhQBw225Ly1QNYC78GGQwVOArUxf7APA0ZLHA05O3xVuj6UG29qmgpb7UgC7guKSVtJvXFeX9sj8eH/eCZsXdQlP4n0SVEXf6O0CQTioFxez4Af27HYANl1OJA8DIdvO6SWgmsmewWVBLvRxOe7nm02fPP0WWG2D6BPfnryy2Q+x/Pp7WRe/j/ja+DHPBobb+2V8PzX3my67RaPBfm3JE60jqF/ub3kjXwO3RanBlm94vFuW5kbLyn/OPvQW24LtEWNN+wWfnXduhH9n61/A7UBx13DbRGqtyOuaVhztbKKf9YRloqblfm1FVdc7BuQmEixs43pUHjnxrZto7mhwWwFqXb+J1i5ocVjRemNsryLVlX3msy7tkW24xffPvn4g+p5a/h7o7rM8oEj5kOHp3vnJ/lkT9fIggHW3chdwFYFNnGIg0rvpnq2W1UkLKTvNdxxNlaAh/MD1CBhjaItDA5e5MNsguJyFAybcfh0d7pJH2KnL6fAZ2yTaZvzSVg63scVv1VFjdj9265+0Hay3CgStyOta3zBnw7cBS6VReQSavqBa+G3ierJ1zcDZFW4reK3rZ51VbavGgrHdRHzNZ13ak9/Paf+jHPgHGtggcjtUBAyd6ud77+d/jmjK6OmujoIGo7ObDTFQ2t8zQKoosA23UftDdevFlsuTEN1sSzgtiOtmW0ykNpCvV3sw+VwObnmhVYCWqR3WCYMWR/b4NQkH9s/7UX1yHYFXhhYbgFgzDHA2kDJ0xOFW/RzPJyuU9FL9NC+gJWpnnzyBNkXLd9Oyz3vAbdpvRgdJH7n29Pif7XAvcCofsD+lhpo2x+wK961pT7auQ3Xr9nF5EqJZI0bTbAvpC6JAvl7tYX3jNXus6L6Dz+AzXwOI3A4cIAy3XuQ0Uq4BRt6XG35lwNSibSCy2iqgIsT7AEzLOnvDrdlywLYaW3y45TRyW0XovSnDF6Fuo7Qf760I/SAfMTApmFORtJ5n1apIL+87JAknVV8xCNjQ2dVuDQ9e+bVu+Hs32syfxwCJ7eB0vAe0Lb3K1ycP19f5lfuqI9xqGyN+c/cod7arw3hkuHX7KFantp0vniKvXl+xr3J13RtujabZVmOLD7echjUWezVlYE6MaQOfQxt9NQC47TBph5zcFW45fQgA5WdBGNyuqDzyjV28FWLkG8rEfloGV2OLD7eD2jPQ96H+wGeRyTBwE1H1UIau0Vy9F1VGuERUNApXEbuEBgwUGJiw+jMBJ5y3HRgYRmrQzzuvt0+e9vZabWM/MLB1gFtuu4kmBupO+C5oB9vT47Ur3HL6GATy58G+7aLrpA+4j6Wu/Qs29rWxxc83qD09/D12/6G8wPhBv4wXbLmQLwG3Ax3NcNc1cpubPjbRrHdL62QGPtVAp79w5HZoe7TdA/vjWsq53LYEf6JW+yvVObYaGjqAlPIvL952ZM4HgS59wdCQAjSTJnCzmhftCwOyLoOfiJbR9j55urTdStsRbrVt+mdyv7/r8of1j2VjyxgN6yNml4mM23qKp4/Z0qrrC8Et98nQ9sTaic+7awM+uz2fAW5bJuq2QdEVbje8vcC6yWyA8BhiRcS1sjn2udrXyzbwEWaVD3jPbbdtCaO3Z2B/tPXXVL5/TLjVPuDFvhWMpD79SFVdHn8ubr7K7EuGgRTYqjpMup5wy+BYRZeNvSYKJ9vZvO+TJ7Pduh9keq6vC3Rn9Z9p77mhqyvcqrOOqwutjDYHfSb9p97HdB37XGmLbbBuXPMvCFiDRjPsVxHx5bLGao/bPvx/dVHELN2iX0ftV8BtUFAv6f6P9Z3sD7s76+5dV6Sd4XbDEKnOkF3SSp2PG7RBfl5vRyjVPlsnvYrg1ufeGiityxP16BMWxAkO4lQEO70pJ2dbgtrLVzZHgOW3R7YN79v7f4iP1D7Zojqp4JlzzqyKdNXn3oajnK5d1p7bwMLNCz+fZWrf9R4+LeGljiDn2eDaxP9z3QY6HJ9psBEQEjoNQY7FPnlk/j7vM8Goj9/YR136h/3b5bUz3Ip+eCiXlHcech9dM6yaG8TUkW/8yOP6l4yQPow22YdGZwG47dUeqdcd7YsTnRYnOpa7jPVB5sX7LlpF2vnqBXAbWIDcqNr9b+IC6A63G1LRTutBDN75sAYw68FnAFLuy5XvQ9sCGE5luvo9n2UbOi3B1M35U3tuK/s6tyfuT0w2Y/vGLOi8DcF99SJ5GurCEVIFIBJcTZ/xQh/O551+0FIP22lAIu4bHzpkWuMDryyGSStip/L2ySPrzH1v6uH2+q8Gripf9/Zbx/4JzI2mr+Pt6w639RPXrAeMtG4zafebp+tk9J/Psh0Dbvu0R/hzvafjooZbBbiH5COoRb6e/ZXTp0gDP1+bBgC3wQnhnJHbZpCEnjamIdcAphZUMH3REv2tI7UGpFX6+pSFGspHglvlw6B9fBJEoD1Bv2MC0f09pn9CT3FaFBSNkgXhidO3HydWnU3Ke1orSOG8Tv8G6/HB2APSgG/icCuALhBtVv5mGDMnQPTJ47QtYGO4b9shzduuMdBv2f2T3Qa77ezPEFyGfdDkD+qU9eAAvrItmD6iNd2WOlJrQFqlr8/8re0eCW6j9iXao23c0HZ5rCK3VfR2uUX0VvgmqSGkg1YaDQBuMRgwGKABaAAagAampAERvUXk1r54AtzCHzkaANxOaUKDLVhgoQFoABq4bQ2sd3Ro9tyeFgfaQQ+3rQf0f6/+B9xCOL2Ek3PlhDS4woYGoAFoIFMDIlqrtiOcFkfaOzeBwpeZvsS6fvPrOuAWg+DmBwEWDCwYwzSQs2+W91o2r5H9v8PsGKsf59aesfxy5nIYbosjHZY72mJtwtoEDfTWAOAW4uktnmksxGdecKAP6KNVA3ODwbm1B3ME5mpo4NY0ALhtXbgwKG5tUKC90Dw0AA1AA9AANHC9GgDcAm4RmYMGoAFoABqABqABaGA2GgDcQsyzETOusq/3Kht9h76DBqABaAAaGEsDgFvALeAWGoAGoAFoABqABqCB2WgAcHs2Ma9peVRP6JJPARvnqmy1L0g9Rrc4LGl9NvvHsXWsqzCUM2J/VOdomicg4ZD4EX2L8TibxRFzDsYFNHC9GgDcnm0xOhfcrqjUj+kdH5wxmK93MGf1HR83hGfXA8LONvfNfAzBbxg70MDkNQC4PZtIzwW3G0LkFotnFsgGtL0r1eHwJzoVe9rhgPjJT9B9+xn5MEdAA9DALWsAcBsAgHEEcT64Hcc+DPzb8+OW9tVjPfHko9vre4x39Dk0AA3cjgYAt4BbRK/OpoGpTSQMt3hePRa5qWkT9kCT0AA0MJ4GALejgM2aVoeCCr0Xtr6RTN30FbqhbHUQn29XtDzUN4hx+nK39oCzzqPyib/DyktXDw6OGi+o3EXEsivrso6Bm9K2fnuKY0nLgF2qvj7twSCO9MsoeoyVDbiF7mLawOfQBjQADcxHA4DboTCxXTpQK+CzBW7LfRnN60JpN7jd0Lo5UWERAWAuz61n09KeYh8D74K6tAeTyGNMIoBb6O4xdIc6oTtoABq4rAYAt4Pg1kRIi8OK1lvRedsVlZGjwBgsqyisFRFd65vFYlBaDRCOukbAtR5EfKpCSSuvjbHvuD0KVNfWMWPrHYO4f0LD4PZ49gk/zvS7Z18/EH1PLX8PdPfZmL4A3GKBGVNPKAt6ggaggWlqAHA7BJ6SkGlAcSmhV/+Mr86pXVkAWQ0SjpyGtguwrcl6jdAYOr3obCx/83koOqts42iw+z3X07s93K4ben0MuN2uDvVJCeUusp3FaAcTNnwBDUAD0AA0cK0aANwOACqGOg8eqzLb4TacL2MwxeDUbQunc0C5ttuPwDK8Wvt65R7f5n0Mbnu3x7Ub/48Inzs6iDNtTwVuJrvWyRp2Z8yNmDtGnDvgb4y569UA4HbAZDh5uN2EALvZkuAArxrE3B7A7fUOaH8yDsAtzrcFAAyY93yNzWm8oC3oX2hgDhoA3A6Y5BkGwxHLEFjWgyadL2NgcUQ2uee2LoejsTra2uQN2cxpQ9+lxD64PQP6IGXXlL+7/LaELe2WzSN3sS0BcHuDY27K8wFsy1j3oFnMWx00ALjt4Cx3AmIY1OAoyuLv4keBJY7pEuW4dVb/d4DbzcaO1NYgGrrJbEObTuWayQhwa3wR7K9Af14ebpWNuKEst3+Qrrum4TP4DBqABqaiAcBtADw2m5d0/8f6TvaH3R09C6bZkDk2qzBnwAbOrY3dUNY1QqpF0xFCa/hUe2wb0I1GfPkUBXWz25JWzo1wun7HH4Dba5nQALcxDePza9Ew7IRWoQFooF0DgFsH1JRo3Kja/W/ijmSw8/apHlb2ww1EPZwnH24NdHr16Bu+ItFYVW8Dw8VRPSzCv5HMGij6yC/3vF7+36+ne3vi/rRsET7D52P4DHALHY2hI5QBHUED0MC0NQC4DQJUZuS2yus+zasgfsJYDX0+THaHwYFwq28sW9AicCOZN0ib6LP9xDXAreenoHamPOABt9ffh1PWF2yDvqABaGAaGgDcXh2gTEM4GMDX2A+AW+j2GnULm6FbaAAa6KYBwC3gFndg3owGGG6PtMdxYND9zei+26IIiIC/oIHr1wDgFhM8Fvkb0sCuPNVPKSv2tAPgQvs3pH0Ay/UDC/oQfZirAcAtJncs8LekgfWejvKJZYsTHVaYMHMnTKSDVqABaAAamL4GALe3BDZoK0BeaWC9o0PRPNABcAtNYF6ABqABaGBmGgDczqxDcUU5/StK9BH6CBqABqABaAAaOJ8GALeAW1yxQgPQADQADUAD0AA0MBsNAG4h5tmIGVfB57sKhm/hW2gAGoAGoIFr0QDgFnALuIUGoAFoABqABqABaGA2GgDcQsyzEfO1XFHCTkQ/oAFoABqABqCB82kAcAu4BdzOVgNruisWRIuMv2JJzxo/vCzr9PexI8LWS3pQZZYroZ2MukQd1qS+XtFdWdRlsq1FQffLlbbJSt+xv7g9tCjppZd3Rfdcp9WeZtIN2PZQlHS3Wou212lNPba/HxJt4TxRX6/Kuv9c22Kfe+0ziwfXFdWDW0eirCH9gbymT+AL+AIaOI8GALeYwL1FGoPtPIPt8n7NAE4GOwGeDEFR4BoRbp8tizR8jwBc3B4FdV6bGBI9WFdHpjUQzz5yXh+WNuDKesIAWdCd8+AMzuPZxfMS2+f6IfY55wu8cl1h29yLlbmMAbTj8vMOfA6fP74GALeBRQDCfHxhog/O0wcMky6YSX8zBEWBi6HPBS4xlnLqkfD44EZp12t6uSzpIVGHtDn1vmpP0USGnfLi35mIrrKBo9qbjbLLALn0Udhva3q2WtK9jqDb0eNwHtH3MYiNfS76wPVJa12JvG5Z+F/0EfyGAAk0MDkNAG4hysmJEgvn+RbOHOhshaCR4JZtsbc3jN/2qj3Fku6q7RYSLmuAvV81ICvAl30Qs03bnh3xNrAsy+R6JCRb+o9BbOzzxHzWWlcir2UT0mHOhAaggYlrAHA78Q56lEXlixf06u07+u9//6v/3r17S69efGEP6Bdvq+/fvXI+d3z6xau6rLcvGnD54hW9U2W/fUGbzRf04u27+v+qvnf07u0L+sIpQ/vhCzf9fyloW5P/xVvVhnf06osNbbx2vaO3bpti9c7kc4ayKURu2RYSgKj7eTR/N1szVB0NlDNI1vUr2G3AU9vBIOpvIzD2cRoDy63wyEAq9v5m5xHgXdnAZbmfJ/zWWlcir2n3+BcfKBs+hQaggbE1ALjFhO4BawWeAmwtyJUga0FqfHBagKn8rfO9pbfvDEDLemrwdcrkfDm2Nf3Kdb999VYAtF2nhu4b0AID5RTgVm5LUID70tmPOs5kJ+B207yvgFC+d+CWI9Madh0dNjpxYdH937Ofy10YaG7NE4PY2OcJDbfWlcjrtQVp7XkT/oA/oIFJaQBwC0EaQQp4tKOnX9CLJvqqANTA4At6q0Dz3at4pHWzoRow39IL9rWoR5Un6/qiiQb/978ifZXvC3pVgfA7evvqC6s+lacG8iZCy/XouhuYtaLPok1VBDkMMOda1J99/UD0PbX8PdDdZ+Pa1QVuozce8Y1ViahhTj2Vb1eldUqCOong5dq+UWtYH0i43ZCO1lagyZDpwG0mOLqw6P7v283RXq53Q615YrbEPhfad+vnumL9mrrgccvC/+OOS/gT/oQGxtUA4DaxGNya2Hj7QGybAX9voqoNcEq4beDUADBDqYBVAbd+XZzeAdWWLRBsm1teDdY2QOt+ZTuk/RfSA+BWTGTNcVsWdKnjswLHbem+y+4nB1wbqL0vSzLbIWwA3mSCIwM8b3NgeOT/fVsBt75PhA6y+xR54EdoABpIawBwiwm1idxGoFL6x4NBzmPAlWHSAHAguuuVI0XKZdpwy/BqbV0IbE+Iwa2BbVnX7b1nIEtF6VohjX9eHyNyK/W1UScLlPSgTxZYjHBaggO3vDVhsSDjgwZueS9sJty6fnL/9xefacBtHL5vbzz4fQQfwCfQwBw0ALi1FtdbFjVDpQFVX+A+qPKe1uqGrU39/du36kYzLqfJI3/67wG3GpoDQCuBF3Cb1vC04dbYriCXI7nDYKwBSgHitQ/M1gB1vFf9sIvm5jCG9+SeW85jymmFWy6XIXrzONsShvnT9JE/P+A7+AQagAamoQHALeB2QOR2QxxRrSKj1daBt/Sigdfqs+a9BZ094Naqp0OfMRRPLXJ7DdsSohDEkCaA0Z3QcyDazeP+z7BoIqx9Jk0fbt16PLjl0xMEhPp5OAqbf1oC+8RshwDc+n7t08fIAz9CA9CArQHAbQdQmrt4GAQtEBX+YcC0vhd7bKv8zfFe1c1f6r34XvuvB9xyOWa7gy1kXbawV33GbQLc1v5iwEoBI0PlLOA2A8QN3PpR2Jif2EfZZ9ayHc5T0rg/ZDlSy1yPZwdHthMXGLIc9Z7LivarM3bc/Pg/b86Bn+AnaODxNQC4vYkJ/SXd/7G+M/9hdyeetuQIsAHR6gSDV/Ks2fps2frnf3svLB/r9e7Vq+rkBIbIGoTf0avqlIVwnvApC7w9wsnTbHmobHv7il6oc2sz+m6qcJtj+znSMEx5sCR82QpBDGoJsMqrp6B79WQy93SE6ulk/BQwA5y9/JFhawhu9U1lam+u+4SyMmxb0G/8pDU+YcLd6sD2VXuAY09CM9Fh7YOLw+2O9sWJTosTHctd1tjTtgpt4bO8eQt+gp+ggWEaANzewMTr/gR+/5u4aDg6K/exmvfqoQdu3mZPbbUXlvfZirNs3c+Vv/tEblU+feSXfU6tsU/U3/Qr4NburzzoXFT7XaMRPgYyC255D2qdl/fLWq8O2DEMWmkYApvXFIRnTf5BW22fqHJqW2yQZl+F7VOnOdjltLXnoVwGLyxfalgO+c6vp2o3w63jL2Or3RbTxlAdzWdWf9pt26z3dFzUcKsA9+C0PasvbmCuhR8c3aDPcSH4SBoA3D6S4y87CWZGbhtffPHiFb195zyhLBot5UgrP3HMTG4Mll6Eti/cKvuap4yFHzQBuG3TFQNbChoZ0lx402UHgbE73KqI6ctlSfcFR0IbyCoKUiA4ykMdGAJT4BaBW9XeZ6ulY1/cNvabAcwFkW5L+uxe95QIVUZ95q8ZT9r/ahxwuy4Ft5sNbZfHKnJbRW+XWyzaN7F2RPSHtkP/E9cA4HbiHWQtaLAVEwo0AA08lgZE9BaRW0Af1iZoYMoaANw+1kKBegEp0AA0cC0aWO/o0Oy5PS0OtLsWu2Enxhg0cJMaANxC+Dcp/ClfccI2REQmowERrVXbEU6LI+3X6J/J9A/WL6xf0EBQA4BbCCMoDEzeWMCnpQE+VzZxQ5S7/7Rln+202jdRvTHcFkc6LHe0xXyJ+RIagAauQAOA2yvoJCzCE134oZ0LTvKAW8wDmAegAWgAGsjTAOAW5VwVPwAAEHFJREFUgHJBQMkTJQYv/AQNQAPQADQADUADfTUAuAXcAm5nqoHf//KXhD/4YMoa6LtwIR+gBxqABlIaANzOFGxSnY7vbmNSmDLUwDZAt9IA5qLbmIvQz+jnS2sAcAu4xQIzUw0AIAGQU9fApRc81AfIggZuQwOA25mCDQbwbQzgVD9rsPntB/Tv04JOpwX9+y9Pq60K3/7lver/0+k9+ttvAYHaV1e4leOHpi///fcP6Nsp2N9Bbyn94jvMYdAANNBXA4BbwC0itzPVgAG2Df3YwO2P3zQg+81yfLj97VP64e/vaZBWMH3613v0418240PXbzf0478Y0BW4v0f//nt+PQbuDfAbfzmw/9sN/e3vXNeSfmgFSN8P//7Xkn44y0WE6dusC5WBfov6yPKJsalNb30XLuQD9EAD0EBKA4DbmYJNqtPx3W1MCgZEUrCRA2sO7Fkgw989pb/9q44OV1DbwLR+r+AumI/zd3j9ZmkDtKzrXxnRSxFZlNFs46/alm+/+YB+9NrU0g6nbN3+ysbzRMmzI7dD/Zbdf/l6w1x0G3MR+hn9fGkNAG4Bt4jczlQDBtYCsKEhrAXWsoHmaRXd/PGbp1aU9tvffqCjxrwlwtjVAWi1HdyW90jVxWV9K8BNRwt1HlkPQ/h79GMTjQ3apf2jos9L+uEb3tqR8heXrfJ8ICK1dSS3Bt1Ufmnn2O+H+q2LPVzXgnRfaH/a7b/0gof6AFnQwG1oAHA7U7DBAL6NAZzqZwa/3/+SoUtEDhk2ciKdQUjMhx3eAhCEyD5lf7M00CTy//D3JnL8942GXuOD2l625aS2MPBe1WYfsp3WwHr1OfvrZMOZlYe3ekR8yvZp4BO2W+Wc6/MBfutmX77eUvrFd5jDoAFooK8GALeAWxO5/XJFf/1fSf/45we02fyCfvfP9+v///cz+sf/3qe//vMD+lXQX7+gX327oj//5336R5VWpf8Z/fU/P6c/fPsLU36V9wP6M9fxpcpT1mmrOjf0q//jMt6nP38bGNhfunbF6gnkDdo+33TdgCQAq81eU74ZrYo8qj20ImKaUwdDZBLqvL2gC1I3SHXZp8r1KHAN28URxRpQOX0WdGfALcNrsDydf0Fx+wJ9EAFdrsva9hBtd7pc9kPSrhH6J9QnfRcu5JvvvIW+Rd+OoQHA7Y0BT1I0Gm5/rqFTwmr1voFQWY4B0hpq3Tx//T8JuA3c/set4336w//93ILjf/zv5/Q72T9snwBoWZddDyaIEExkfyZhTO5pbd4nQVUAmd4uEIlmKns0XAXqSQKXqMcqJwJ5DIRsO9cbhFGn7N9rf8Qit4FoZVPGt39x9ggnfJHbP9yWS8At+8mqi/sq4uvcdsh5BO8xZ0ED0MBYGgDcSni69fcOPMpI7a++ZfB0gHOjoq0/p7/+c0W/+1JC7IbCeRq4baLBf/hSRmt/VkWNf7X5Bf2hiui+T+r7Wuzmsz//3y+sCLKqp4o4/0+m53zTfH329QPR99Ty90B3n/W3PxcwQukYnn50frL/tonmMiB6efmneYYfdfxY6hQDkd5NV93Q9ZdYFNaNRnJUVmy9kIDK9QgYY2gbF24l/Mq9tu/R39QNasovI8Ct5fdA26zvpR+895l+C/Rjt/5x+6v+f6yFDOX0nyfgO/hujhoA3N460Mr2C7j1o6AGLg1wtk0KnEcCsYFbrsNEfjkd5xOw2sA153EHI5cR+95N/9j/TxtuOQqpbggyN21lARODloDbejtD6BQDU08WYHpgZoCJYTwc6WWAk+BpIsZZdbdGbp06qp/xmz3A+hgwJ02iPVm+5vzscwHuufnTfhuvf2L2PPY4RP1tczi+h0auUwOAWwl3t/6e4fY/KysyWg/uAHAKf4X23JotAwytapAw3JrPfDD16+I0psycLRDXOSjHmkxjQJH1OQNTFWlc0t96nlWrIr36OC0vYjkO7HEENhYR5e/daDN/Pg7cMggu6W/i5AY7Gt20N+qHwFFqXloD9Lofua86wi23P+a33/9ynP7RdjKMi9extI5ybnuuQ/+j/10NAG4FoLnOubn/e8Lt7/5Z3xQWB08Dsn3htr2O5iY2a3/vbQ/4FFRkfRe4iah6KEPXaG7otAYFOBwNzQE4AUTSdg1osVMMEnVw3nHhlgE1cONd1BaGSM4rXnN80wNuue2nmN9G6h/ZV6H3NzfHYr1xbjC+7Tka+j9f/wNuMdmYyaYP3HKe//2M/uydjMAR2OFwy5Hb4AkKV9iH096W4EcH1f5K85Sueh9tCFZin/HP33b0lKHO3i4QK8P9PAfQTBoBjO6WCf1/wg4G0wQMchurc3FDTyPrAaFum4P/dyzX+CTR3upiYlj/BG11LlKwuJ9vcYdv4dtb1gDg9grB6GyCZVDtsC2BofMfwTwfNKcuDIfbDd/QFjit4Wz+OKM2rg1uNahkQJ5Oq0GGf7J3b/biz8Vh/zqPD9iy3FxAM+nOD7e/T0Jm/7bKdgffJ+u1/Wj80Qa2Kt8ZbW76+RrHLmwGNEID09cA4PaMADOdAfCS7v9Y35n/sLujZ7E294BbDZ3WSQXq3Fs+wUBtFxgBbvVe3Z81JzNMf3A9dv8HQSgLHtU+2ffoR7XP1olAqghufe5tDhz9kqw9t4E9oQa26p/xvxX2xe7G/6F5sljyJ3VRTswPXPc42xIUDHKk0zkhQp0wwY/xzdlmkGG71aZMuO3jN/bR6ZTfP5ZtLW3xx8iO9sWJTosTHcud+VUpNmfhc/gIGoAGAhoA3Aac4k+41w1SbpTw/jeR9vSBWwGd/p7b9+mv1ZFeY8DthhRI10d+hW8msyE60sYb6G/WbxfIsNMaSAuebXoKRFp1RDccIVUPZJDgauoz0cFgXS4Qt9TDZeQAK4NbOG2LXc1WBnubhdhHrLc6SH+4kWs7qmp80vZ5e/944N/bby1+cPunBWbdNrJW9et6T8dFDbcKcA8rjGPtmxuau9Bm6H6oBgC3NzFhnDFyq/z3pdp+wE8WU+DZPM3syw3VN4KNBLdNXX+wnpwmQVfWg8nBBYlO/4eeTnZ6L/7UsCA8cfr248Sqhz386z1iOFWRwuATyoL1SICs34eB1YbGs8CtgjvvRjzVlk0E7m2b8vroknBb25fdP0PhdrOh7fJYRW6r6O1yi6jUTaxRmK+Hwhzy2xoC3GLiwOIxUw3kgVIfuEIe+HYcDQQXZBG9ReTWXrCD/prp/IW2ou+HaABwi4kBcDtTDQDAxgEw+PF8fvQWr/WODs2e29PiQLuZjk2v3Wgn1iFoYFQNAG4hqFEFhUl7OlfbgLLzQRl8O45v9XwhorVqO8JpcaT9ejpjSduJ9QLrBTRwFRoA3EKoVyFULC7dF3oA2DgABj+ez496XDPcFkc6LHe0xbyMeRkagAYGaABwO8B5emJGGRiEE9QAoOx8UAbfjuNbzKHdL1rhM/gMGmjXAOB2glAC4bYLFz5q9xEAbBwAgx/P50eM4/ZxDB/BR9BAdw0AbgG3iLpCA9AANAANQAPQADQwGw0AbiHm2YgZV7fdr27hM/gMGoAGoAFoYG4aANwCbgG30AA0AA1AA9AANAANzEYDgFsp5tXBPBmnONAOR9HMRuhzuypFexBpgQagAWgAGoAGwhoA3EbgFmcthgWDgQS/QAPQADQADUAD0MCUNQC4lXCr329pV6qDxE90KneIXmq/YDBPeTDDNugTGoAGoAFoABrYEOA2Cm47Oii4LfY4UDzqI0wimESgAWgAGoAGoAFoYFoaANxGwQ1wi8E6rcGK/kB/QAPQADQADUAD7RoA3AJuse0iqoH2AYRJBj6CBqABaAAagAampQHAbRRsELnFYJ3WYEV/oD+gAWgAGoAGoIF2DQBuo3C7pX2hbio70C6apt3BECF8BA1AA9AANAANQAPQwOU0ALhNgCufmHBc7nBTWcJPGLCXG7DwNXwNDUAD0AA0AA2kNQC4TULbjg5V9LY5FgxRXOzPTeolPdgwGcE/0AA0AA1AA9DA+TUAuE3CCuAWg/D8gxA+ho+hAWgAGoAGoIHxNAC4TcCt2ZawRcQy4ScMyPEGJHwJX0ID0AA0AA1AA8M0ALiNQhtuKMPgGja44D/4DxqABqABaAAauLwGALdRuO16FNiuOV3hREc8sheR7qiuLj/IMbHC59AANAANQAO3pAHAbRRCOsLtek9H9bje5u+wwkC6pYGEtkLv0AA0AA1AA9DANDQAuB0Lbjcb2i6PGm6PS+zTxSCfxiBHP6AfoAFoABqABm5JA4DbEeF2I6K3iNxiIrmliQRthd6hAWgAGoAGpqIBwO1YcLuWx4bhqWZTETjswGQLDUAD0AA0AA3clgYAt0G43RIfA3ZquzlMRGvr/bZH2q9vS0SYNNDf0AA0AA1AA9AANDAVDQBuJdyuDnrPbPaNYQy3xZEOeEwvTkmQesJ76AEagAagAWgAGri4BgC3UnQCbo/FARFY6Ru8v/jgnMoVMOxANAYagAagAWjgmjQAuAW0AdqgAWgAGoAGoAFoABqYjQYAtxDzbMR8TVeVsBVREGgAGoAGoAFo4DwaANwCbgG30AA0AA1AA9AANAANzEYDgFuIeTZixhXwea6A4Vf4FRqABqABaOCaNDAMbp0bsHY4AgugiIsFaAAagAagAWgAGoAGHlEDo8EtznjFVd01XdXBVugVGoAGoAFoABqYpwaGwa2m8g4PPdB55ulQDBT0KzQADUAD0AA0AA1AA4+ngZHgVjVgR4fFiU7FnrYAWPwcAQ1AA9AANAANQAPQADTwCBoA3D6C03E193hXc/A9fA8NQAPQADQADcxbA48It1val8fqcbfH5RZXNoBsaAAagAagAWgAGoAGoIHBGng8uF3v6ai2MVR/B9qhMwd3Jq5E530liv5F/0ID0AA0AA1AA+0aGBFut7QvFKzmgioitxBou0DhI/gIGoAGoAFoABqABrpoYES43dCurCOxx+UON5UhEo1INDQADUAD0AA0AA1AAxfXwKhwW52YUEVvsd2gyxUG0uKKFBqABqABaAAagAaggXE0ALjFFdXFr6gweMcZvPAj/AgNQAPQADQADfgaGBVuzbYEnH4Asflig0/gE2gAGoAGoAFoABo4twZGhNuuN5Shc8/duSgfGoMGoAFoABqABqCBW9PAiHDb9Qll6pG99Tm3eKoZBt6tDTy0F5qHBqABaAAagAbOo4FHhNsGhpuzbvEgh/N0MAYO/AoNQAPQADQADUADt6SBR4TbDW1Wh+YhDic6lTvc2ISb26ABaAAagAagAWgAGoAGBmngceF2Y6K3iNziqvKWrirRVugdGoAGoAFoABo4jwYeD27X6gllfB7ukfbr8zQQwoFfoQFoABqABqABaAAauB0NjAS36uawBlRbtxeYaO2p2m97pMMKR4dh0N3OoENfo6+hAWgAGoAGoIHzaSAIt7/+9a9J/kU7QO6ZbW4MO6zajGW4PdKx3NMOEdtB+0qifYP9OvArNAANQAPQADQADdygBjy47QRLAm6PxQFbC25QQJ30Av9gkoUGoAFoABqABqCBM2tgGNye2TiAU1sUHN9DI9AANAANQAPQADQADUgNAG4B6LiChAagAWgAGoAGoAFoYDYa+H+BS9FwLv3eDAAAAABJRU5ErkJggg==;" parent="WIyWlLk6GJQsqaUBKTNV-1" vertex="1">
          <mxGeometry x="525" y="258" width="260.23" height="85" as="geometry" />
        </mxCell>
        <mxCell id="x74ONLKLbEEUaDy3nGKP-22" value="IIC 核心层" style="rounded=1;whiteSpace=wrap;html=1;fillColor=#60a917;strokeColor=#2D7600;fontColor=#ffffff;fontStyle=1;fontSize=14;" parent="WIyWlLk6GJQsqaUBKTNV-1" vertex="1">
          <mxGeometry x="330" y="354" width="126" height="30" as="geometry" />
        </mxCell>
        <mxCell id="x74ONLKLbEEUaDy3nGKP-23" value="i2c_add_adapter：注册控制器" style="swimlane;fontStyle=3;align=center;verticalAlign=top;childLayout=stackLayout;horizontal=1;startSize=26;horizontalStack=0;resizeParent=1;resizeLast=0;collapsible=1;marginBottom=0;rounded=0;shadow=0;strokeWidth=1;fillColor=#d5e8d4;strokeColor=#82b366;" parent="WIyWlLk6GJQsqaUBKTNV-1" vertex="1">
          <mxGeometry x="30.019999999999996" y="400" width="230" height="90" as="geometry">
            <mxRectangle x="220" y="120" width="160" height="26" as="alternateBounds" />
          </mxGeometry>
        </mxCell>
        <mxCell id="x74ONLKLbEEUaDy3nGKP-24" value="1. 将 i2c 控制器实例放入 adapters 链表" style="text;align=left;verticalAlign=top;spacingLeft=4;spacingRight=4;overflow=hidden;rotatable=0;points=[[0,0.5],[1,0.5]];portConstraint=eastwest;fillColor=#dae8fc;strokeColor=#6c8ebf;" parent="x74ONLKLbEEUaDy3nGKP-23" vertex="1">
          <mxGeometry y="26" width="230" height="26" as="geometry" />
        </mxCell>
        <mxCell id="x74ONLKLbEEUaDy3nGKP-25" value="2. 取出i2c_driver链表中所有的i2c_driver&#xa;然后执行i2c_driver-&gt;attach_adapter匹配" style="text;align=left;verticalAlign=top;spacingLeft=4;spacingRight=4;overflow=hidden;rotatable=0;points=[[0,0.5],[1,0.5]];portConstraint=eastwest;rounded=0;shadow=0;html=0;fillColor=#dae8fc;strokeColor=#6c8ebf;" parent="x74ONLKLbEEUaDy3nGKP-23" vertex="1">
          <mxGeometry y="52" width="230" height="38" as="geometry" />
        </mxCell>
        <mxCell id="x74ONLKLbEEUaDy3nGKP-27" value="" style="line;html=1;strokeWidth=1;align=left;verticalAlign=middle;spacingTop=-1;spacingLeft=3;spacingRight=3;rotatable=0;labelPosition=right;points=[];portConstraint=eastwest;" parent="x74ONLKLbEEUaDy3nGKP-23" vertex="1">
          <mxGeometry y="90" width="230" as="geometry" />
        </mxCell>
        <mxCell id="x74ONLKLbEEUaDy3nGKP-28" value="i2c_add_driver：注册i2c设备驱动" style="swimlane;fontStyle=3;align=center;verticalAlign=top;childLayout=stackLayout;horizontal=1;startSize=26;horizontalStack=0;resizeParent=1;resizeLast=0;collapsible=1;marginBottom=0;rounded=0;shadow=0;strokeWidth=1;fillColor=#d5e8d4;strokeColor=#82b366;" parent="WIyWlLk6GJQsqaUBKTNV-1" vertex="1">
          <mxGeometry x="527" y="400" width="230" height="90" as="geometry">
            <mxRectangle x="220" y="120" width="160" height="26" as="alternateBounds" />
          </mxGeometry>
        </mxCell>
        <mxCell id="x74ONLKLbEEUaDy3nGKP-29" value="1. 将 i2c 设备驱动放入 i2c_dirver 链表" style="text;align=left;verticalAlign=top;spacingLeft=4;spacingRight=4;overflow=hidden;rotatable=0;points=[[0,0.5],[1,0.5]];portConstraint=eastwest;fillColor=#dae8fc;strokeColor=#6c8ebf;" parent="x74ONLKLbEEUaDy3nGKP-28" vertex="1">
          <mxGeometry y="26" width="230" height="26" as="geometry" />
        </mxCell>
        <mxCell id="x74ONLKLbEEUaDy3nGKP-30" value="2. 取出adapters链表中所有的i2c_adapter&#xa;然后执行i2c_driver-&gt;attach_adapter匹配" style="text;align=left;verticalAlign=top;spacingLeft=4;spacingRight=4;overflow=hidden;rotatable=0;points=[[0,0.5],[1,0.5]];portConstraint=eastwest;rounded=0;shadow=0;html=0;fillColor=#dae8fc;strokeColor=#6c8ebf;" parent="x74ONLKLbEEUaDy3nGKP-28" vertex="1">
          <mxGeometry y="52" width="230" height="38" as="geometry" />
        </mxCell>
        <mxCell id="x74ONLKLbEEUaDy3nGKP-31" value="" style="line;html=1;strokeWidth=1;align=left;verticalAlign=middle;spacingTop=-1;spacingLeft=3;spacingRight=3;rotatable=0;labelPosition=right;points=[];portConstraint=eastwest;" parent="x74ONLKLbEEUaDy3nGKP-28" vertex="1">
          <mxGeometry y="90" width="230" as="geometry" />
        </mxCell>
        <mxCell id="zkfFHV4jXpPFQw0GAbJ--4" value="" style="line;html=1;strokeWidth=1;align=left;verticalAlign=middle;spacingTop=-1;spacingLeft=3;spacingRight=3;rotatable=0;labelPosition=right;points=[];portConstraint=eastwest;" parent="WIyWlLk6GJQsqaUBKTNV-1" vertex="1">
          <mxGeometry x="60" y="244" width="180" as="geometry" />
        </mxCell>
        <mxCell id="x74ONLKLbEEUaDy3nGKP-32" value="i2c_adapter实例：对应一个i2c控制器" style="swimlane;fontStyle=3;align=center;verticalAlign=top;childLayout=stackLayout;horizontal=1;startSize=26;horizontalStack=0;resizeParent=1;resizeLast=0;collapsible=1;marginBottom=0;rounded=0;shadow=0;strokeWidth=1;fillColor=#d5e8d4;strokeColor=#82b366;" parent="WIyWlLk6GJQsqaUBKTNV-1" vertex="1">
          <mxGeometry x="22.819999999999997" y="509" width="239.2" height="130" as="geometry">
            <mxRectangle x="220" y="120" width="160" height="26" as="alternateBounds" />
          </mxGeometry>
        </mxCell>
        <mxCell id="x74ONLKLbEEUaDy3nGKP-35" value="" style="line;html=1;strokeWidth=1;align=left;verticalAlign=middle;spacingTop=-1;spacingLeft=3;spacingRight=3;rotatable=0;labelPosition=right;points=[];portConstraint=eastwest;" parent="x74ONLKLbEEUaDy3nGKP-32" vertex="1">
          <mxGeometry y="26" width="239.2" as="geometry" />
        </mxCell>
        <mxCell id="x74ONLKLbEEUaDy3nGKP-38" value="" style="shape=image;verticalLabelPosition=bottom;labelBackgroundColor=default;verticalAlign=top;aspect=fixed;imageAspect=0;image=data:image/png,iVBORw0KGgoAAAANSUhEUgAAAtQAAAEzCAYAAAARhJRXAAAgAElEQVR4Ae2dP6skx7nGJ2zEHRDMhUEMZkcCsQJhEMocSBv4BMJaBQYnlw0HjMACgS1t4sQHDM60xtk6GDAONpIjJ4MXFucKPen5AEr9AepS3f3U/6qu6u6Z6el5gkOfmenqqnrrqapfvf129WK73Qr+0QbUADVADVAD1AA1QA1QA9RAPw0saLh+hqPdpm+3R48eCf6V24Danr622UZsI2qAGqAGpqUBAjU99LO9Q0GYLodpaTMO0tMapNkebA9qgBqgBqavAQI1gXq2AEWgJlBzEpr+JMQ2YhtRA9TAHDRAoE4A9fq+EovjQlT7ldgkzpuDEOZYBwL1ZYH6VvvPer+oxw05dqi//XoWC9eTtendSlTSXgeOtXMci89Zp/XzV2Lx5o2oXjy/qXl7/eJNXW9Zd/X34tksxp1z6me72Yl9dRDHxbH+26/zFzsXBOq1WO0rUZ18AO2bz1os1YRYidVdvlHP2vhXD/p926e7PYYD9Xvi5eMPxMMH74vPZxGPnVefcfRb2H/u1mJ5aBawDYRWotqvr3JCnC9QF7bptqBvzxGonzwR6xevRGUCzqtXYvn82fi6fvJMLF81INnA1CtRvcjPZ9NCaA2iz59kQVh+Gt8O1asXYv2kewwvH4ueiaWy9yux6spjoN3Ky3eKOjfXJFCPYNvNvTi0IH1dQH2uAXRAPifzxlw9BI8gXNhgQPt0DWaDgfrd98XDhx8KMRegzqxPl11zf8/uP7tl451UC1jDs3vyBfeIWoamzeNu2Xipb9FDXdK3S8417TvZ/5+I1SvDU6ggr/1OAuVYZX/2woZ2M69XGV7aJ8+t9FUOUOemcc5TntO6jBnA28NG2R7qoXbrUbbcsXPwec9eNF5qeqizFoew927ZeKWP1b3Ybcrnhst5qM81gJ4rnyl3rimX7YTtQ6B2Qj7ODNQYpNJHeD0rsdxt1OC3MSB7uSsf2NJ5nvF6MwPqIruW9O2Sc6c8nqmyPRGrF6/E8tkTyxu9efJceVCzwFVdL6ZZeGSbvNA+GwMWl89iaeX3AP9XYvmiDZXoBOrcNDjvjVi8em54pBuPdQPXIy4sOm1l2mGo3cxrTfB/ArWaS9Anuo934r6SQH0Q9z1gWl6fQF3UCSfYca69/CecSAnU1wDUW7HdLUUImlXoxDV7dwnUeXHRJxwHuifS847rCJUYB6i3YvvshQhBswoBSHgpUZaFDA9B7HEHUOO8zjSAuoiXHOULlf0sbTbAbmcp35C5HbZPtP3k6zCk/r3SAqj3Ytcr/VhAfdfGypm3bA+2x6luPEwu5nmh/4O3eTdis1s5cZYLUR2WYmV4tobmoyZxs1y5E7oXB9o80LgeO/66NJ+2fdQDUvJBy5DdpIgwsdV13oi1jHNXtuiIaz2LDvInPwuo323jh2UIB/4++EC8fu9de6/q9x7r33Fe6BgIA/ndY3ntD8TLdx+JR21+Kq8PA3klPcbvipcfGNcLxXC/+554/cEHVnkfHr8vfifzx/k96jNkoB3Uf5xBbNM+FLxI9b/SvuDk0V3XgnEndG2Meak6tOlC45vZZxfHpR8mUNK3t1vRtE/7TIiXNjBmqzRGGI4cD2L1QX3VmOGkw/fuGI9xp/5+I9b3ZhhQJap7N56+vbMhy3En54UmHxl3L9tUaeco65Q/ZiT18ORZ7XX2YqKf5cUc49oA0iRIerG9zUN2JXHHyEeCL/K2j/DSNl5inJ8G/fw0AObg9cxQkGj58tsNeVkhJT2vCzvE7bYV2xHax24Lt65PxObZcycu/o2QseerHL0VAHUoH8uObwJ3Edq+YJ6XXbbQODmJ76YA1BgIMVA6R2sw6zvYWgNkeICu7vXtYunxsieicJrQE+V9gUAP4IG8YpNPDxEV52PcOg/ZxLKbLA/ac79Uk5SXLlQfpHPaH2nH0kF6ELIHJQWVANcQGH/4oXj93jAART4A6tfvP25irwP5WXmhXAE4f/QoDdSfv2+DtAb3D4V4/N5NAHVxXxi7v8mFqTnuhK6PsSjUZ4zzk3VRfcoB6tK+reC4EksLWO0xy+qrKo19zumAOnfcaYH64J5fidW9O/47djPsnj2emABoxii3/yfh2MhPhWJEvLayPAroAvkkIc/Ix7pOBCwBoSg78g0CcHvt/DQI9/DjpDfPnZjvhC1y2wflMgGvxFZmPrBDLL36fWD7mHm6/yfzkDuYdNxFkHctaltE2h75deXT2NMBaiOcyLJ3a4/Osjk6RVkuf5wAUANAl87Esmm9H+7grIwGAHM9FRFjb+QEsF+J9Z0BznLwwYQV8t7IaxXmo8on0+LaHZOhOq/eYs/2pNRep/uRtsxCeXLzQd2986UHSO+oYLWRkUbCsLnTQsrW59KB1T4RreAcG3Q/FK/ft73Rn7deZAty4dmVxyTwGhDepmmAuvWAf/BYvFTe73fF7wDAJuwmr58AasPr/PD4PWsHks/fe1+8ft8A6h71gf0GH6HXrv4TbEcdWx3cYQfXdjQqyzxmn+s97qBOKGfSBqjrwooj327lHaIWZN30Rj81+2idJta3XTi27lIZY4KbF+oij1n1aRe2KGPOGI9z28WDWafwuKNttjg2HndrUVLvELMRq9pzPXyXJgDb0gGZTeupA5R6fQZgY8BXcvcN43z3vNqT+DzmbbadCdstPMk+0NZlRD4GcAGuokBUlAZAbcKYGTv9SqykB1baZQSgtuweKKf1u6ln7/9Mu9Xb8tm7qJS1j9te9ud60fFCxp3bdz/kgiwIuW49cJ7Rvr4NUNc3day//l22U/vwrJveWFja+nwi8DCoLF+0P7jljHx++qsHIf4gOv4exMuPbbvpOvT5/uJAjQHLnQgyKoMBNGewjRi9MR7KEPFCDMkna/JA/hneqmQ9umxWng8mmJgXDb9b3ibYS4KKs0iSk3V4gsL3l9SBb78GqAGm0hNtAzWAO3pMAm8cqF3Ira8fulboOwXAKHcbQuJ9/6F4cBYI0XogbTI/XZ9hg5LRDln9xzjf6B9RkKzP0XrzNRq+3mh1UmVEGSLjDs7LsQH6XGgsjPyGvhurP363+rYB1CawKttE8lK/yzrl1Ad1z7mee272uKOBGjZQdVbOFbTRUKAGHLrgkaE1gI0B1DUQBSFS5xOFWtir4xgFojodQMqEXe0ZD+ddmsY5vw6RMHY4qbezc87pqJOlw9S5sLkLg6k07W9pu43XPtl18cqMMtht510vxwaA45AWI791Lbrwe8y775XTq1/Tpy4B1HfrfbP39HIXCZHq7u/DH0rEACs9C9Lj4cW6RQpRMti2Rk/HGEYmth75qEZH3VIemy0G9kj+EcGoPLJ/L80nYzIJ2Sb0nSpj4pqw1Rl0kGs7BZiGR1dIz/H7tldXnQfwxDETQJEeHuqoxxvXxTF5/RhQvyde16Ekj8XvcJ3cYzK/6QC1AqMQYNZaLO0LkTFI6Tr9e69xB9dGv8gaQ9wFacxDneiHyDfSj7FQse5KIU3OMas+rT0jZQj23+S5ofr6GoBuANhxB0C6vYPlA6DUHtUXYtVzL2np0V5iOz0PZMYBTAU13vWbeuN314uI70NAjd/y02jwWxkhArZXs61vpJzBdsjRKNqqEKhRx7jHfJz2ya1XOrZ5BKBWdzHchWLMQ402jdz1kG0TAfHcOp//vJ3Ym/tOV/0fSJRlDwL1J598IkJ/0coGHgxahB5KNDtDcgD1BzxMBIjJ9Y8RoC3Mx6pjzuQx5PqmPbr+L84Hk1DELnV+7aRkgksyH1wz4vE5gw6s9umwGUC3PgYe4BOhhxJNOM0EUORzFqAuLBPK1tggb1/tEhsnz83pP04bAoqCD+Dh3KRG/bEjWUZcM3LsPe7gepk20PV2YpXrEAi3v6EfFvZtw0NNoO6hk8CDaAv5opach8Sgh/oYAZMRYERBYehBMpl3Ig+k9YC6Txq1HR/24g7YKXHdIX02N37YzAN1X8Ts1mE781pj/K885e6dDfV5DKDWdyVCsdCLNy44Q7epvE+0SLL6T4++G00fAOqeW+bJdo8CdV9RSG+OfAMigFfeWgxeq2RSxLlH14MjDdsxuSCtCY1R4zoNlTUZ+p6SYH1z84yeV5oP7OJOxkYdQ7YJfafKlHHN9tyT6ECVw6hD4jsLJg1QlnHG8g2IeJBPhmgEzy2E17MA9aP5eqg1VKZAUbZ9aV/I04vXb9EX+ow70GXWGKL7lf+2SPnciFt+fX4wvlzmjbI74x4WCARq16Zln6X3UO4zDRCRnldPP9BA4Ahgsj2+wzygOVCozwHopo4NOPVJI22BOi5ib0Xs6UnutHPhdXX9UqAo9TGsfTrLDZ1goVHHItsx1Hrf8I6yZtkAgPzK2U1EvmXT3DccfUOfH30DJco+8K7D+UM+7sRu1b5ufOyQD+mdzm58iMA9YkBX8WxolPaI350BP5SvmmiD58pXFkuvTmQSLsjHy7toMpSw79TRtcmgz5hE8/PB5Klvgdrlg12t35P2QhkSkO7WEdc7Rfu4eTmfg5BsgLV66PDDSPjEuYA6kP/nKkwlHkOdHVqCOmfWx+sHjl2zf8/qP40mocVoP7bKAB3m94XsMhv5qDL1GXdwnRwbtOeUjB+9+jY91MPnNbQrjgCIlGcT56pjDEzwfflDXblQqM9LgTR+GwbUaU9x/7p29uUsmGzHHfXK9Q5ArdvuhGVW2jC8xkEoRchQR3lzbNCeYy/qbEZwbY1FkncXoy0/9BX73b1e7PP5gVrW+0QPJeYDtYRZuQXTWmwcL4r0UDb7F0dAV3mZ5MNv9s4YnpExKbVPcze/y/1hzb1KR8jHEHWdB/KNedkhIvVUfbOP68a4Th1/OdIuH2qCr/dW3dhv4JJ7dLv5oPz1gz6mjZv9pZu7CA4cA4CDEAGQcdLItjyHDgy7ehoJ/NYAdbNXs9z54nNzf+ZHj4T0VNevFg8ArUrbbn33kBF3XeyhVt5m8wFDY0eQOm8XqB8JvWVes7f15wDmtk7RXT6s/OJx5Dm2zToH+uvoP3Kv80aLsT7sD/LFfSGgj846oPy9xp22zLhGwgaqLvuV2NxtvLE0WE5ct6RvnxuoS8b44nHHv0sBO2oHQWy88vUUtLHSjISYV2Ip46brh+l0eumpbval7gCc9lpWDHXAqw0gkbfbvbcsyl0xArt8rJWnPK8Msboi7xIYSqeBR1fuoW3siCF3RonGkWvbxsrZ+X0OTNYedNxhyLcb6lvSPp3lVTpr647yWyEXcl9qc7vBjjLjGgGNoTyqLi+ei82TJ562cZ51xHXrrfuMNt06O7g4/cS6hlvfyXyeAlC32xwhxMM9prwu8LK4afz9oTF4huMLq5SH2phEhuWDvEOTPgZunOMcE5NpmdDK88Ek49W9jc302qd4YpODQKp9Glt4+RidKF8HZYOtC8UI8XCPKU8vINlNIwJ7R+Pc1PVcr7mGY+OFM+1Dh6+jL3bBA4tumvZzLITl0SOBMqbqU6ZJs026deB5oKG3jnFEQxLyK+8L5fVK1acS4XEnlQbjgjOGdNkAi1Wjz8i6FPdtYyxM9UfbTj3qY5Qzu2/DBtkLeZRL2xL20FqBRlwHADSUe9RgiBAP9+h5+ZTnGt5e+yhvqZuOF21z7QV186g/u4DUkQ+ukQPJAKycc1HezjTJ8rkxurnt4Z7X3T5ebHSyXLqtfFsUto/RF2Cz7mOqPq9EVS9GXKBOpUF9nDRdNsAi0qkD2hzaso9yIei2z7V8vjhQy1i9wFsSj/KNeqHYP9ew7Rux2rdcKegLDareA2/tW/vu8PYvPbD6gs3NB4M0Jr7QMZ5P7TE/wNsm0+bawbVL+nNpPrWX3CpX4g2OxRNbW9Zz6cDp3H5ba9speA29JfHDD4T3VkHD06vSPpIe48fioYZbA2BHAmr5Ahe5R3XjKZfXl+VqvMcN/PoeapRNhoU8WG9KzKlTd31SNk3/1qP/QG/FQN20c2lfSJdfa0edVzzu9LBBDboYNySo439n/AkszIv69gWAutkXe9kuPoz6uGM8dOB+X/f3EBjDzno8Ph1QN2/GkzHT1lsS38RiTY2H/9RDZBJqcL4bF+vrrvZGvoIH1UzrnNsFRW3+Phg61zFeKJNzLvoH4CqZxnuYU9rB9G76ZcH1844ngMkOu2W3T8F8ZdU1ZrMniE134FjFdwOeQ0c3jbwWNCZBHf87ad1FnNSKvFvinB+Oux7atudMPwWg7isYphs/no82tWwK8ORRb4mXYwtrYKemLE2dwjYAQblndMhrKV8u0zgbNDyeohy85jknb+ZFvV1WA1gMyT2jg+PO88yXyMxmjiBQn3yyY6e/bKcfYv8ceOQ5PmwPsTnTlvYXeF8TD1jCext7sHc2E1qp7Xg++xs10E8DOnQlGqKh7n74nu1+eU69rQDUB3Hfc+u80bfNm6ehpy4Eli+kO8KyD8s5NgnZkt+dqo9poJbPjrhb5G3qkJM2VCIYDnGqcvG61Dw1MF8NaKCWL7JZOw8RWg/PBncbmac2dstj87bE6l7sekA1gZrendl6+XPgkef40D2vSQSxtkb8bke8tvu67pPbw9ixQz1H4pVx6cH2ycvFsXG2Y+P0tJMTB90d2zudel1BfYwdO+wHC007v/Bgezo2PgHUb+7FwXxz4uIo9uv8fAjUnDRmO2kQln1YzrHJvAbMKwBqOQYFH+pd1A8o1tuScpya7Tg1r/6WDx92va8AQIv64JXUR25h6D1s+6Z+QLHeJrKozn3bfmLpNjuxr9qXvBCoJ9Y4tyjIidQ5Bx55jg/d9kTH/kR7UAPUADVADVADXRqgh3oi8NfVUPydnZkaoAaoAWqAGqAGqIFpaoBATaDmrVRqgBqgBqgBaoAaoAaogQEaIFAPMB5XidNcJbJd2C7UADVADVAD1AA1cE4NnA6oP1qJH75diB+frfNXPH3S3AoQwzZfrsRnt1LnjHp+9ulKfP9lJX6UWlN/lfjuIw4k5xxImBf1Rg1QA9QANXDLGjgZUH/1TAJOGdj0SXMzjUeg9hZmn33hgjSgukx3N6OhjAUKbcEJkRqgBqgBaoAaKNfAiYB6Lb6X3sIib2qfNOUVvlqREKgdoG718u1CfP/pxvnthnRBSGbbUwPUADVADVADF9fASYAansPvP80Hmz5prhaO+wifQG13lk+XTYhHSUhRH7szjW132oP2oAaoAWqAGqAGPA2cAKjhOVyKr7IN3idNPqzPArwJ1LZ4CdS2PbL72o31G9qFOqEGqAFqgBo4gwbGB+oWdH74ouA2fJ80ZzBOEYh/tBbfPauaBzHxcNyXVSAcoV08SM/qR/KBuibu94fW0wpPvYw/tzz8FlBvxFdfLK28ZHrvYUUrjQtSG/FdnXck3ji7Pu518z438fKxsCAssBYiqqNSoP5oI75y2ueHL5fiu0i4iBXP39rCfOiRYSZ57VzUh6bWp1keTsLUADVADVADmRoYGag7IC1YqD5pJjaZA1wB0s7RAuNtC4tfLhVMN6BWie++aMMYVHrDy488vHR4EC+wo4pKE9oZJGF3pFPlMPKoY5bHsD/y98utYNsK59CQrcHWLpf63kq3rRcu9Y4zkfqEoB1A/b2zcFF5jGaHMWzJaxDcqQFqgBqgBqiBS2pgXKAGiLlAEwTptuH7pEld7wK/AQC/d7zyn7WezSBQ13DXeIe1V7qBy8+2gE3Deww7tVBoeqTl1nENMBrnSzsgTfDh0EAere3K6jOkA2tIVjaC5/lbYzFRl0ufa0Jt8H9Lf7qesn1ML/5nn8LL79htuxWwQX19y5Mt7w60u4tY+QyxwzzSWjqOLF5Kd/655ODIvOehS7Yj25EaoAbOoYFRgRpevZI9gPukOYdh8vMAsOXuNqHBEJ5RDSKASFzTAD3AcWRXC1wD16zLjzRFQI28c+szsKOijBKgP4JtjHrHFkgA7y6o7QgnCtrNAGpz4aI0gTIH7TrQHrH6XsH3sGVwkaMAO6Ntr6CuSgssK28HUwPUADVADWy3YkSgbmGoCDL6pJkgsADuJDRIb+YXgXhm1eEAjYDnrQCIaBgG1Brw0QVxKIMJmMk0gTxQRlwrqz7D2wP1B4hpOySujTKa9UX5jaN7beThHt084aFWnnPjmoSpRLvQTpxYqAFqgBqgBm5QA6MBNcClBED6pJkszEjvqvvGvtRDiUZIA+ygoS4Au0k43optCDCTaQJ5mB0guz5jwBXK0ixIsnaHCdXXLH/7P8DYBWj3s7Z9Ux+kK9HzZLUZsAvLOoZueQ3qiBqgBqgBaqDRwEhADSDSXtduA/dJcx3ClTHNcscPQBt28GhscgUeagfA0vUZ3iZYUPyIBUmH17m2YyZQ49qlYEygLm9X2Bq6Dx+Nuy6OzrrHjPIy8Zq0GTVADVAD1MA5NDAOULdw43r5khXok+baJmB4iA1v9Ba7fBjfAUS0/bDYMOAD14qE1AQBEGmMvNAm8oG8BniMPLrsm7gerlt8RDnqeqHeie3yUEak64Lv3PNw3fYYtKdzTnFdZ54eOg6DNHZkKdDbzO1F/XCSpwaoAWpgPhoYAagBQSUTZZ805za6DOFoIOCHZ6Ft51CeJtTjexk3/RG+a4569w3Tcz/UQy0f3jP2+G73V24gxsxHlgF5mYBq7FJRPyjmtltpfew6Fw0OCtDNMugyJ73K2aCsryfb8SunjWLlJVAPaNezgvC63U99Iew7QddSfpYz1gf5PbVBDVAD16SB4UANKOryFJqTbJ80Zvoz/O962+Jwp4Et5pmz0+J8Db/IK8tDrXZLgMcPRxNKdSfEtf2yYR9sNx3Kh+v6R7s+Oq8y4et8dL3bawGWv3XLZuSFc3J0p7bH8+sSXojobfPGqatR7jNot6wdrrxsGEvafsH2uvL2ZP/gw2zUADVwpRoYDNSNJy8BPgHD9ElzfkjI9VDL/Z4Db0n8thJhjyhAshCotxshPd7ywUf7JSUyH987ru3VeKR1mvZ8tTVcoO2K6tNnAscdCv+lLig3PMQ/RkJcgg9hBrSG64XbCICt2wLnI38CWp/2PW8ac9HoLc5SmuBvnLipAWqAGqAGRtLAQKBu4TAGPcFC9klz3gkaUMUj7U4NXIEGDC81F0BX0F7BeYHl5lhDDVAD162BQUANz1DJJNYnDUV23SJj+7H9TqaBenvH+J2Gk+VLKKRXixqgBqgBasDQwCCg5mRFUKIGqIGLaMDwSjdx8IHQJWOgu0gZmT8nW2qAGqAGbkYDBGqKfYDYEQ8OD2HGMechQrbJgDa5EcAHUMuXJyXfTHoj9mCfYZ+hBqgBauCiGiBQU4ADBEigpueTwEoNUAPUADVADVADBGoC9QCgZgfiIEoNUAPUADVADVAD1ACBmkBNoKYGqAFqgBqgBqgBaoAaGKABAvUA43FFyhUpNUANUAPUADVADVAD1ACBmkDNFSk1QA1QA9QANUANUAPUwAANEKgHGI8r0utckW52K7E8VGJxXBh/lVjdXWd9qEO225Q1sL5v+lq1X4nNDY+3HHfYT6fcT1m24fokUN/EAL8Wq30lqsNtT2hywNi0k7sN0xKsCdSzH1DvNmIt+4G5kDpUYnm/Hh/07tbOoq0S1T4/H1On1f0my2uUn8a3Q3VYivVJFpRrsVT2zuhjA+02VQ2bbWOPPRk2uYk5ajjMTLXtWa7baVsC9S0MVnerBiJuHqj15L7c5UEKB8O5DIYbsTqYdySc/yVQjjUW7JY2tCugXIhFTh9Ef23TZQF1bhrnvHPAXbaHeqjdxmq/0a/DcYfj6FzGUdYjpWUC9eiD5wQFh0k0ZzKfsz12yybEY7/O8vilOg5/m6DOk9rd1Hdp5ELKDDvY3K2UBzULXJN5SJsAniphLto2BiwudynbAfwrsdy3oRKdHurcNDivAXvtkW481g1cj7iw6LSVaYehdjOvNbH/Oe5wvC3qCxPTL8uerV8C9S2IhUDddAhObNkDwy0tGHA7fhyg3ortbilC0Lzet17xxIIOZVnI8BDEHncANc7rTAP9RxbWKF+o7GfRwwC7naV8fecK2D3R7pMuf996Mx3H2xvTAIF6UIO3XhU5UEpPV3tLWcZKygFSTXRH6a1yV50bEXpIRcYyrlLhCHdtPLR1G9n2htWDMwZx87zQ/5HJdRuIN02VrZmM23jAtoz6dnKgfD3sjgk/fNscHq6FiIIRbJI7sU3QBpx4jX6U2xc6tIZ+6vdROy/3QVb5kJ328hrnRvJDPhJ8w+0IDTdeYpwf1XOdT34a9J/g9bDolmNEtHzddUS9kJceA/pfF3ZIlsuLvV6I0vZB2d2jqktwrIT9Oe64duPn/P5CW83DVgTqyOSXJ/B2MD0sFUw3E0glVvdteIGCWPtWqpok1O92TGfnpBdIZwEB4DFwnjXJhSYJc3INpA+VrZl05ANe8fhRq3y97G7csnYmfTXpWd/ryc6qc6BO3mQ9WRvMY+DJ61+Juna0T67WVChGqB+0Gk32VUtvifKaC+xIGmgYZUe+of4G++WnQd/xH4LbuH02YQvk23VEuax+F6l317VgB6+Pjtw+8XLAdv6iQNXTqhvHnbgt032E6Wifa9YAgboX2EH05sDZTFRq8JfQVj/Vj8HYnsjqSaz2cNkPx8kJvpmEbACXIsPgvXRuAW9aTx0mYk+QgI+siVKXV+ZjxZuqOFC7LmbZ6rJbXvaNwENJsQnRK2+yTbTNVX2jNtPnWhN7J1BP3QbQ37SOT3/1IMQfRMffg3j58fBy9+4LSit6AZvcfcM43z2vvsN0H/M2u3WEFv2+U+sf+RhghrEkCtRFaaBpc1wxY6crsZLbScq+kTVOuPVLfA6UM7/PZ9rtKD3S9i4qZe2TKH89HqEcC323EfU6mjaV19Hnctzpsit/z+8LtNXUbUWgTsJbl4D1wIlJD5PgQg2ymMgiE6mXP853B2l8Lwd0G8I7RVYC1O0kgfq410b93N8BOO6kVqcvyZBgwjcAACAASURBVN+zR6ANcD1pY3mrtwbkDPtiAjSgxa1f/fkabJBjpzOfcz6gHtAXoAF3URWESJ2Pq/egbhL2Rv8ILyqhYbvPx/pak3dpGuf8OkSiXVSoLfOccxL1Kao/bN7V7wL5pe02Xvtk1YfjTiRUKTBGB9oyy8ZMRxtfsQYI1IMaz5+A/EkQg74PfKEYau3RsCfXejDCxFR7kZZilbt/LiaCIDTYgyHKr8uhPXnmdy5gYOJTXuNBdrXLFBqI3XK65QmlkQ+L1XXomNjda5v1Nv938zy3DYJ1PLHdJ5Mn2rK0Lzj2kXd38OyD75n1+3ef+is9Rfoffnf7Dr53dSbLgN/y02Acks9o6LAsewHc1jdSzj51r9OgrTr6nXt91NFvF4wP47SPm2/qsypTuyALtY2XPrP+7rXNscb8382T4w70wKOnPWe84++n1QiBepDg/AEdg6Ie9DCR2UCNQdAcKO3/A0Atyxp4+GYhX06R8loXAHV3uRrA1vVrBIp07gR/ug4Mu8pb1BFbuW2bObGhLnZ7+AuLy9vgtIPD6dpupHL36QuuJurP0JLdR+WDxvVLYAYAJsYDfcfKqXsiD6R1dZYqVzTNFnWEjgNjRqIsg7SQ2e/MPFCPqN3qsXB4+5h55v1v2JHjDr2pwfHE6eM852Z0QqAeJPaeQI2J6xgK38CA3Q2J0sMt34AI8JPepuCkgPwywAATWSkYA0JL0wXLm9EmKKdcTNT1j9XdvFbmxI5rl9bl3Dboa7tTpTtfyIc/YWX3BVMPxv/htvP7d4ntoKMUFOpzALqpYzMm9Ekjy4061gvQ0FsRM/tHiQ3qcwuvq+vXNQYOa5/iehh3Bjju+H2wjz2ZhnackwYI1MakWt6w/oCOyUB7lQDI2vuFc8K3MnELumsyMToigFnFbRu/yfrh9wygzg2LcG2FyboUQt3rZH3GBF3XB/ZNbFuFNka6LvjOPQ/XbY9ntYGTd5bdTpzmkkCt6g+tx/pC0AbQkO6jzfXwvfEgWjC9099M8OoohxoL3Jju4OdhQJ3u2/3rqmwfs01Bf9L2yBn/TljmUF1QD447YcdNyGb8jra6IQ0QqKON/Y14/dtmx4KH3UvxNHheP6BWE9vRnMDlvtQ6ttH3aknQltvSrcXG8S5J71x9azo6eaOcEjrtJ+H9ydA4t2Cf3bPBpAIm03a6zEmgx4TYBdTGU/ole9mezQZBLfpQ57ftXM4Z0hdsG1gx1AFdaMBrQiTsXW9WdX907bxWd41yoNAuj3kt5K0X5/FzkS6dRvcTK3Za7hKE17LnLLpL9ZfZ7/rYDfVd1Hv9u7sShdsHtio6znbc2Yn76iiOi6M4LHeEv1Jt83xqxtAAgdowhjnAut621z8PTWaYoPTEiQFeT4LwooQBEOEa+liJqp7c9DWbciGv+C3hFEwC9nQ+7XVCE6gF9qH83LLp28mpMpj27fe/toG2b9sumLStRYrTZjgnAE5eeSZrA6dOEf169ZnVeVoHnp5bz66nQwVEIT03LwExYVnbD/03nM7btaMjH5TX02+gffyxpLvtO9Mky2eOUd15aRu553a3j+cwSJZL2963W2H7BOwcrwfqpevj5Y8x5VrHnc29OCwaoJZQvV+jzjx264I2oo1sDRCoowPsCT3UMk/vgaqq2Uf1DnDqQ6tMI2OmG280JhmZLueNbXI/6GUL60ib2HM2mBfS+WUDsHsgE7WvLcTujmlMnBEgRhnCoTTNK6FroImk98owORuU2mzG5wfbJtEXgsCG87u3oazvHiFev4Z2pHVsHMwH/UYfPTAL9JNOOO6bJjb2BK7n9YmsczSAYgHhH50xZKDdstsnq/xmm85/3LlbHWoPde2lXt3R41isEVMv/L/fmDEPuxGo2Xk4gFID1AA1QA3cqgYMLzU91PMAu1uG2kvWnUB9q4Mo602AoAaoAWrgtjWw2Yl9G0N9XOzFjnq4bT2w/Qe1P4GaAhokoEuuBpk3vSnUADVADfTQgOGVlqEex8VB3G96XIfzJ+dPakBpgEBNMSgxnGdiyomv1LGmRTHPbMsztyUn4PP0mUvYeW79dG71GagJAHV1EPvVTtxx7OTYSQ0M1gCBmiIaLKIyqODEVmavgRMn9X1mfc+lvebWT+dWn7nojPXgfDAfDRCoCRwEDmqAGqAGqAFqgBqgBqiBARogUA8wHleW81lZsi3ZltQANUANUAPUADXQVwMEagI1V6TUADVADVAD1AA1QA1QAwM0QKAeYLy+qxim4wqYGqAGqAFqgBqgBqiB+WiAQH0CoN7sVmJpvVVN7lox1mt9py++9X0l5O4c8g2O4dc5X0Ed9s5OI/LteLlvWNxuxRxswIF++jq9hjaaY1+49TH+GnTHMnL8OrcGCNQjAzVeF+y/avfagLp9zfmhFIrNp+mvrc56AFKvMa9fM93CdTZQl9qgr611ec89cFxlfncbsd5XojLb9FCJ5f16/IXfwNd7m+NIzmvKZXvkp/HtUB2WYn13Cj0V9oWBdjuHLk072+P89Y5357Ab8zhF/+I1p6QrAvWoQK0nj+Vuc92xSHerBjyKgXqG3tndsva4n8xDPcDWUxpMpl2WjVgdAncdANcSKMcaC3ZLG9qRhzzm9CfooU2XBdS5aZzzzgGE2R7qoXYbq/2S15nRGJ+sJ0Ft2uMZ22eK7UOgHnNQ6QFeUxRFXSZMvDkAMKYNp3itU7crbX2GxedGrPaVkAtdMwxpc7cSyxJw7dQngKvJC/17Y8DicpeaDAH+lVju29Cp+67FeW4anNeAvfZINx7rBq5HXFh02sq0w1C7mdc64f+nHguKbHbCerIcZxiT2H4YH+dyJFCPOXDMabAl5OkB9dTtSltrW4/ZHzOvhVv4WZ7gnGvuliIEzSqMKBE6hLLIuyH4v6tcOK8zDXQcWSSjfKGyn2XCG2C3s5RPtj1smGjDs5UlR4s856JjC7VwW4sGAvWYA07uYJsEKHiRnHg8pKkHcjcGshKVnIBTdfFiE5uHBrWXypgszFvUof8DEzImY+sWcs6kc9fED5vpZDznKhQy09sGGxF6iCiaj2vHzHYtsgGuGbKv+Z1la2hjEQS2evDGda10Mx3UWu14MdEh7bhtanwGkCZBMqf/GNcMTaTIJx46BC9t4yXG+Wmgzk8DfQavh74ltZfTbzvqirzMft33urBDMv0I7RNqM+879K8uG8GewX6IfnyBMb6j3bz68nwCOTWQrQEC9SCxYDJLxGYCjswBeNBguxTLWCyomYdRLzUhoSzm0UyDycL8PfR/YJLoNYEat8GtibfN05v4Ybd9mQ2S9Ze7kXTdUoddTFsZ9sUkVGQDXDNkX/M7x9aqLpGyoAxJOAyUHXW4miO0YNrK+D+3/ioUw7GzaQdlc+P6Sq+RdjDT4391nUgat+1wfkqf+WkiEFc/zOjEfCdsgbp0HVEuZSdpu0i9u64FO8TSq98Htk+4HDMb4+fQ91mHbMALa3qmDpYJ6IJAPagRLjDYtpOG6ZGWUNBMXIH4R/Wb9EjbXuzaa3u/DndOAEufyRV5piZQXL/eXs8s10ZtOSfrZIGRkUb+ZtYnZYPN/bLewm99Z8eiptJYA1FOfVwdlaRBvbJsDc0F2nqb+u30g+jTXz0I8QfR8fcgXn48vCwAtqWzGNq0XmtLN2bboF0M+DJ1ZLW7TGec756X7D9mnvX/aBvHK4nzkI/RZwCKUaAuSgOgNnVjxk5XYiW3+5R2ydJhQRsGyunZGXbwjpl2c8YDef2y9onVB/mf0WlyrjHes3XMBvw+X6+01S3bikA95qCSO3EkAQoTnzPxIk3QoxpJs8X3GV5Y1w7Ir8/kmmGHLljA75ZXCmUqskFqgIN9TMgInJ9RH28QKUmDemXaGjDpgVabp/e927Yn+nw+oEa7yQWXvUjy2sGtK9rFAOp6MRq0vc5nqE3RZpaeVdkAbbYO0QfCeZemcc6vQyRaSFRb5jnnqPIF+kTJb7C5sVjobKf2+mm7jdc+ueVRC6yuuiT7NMp94TG+pA15btjxRLvQLoYGCNSGMbIH1Via3IljyGCbnPidAXqIxzJZxo4JttMOkQnFtGso/9B3Kk36mqEY6sarL6HCBhlPB531CdijJE2yXoFrB89P19+rk7Jb4PrX8BvsW3tUl2LVcy9p6dFWIVRe3xoHMAHGMc8vfne96vg+BNT4LT8N9CGfT9AhHrbXva2vZ4eBGkFbdUGoozvUMWa37ZDxzckru3/k1iXYR2FHtIUzXvdJcwkb9LUd0xE+Z64BAvWYDTy1wTY5QGNwjxyHpO20AyaUFMgGJvdkmXBNZ5KSby0MvfXQ8lCmymHc9i8Bgk4bGHZP1ss4T2k1UNfia4Sue2XfBR5EW8gXtZR6rdWdHEc7I9hUQWFs0ZbIA2k9oO6TRtURoQsBOyWumw2cSqOGlkr6QpsedU8udk9V3lAd8F1uXZJlC/Rfef3R0xhtgPLzSKilBk6mAQL1mOKa2mA7xHuRHNw7BupOO0QmFLMtQvmHvlNpItdEmjoe2w0PQJprA2r9VjzAFgDE9VgOAiFl2472bs87X8iHXx55B0LuM427DtLzWlJ3LLps+w3zUKNNUlCozwHopo6NTvukkbZAHRcqxMOxY2e/dc7P1UfhdXX9OvrlkPEtt+zuebl1wbgT9PZj3ClZwEXSXMIGrk34uWisKRmXeG7PMedCmiRQj2n40sE24LXSD8qNMdhiEHYe7supc3JC6BB5hh0wuQMI3YEDk6r1e7JMqKttN1wnfNsYt/s7Ju6M+rjlz461lG2RrFfM1qYHH3XvqEdOuw8455JArewPWwb6ljrHqyPsZ2tna3h1bdCOtYn+Xumuoxz6vBRI47dhQJ3WJGzQY6zw7KntUNu8oP9oe+Ro+YRljtUpty4JHU5mjI/Vkd8TkKmBXhogUEeF8414/dtmx4KH3UvxNHqeMXnkDrbKq2A+LGjvbrE4OpM7BugSj0e9JRa8doG3xMmn+mO7fFhlNHfhMOobs0mOHXBO/YCheX1n54E7I78+NlD5mPaU+1LrONKUB7EUCBS0Id8sTyk8oVIPpi2MugdsjUXJUu5iEnxQM51elTVw7Wn/JhdCVa3djamPdmeHZl/qHCDbCiuGOtBWGvDy+89aecrzyhCzNfK2FpUdbZVOY+jM3PFH7oyCrTiD48tAHWX2hT52Q33leOm9BTM5vvWsU2ZddHz3lMd4aYOduK+O4rg4isNy1wsiYvrl9z011tHHadfp2pVAHRGv6217/fOMRswebPUte9yi1kfssWwCYJcXE54aJ01dN/wGL5dzDEAEOiyATZetTetNunqi9s5Vsco+XOjJ0ClTnUZOkI7N+wC1sTDwy1aJqgYJt2x96tMnja5fvq11GuXZbu21cuAS7Ti/Y7eto9pRerQ1V+1XkRcjFfYfaDSSDzSYA8noHznnoo070yTLFxo/DL1FxkrkrY/d7eMtYpPl0m3l26KwfbLrEKn3zMb47eZeHBYNUEuo3q8j9R5qN6bnYuUGNECgjjbyKT3UctBqPNL6LW/6bYcNXDmTGyYcD2abazUeJieNUbfaI3uAt1pOUDK/lbDelGic30yOsozLFjr1pOaHT/SYQNu8QrtvRMvV1wbew2utre8QV3p5oG70kGNrc8IzYCKoC/Pcmf0fektiStPQjgW66ANubL1vq+z+E8zH6Dtt/j4YBvK8b/przrmA2U6glv0u1h+8/u+XCfmkjz3Gg4F2y26foXUsAOrrGOO34m51qD3UtZd6dUfwG6oRpr9ZDRGoKf6bFX8aCvrCxDnTaaD2PLLUNXVNDVADORowvNT0UJ9z/GZe1z8H221IoM4ZcHgOJ6YpagDeslvzTk+xLVgmjhHXqIHNTuzbGOrjYi9211gHlpl9byIaIFBPpCHmtlJjfeyV69j2MB+qpHf6tLYeu+14PbbXxTVgeKVlqMdxcRD3G7bLxduFPHLViwMCNQV81QK+qQEwEGdaEl97U7Zivx7Yr3PioJ3Y8MQDzpfX3tzqMxB+AdTVQexXO3HH/jKwvwxsD9p/FvYnUFPIsxDy5SfsMwyoJlD3eiPgGcrI/jST/jQ3AJ1bfdiXb2LM53h6VeMpgZqCvSrBchDlREoNUAPUADVADVADU9MAgZpATaCmBqgBaoAaoAaoAWqAGhigAQL1AONNbXXE8nDFTg1QA9QANUANUAPUwPk1QKAmUHNFSg1QA9QANUANUAPUADUwQAPDgXq9129ZqvZix613KMgBguSq+vyratqcNqcGqAFqgBqgBoZpYFSg5n6WwxqDYqb9qAFqgBqgBqgBaoAauD4NDAdq5Y28E7ul3CD+KI7LHb20yi7XJwp2ZLYZNUANUAPUADVADVAD+RoYEahlpjuxl0Bd3XOjeAI1F1XUADVADVAD1AA1QA3chAYI1BT6TQidq+z8VTZtRVtRA9QANUANUANlGrgwUN+J++WhDhM5rO4IdoR7aoAaoAaoAWqAGqAGqIGr08BlgXpzLw4yRKT+24sdBXR1AuIKtmwFS3vRXtQANUANUAPUwPw0MDJQ34n7SgJyLhzTQ81ONb9OxTZlm1ID1AA1QA1QA7elgZGBeqt2+jisdnwwkR53etypAWqAGqAGqAFqgBqYvQZGB+p6p4/aS81QDq5Ob2t1yvZme1MD1AA1QA1QA7epAQI1V42zXzVycLvNwY3tznanBqgBaoAaOJcGRgdqvNyFu3ZQxOcSMfOh1qgBaoAaoAaoAWrgkhoYGahLH0pk41+y8Zk39UcNUAPUADVADVAD1MBwDYwM1KVvSpSvK2/2oebbFYc3JjsEbUgNUAPUADVADVAD1MD5NXBhoG4BvN2LmmEi5xcAOx1tTg1QA9QANUANUAPUwDANXBiot2K73rcvdjmK43LHB+T4kCQ1QA1QA9QANUANUAPUwFVp4PJAvdVeanqoh62OuLqk/agBaoAaoAaoAWqAGji/Bi4L1Bv5pkTsV30Q95vzG4Cio82pAWqAGqAGqAFqgBqgBoZoYESglg8YtnDcGbqhvdLHOn76IPbru6ty7Q8xOtOy01ID1AA1QA1QA9QANTAfDUSB+pNPPhHmX7TRzRjo9uHC/brLQADqgzgs78WOnmkuJhgrRg1QA9QANUANUAPUwJVqIAjUUXgOVdIA6kO1Z9hGyEb8jgMENUANUAPUADVADVADs9XAcKCmOGYrjqKFFXVAHVAD1AA1QA1QA9TAjWqAQH2jDU9Y7gpL4u/UCDVADVAD1AA1QA3kaYBATaDmapoaoAaoAWqAGqAGqAFqYIAGCNQDjMdVW96qjXainagBaoAaoAaoAWpgzhogUBOouSKlBqgBaoAaoAaoAWqAGhigAQL1AOPNeaXFutGTQA1QA9QANUANUAPUQJ4GCNQEaq5IqQFqgBqgBqgBaoAaoAYGaIBAPcB4XLXlrdpoJ9qJGqAGqAFqgBqgBuasAQI1gZorUmqAGqAGqAFqgBqgBqiBARogUA8w3pxXWqwbPQnUADVADVAD1AA1QA3kaYBATaDmipQaoAaoAWqAGqAGqAFqYIAGCNQDjMdVW96qjXainagBaoAaoAaoAWpgzhogUBOouSKlBqgBaoAaoAaoAWqAGhigAQL1AOPNeaXFutGTQA1QA9QANUANUAPUQJ4GCNQEaq5IqQFqgBqgBqgBaoAaoAYGaIBAPcB4XLXlrdpoJ9qJGqAGqAFqgBqgBuasAQI1gZorUmqAGqAGqAFqgBqgBqiBARogUA8w3pxXWqwbPQnUADVADVAD1AA1QA3kaYBATaDmipQaoAaoAWqAGqAGqAFqYIAGCNQDjMdVW96qjXainagBaoAaoAaoAWpgzhogUBOouSKlBqgBaoAaoAaoAWqAGhigAQL1AOPNeaXFutGTQA1QA9QANUANUAPUQJ4GCNQEaq5IqQFqgBqgBqgBaoAaoAYGaIBAPcB4XLXlrdpoJ9qJGqAGqAFqgBqgBuasAQI1gZorUmqAGqAGqAFqgBqgBqiBARogUA8w3pxXWqwbPQnUADVADVAD1AA1QA3kaYBAPSmg3ojPPsprOAqcdqIGqAFqgBqgBqgBamAaGrgNoP50KX54thKfBeF5I777shLff7EWX31q/33/5UL8+OVSfJUFufI68vxK/ND379uF+PHbhfj+02mIg52U7UANUAPUADVADVAD1EC3Bm4DqLct7H67FF95UN3+9mwtPvtIeojxt24AOQrivnG/erYQPz5b2zFIny7Fj16+a/F9AJw/+6IKnOvnQ2HTJtQANUANUAPUADVADUxHA6cD6o9W4gfpcXUB0wXaGjgr8V2WF3iA4ep8Qt5fDdS2MGPfx8twTqD+qobvRcLzHi+nXc+5nIdF0xm05Gr4Fj4P7ae548Et2JJ1tJ0OtAftQQ1QAzPQwMmAuobLbzPgpp5oQ57jsUFvLb6TXmiv0RoQ++GLjSPoUqDW52sv90Z8Bg+18nxLDzg81PCGN8cGknNs0aSX4SE/Ztl4Lb7/Unq/m5ASmeaHoC3Gtvk5rzcVoJY6k2E/sRCjc9pkxLwG9tPs8cDrnyPWgdd2xjjadp7OBbYr25UauIQGTgTULfBFoEKGNnwPgLUm6o346ll13hji1nPmxy1rQM5rmPZ8GY/9bBn4a2Krw7+158sYbC88JNwxsj3UMn5cgTSAuj1G2ievvuFyXS7tRIC61dOPM7DteP00PR5cTjNT0zDLQy1QA9QANXCtGjgJUDexwKHwCimUBpprb6l84O9TGRqCowQ9A7bP4FGKxy0DkLWnUXqev/p0E/ByNx1A/h4VAkAr5Rn+aJ35AGRuh4MnWy5SdNmk1xyQ7S8kcq89tfMI1FHt9epH4/XT9HgwNR2xPOPqiPakPakBauA2NHACoAbEdYUuNBM2wK4B6VBIRt+GsMMpPpNA6+3Y0ZQ1BpUAAR0q0Xh2g+EhQa+06aluQi5+iJ5XtZBrw+/gjvjpMujxb27BZ8S494Kxvm02JB2BerBWgm09tJ/mjgdD2p5pT9P2tCvtSg1QA9RArgbGB+r24T8fOt1G2YivvtCe0hqoE97f3Arp8zbiu2dL8R22wsNDfCrUpIkrNj23Oq1b1pzPEuAT5yGWOggtiXTG+QqCzRCOroc+jfRm/dRiIZVexnpbsdfNQ5B52wjm1EnGmK/8PL6U7aY96ma5m/9dyGvubMRjygvzMe4m4I6KXvhJGzgLv1bz7sLL+xwLA5F3PmTctdGucvEXs4EVj/xRE7Ot8xp5QSbvKA3pp9njQY5eeI7fF2gT2oQaoAaogSloYGSgzvESGvBwzpAPA2hriHu28vaddvehrj8/k57ljIcrFbjK+jUwZD6cKIFJ7nhiftf833jw4vtk645yTqBWwG1AnoK2FIQrO+hyx4SezOPbhQguygC7oXLV3/ltVZwP8pB3E+q49jbm3MzTtMEQoEZe5rWN/0M2AFB/b4GuXcbYXZdYW/jfj9FPc8aDbp34ZWMa2oQaoAaoAWpgWhoYF6gBByZsBACrfvBQeYrbGOr6vGYSHw4DASMroDY9yW1YSB0W4YaINJ8VvCQ9pmZ+LUR8mQnsdQx5j9ALQFyHrcMdDrfhffisz8e1JdQ63th6MfKFs9d2oI3D+Zp22orPJBDKhY0Te97sjCIB0Q0bAqC15TLvCNTe9MZT7W7BWJwPdNyCrWkDWf/GkxyxHdLGvNGWrVCf5rkBcwcaHefu52MtrCxPtvQmt7u59NKF3T6D+ylsMUJZcvTEc+z2oz1oD2qAGqAGzqeBUYEa8OkCTbJBFeieuNLJfNbi++Ck34Jn8LdYeVtIyk7TeqixwLCAK5bHVmwBvdn56GspIAumBeRFPMS55Rt0HsrgAHWyzkjjA2hcf0jj5AMQrF++44eewOMd8h5vkTYHqNv6BK+zlQuONu7e0QbazwR9VceS/EvaKNl/tLZUObZb0Ws8KCkTz40/BE3b0DbUADVADZxVAyMCdQufOSBhNnI9UZdAUHjyNify4P9JIJBg5UCVAprSsgHS8l9BLkMpYlAVrIu0XwtjnS/OMW2t6iRfka53L7HzgPfat4d9Xs92cMsTiKFWoSWOhxogGb6Doe0eWtCFYrVj+XRCccr2BUALYNblsMM28L2rjbQdxmkXr62L+2nP8cDRh1cO/n7WCYL2P1F/oo6pY2pgdhoYDagBB2HYmcCgFAJq+bIViFpuJWd5bFsgsL7LqUcLdtnpmnxcaOqcyFJQhzo5R7SRH0ph1KsACDvL6OTvng8wBDj6RxvqcX5YY3GgRjr/+gBYO59zAXV3uZryudpAurAdjLbssL/bHmN+htamXMYx68trTUN3bAe2AzVADVxKAyMBNWDGAZMLTuieQR2gbmKBzdv5sg7aG91AS5/6tLYojKF2ockrv2vLQqAG4CRhus7jTB5qgHswrCKspzRIIo1uw9qGPfI5F1CjTUqhM22HKQymaIs+/WcK5WcZOscfdzzi59l526gBjgPUQJkGxgHqFu6KofCcg7AB1BJkbG90a7T2nO++WNav6S4FnUZ8LUwEd/QIPfh4eg81wK0bpqUdAEOxF/OUCSzWIVWZgqEncrs+6Z21gQxpQjrDb+6OLOr7gny6gDoJtAD4YH6O7QoXRbBlMv9z9qlYXtcwHsTKzu8JhtQANUANUAM9NDACUAPAHM9gj8IAGE5yrCd5Gdec2lFD7jLS3mbPDtlwIAlAmp3+tEBdb9dX71Zhw2nKxgpC5Vsrnb3BR9vlAzBpbUko94s29yZ3ygxYlWmw60pgH2YrhnpIPu6LgD6Se5u3u2g4sK/tCQ+/jIt39qv2+oRxbr3biaul8GdotN+CL3xNXf6hv1/JeOC1xdB6M/14GqItaUtqgBq4Pg0MB2pATjZAXsZIChKjnkPAUiW+f9ZAXbOlW2l5NVD88GXeg4kytjfkdbU7lIav4lhgY1/jUFo/b9QBDUAGOAAAIABJREFUMcbOcZS2TtWnXfgEoBUw6dXj2Tqyq0SPfKDpqN3Si8doGUPasxYQjp0jCyFcf5JADduNopHSvsfz7TGD9qA9qAFqgBo4lwYGA3UzuacB41yVSeZTT/ThcsIram1DpvY1ljtiLMV30tvo7Jcczq+F0WygaIDPhloZGuJ2ghQYAsRiHl38Hj7aeet8a7tYb0qUoTJy32h9TtgGmb97b2JsQnFk3RtdOfWpvYrGC0dq4NRvBoxqsTQfQKEH1G35Or2b7dsF3ZfChIBaXqv1sptvStQLBt8GUwbqaBt02ixTM7wOb8VSA9QANUANTFADA4G6hbwYKEywwhoAAT0a4vRvenIHbCvAsV6kIWHIjYtei+/asBL/rYjuufIzgLp9i2LXi0MmbVNtt5Atr+Y7APVV6vqSbXDN48El7ca8r2Zs4PhLkKMGqIGIBgYBNcIoJnnrOVhhCdGrOqTj+8Ab+lKDugRf6aV2z5ExxfL74GvLPx36vbGtX7A+nIjd9hjlM4Ha03mOXa9vPGD/yWlXnkOdUAPUADXQrYFBQE0DdxuYNrpCGxGoewE1tX6FWudCnVqnBqgBamAUDRCoKaQBQsqJ63bitrNjyy8IJwTqAZq4YLuxL7PdqAFqgBqgBi6kAQL1hQw/D28egXoe7UgIZjtSA9QANUANUANDNECgJlBzNUsNUAPUADVADVAD1AA1MEADBOoBxhuykilJ++jRI8G/chuU2Jjn0jNBDVAD1AA1QA1QA301QKAmUM8W1vt2CqbjgEoNUAPUADVADVADJRogUBOoCdRXoIGSTs1zOQlQA9QANUANUAPn1QCBOgFT6/tKLI4LUe1XYpM479SiZbhHebiHtNlY7TIVHYxVn+HX2YjVYSEWx0qs7s47YA0vO8tLGw7TwPr5K7F480ZUL55fdF6YTjs+EatXb8TizSuxejLMttOp043WY7MT++ogjotj/bdf36gdevLeBYF6LVb7SlSHU8Nq33zWYnmU0HB5cBgO1O+Jl48/EA8fvC8+n0U8dl59xhmcC3VwtxbLQ7MQg3aq/XpmE+9UgLpv357JJPHkiVi/eCWqNxJm2r9Xr8Ty+bPx9fbkmVi+akCyyeuVqF7k57NpIbQG0edPsha7+Wl8O1SvXoj1SeDumVjC1jkAOdBu44xhp9b7VID6mVjJ/vCKC51eutnci0ML0gTqfn3mckB9txKVhNVTA/WAfKbimRwM1O++Lx4+/FCIuQB1Zn16DSqBlWm2DnbLRtNqIYYF2Rl0Hij3WPX3rzMRoB7Qt/069RtAL3cdQIwB0wr03oiFBMqxNPHshQ3tVj4Z8PLkuZW+ygHq3DTOeWphUZfxNB7TbA/1ULuN1X4nvw60eBp7Z/cxaIFAnbVgde26WzZe6WN1L3abaxsPp1FeAvXJB5vhDU2gdkI+zgzU7sAT/gxPdiWWu40a0DYGZC93w7UQzvvc1yVQX74dntTeuOWzJ5Y3evPkufKgZoFr5/gHj+wrIfNCvTcGLC6fpfSnYWv5og2V6ATq3DQ4Ty4gnhse6cZj3cD1iAuLTluZdhhqN/NaU/8f7UCgRv+4vuOduK8kUB/EPWFajXOl7UigLhokLzOwEaivAai3YrtbihA0r/etp3q/7t1RSzv2ac8nUJ/WvsPGGYRKjAPUW7F99kKEoHn9ovWOv3gW1TXKspDhIYg97gBqnNeZ5tmLJtQl4pFE+UJlP0v7DbDbWco32txHoL6u9gqNLwDqvdiNpotQPvP+bhygvmtjGc1b3QfbU1cLbrdsY5KNW+FmGvwfDAPZiM1u5cSnLkR1WIqV4REcmo+CH5RFHnNByIufbR5oXA98cMsC6nfb+GEZwoG/Dz4Qr997196t473H+necFzoGwkB+91he+wPx8t1H4lGbn8rrw0BeSY/xu+LlB8b1QjHc774nXn/wgVXeh8fvi9/J/HF+j/oMGeQG6cAZkDbtw61JHZ1IO9oGBf3HKv9GrOWzDmZ/OCJGPPRQYmE+CNuo+5iflxd/PmgM2YrtXSCP0BjS2qDRQVvPdpxrYuObZyvMuxHa1j0njSdtDKgVUmF7hnPyAJAmQdKL7W0esiuJO0Y+EnzD5YKXtvES4/w06OenATAHr4fb/9KW0fLltxPyskJKel4XdkiWa4T2CbcJ6vxEbJ49d+Li3wgZe74y7kT41/Dj1eXDiI1dQh7qwnzQbrVt/by8uH0sqsw+E/o/sujaBp5DSNmg0UFbz7a/ak2U91Xfvmifcx8J1GO0xXCgxoRoTbgamC2P3YDJUEFJJJ/qXt9ml55CPenpsnjfBcC9L0gly5cL5BbI6A6loBLgGgLjDz8Ur98bBqDIB0D9+v3HTex1ID8rL5QrAOePHqWB+vP3bZDW4P6hEI/fuwmgPqV2MEgk85A72Zj9Bzrs6NuhXT6K80Ee+6VY1juHBPqr2X8G9O0t8soZQxygXt7H4+OtMQ62Kz0CJEIw8OZN0EOMtjWPKhQjBhDbrfIUaxAw4rALILELDAGhAHucHwRg2Lv1eneniXtFN8+dmO+ELUzbpf5HXSybFdjKvDbsEANq9XtICz3zNPOX/yfzkDuYhO4idGg0tMtHcT7I48ULsax3DjG0CXuYNhgC1MgL13WOIRsAqJeuxoy00K5r82l/JlCP0T6DgRoAunQm5E3rzYlONpjcAlAbqthGTmj7lVjfGeAsBwY1wS7DD+EU5mPljWubE3poosR59RZ79o4OtVf9ftitfht0PxSv37e90Z+3XmQLcuHZlcck8BoQ3qZpgLr1gH/wWLxU3u93xe8AwCbsJq+fAGrD6/zw+D1rB5LP33tfvH7fAOoe9bHaMtRuud+hfbt0ELyejq0ObjGHa59IO7BBef9BWIe8y7IWG/MuS+1Nbzy0bp2K80H/bCHX9EjLvtN4xkOecOltLnmwGfWphByrzG0wdZy7nw/Gt3oxbnmyNwIPqybvPAQ1oRfLaB8A29IBmU3rBYtO0gGg8Lx4ZhmM893zao/l85i32S0zPMkhr2QTJlLDpwE/gKsQqNR2QNmy0gCozRhpM3b6lVhJD6wEnRGAGu0UK6f1u2lv7/9Mu9Xb8tm7qJS1j9te9ud60fFCxp3ruHhZB7kgaxYNpl1lWthb3sl4JjbmDiq1N12Cr6+F4nwcyDU1Kuvf7Gjj51PbH2mz2hv1kbviOM8hqOcD/HzQT2sbWd78JwIPq8YWSrkaefqrByH+IDr+HsTLj+02zb1++DwCddguZTYeCNSYpBbWg1hZBSuaDFOVQhkuBdTIP+Ll8wbUVF3CvzVADTCVnmgbqAHc0WMSeONA7UJuff3QtULfKQBGudsQEu/7D8WDs0CI1gNpk/np+mTpMKd9AL09gFoBWTDt6bXTbQOUwek/yTojjQ+g8fyQxskH48AxPIbA4530oOcsytv6BK8jQQJ7zjuOAbSfCfqqjih7Tv5JnWFyl55oG3BUXrH0CoAcT14QKnQ+UaiN5eN8r8DCgF9dVkCjDWVpoC5N45yvoK7d4aQGPuccpw66vOFxN/o7bB6se/paabuN1z7RsnfaAGWw207G0bsLJJ0H0vgAqs9x7YI0Tj6A4vqujN8XkhpC2qD2nfzb+sT6QSwftJ8J+qqOJfkn2uESQH233jd7Ty93kfAtx36J8it73OA5A4G6eRBLhVJID8697aGNGrfHZBSKoVZ5H52JGo3ZIx9V5iRUQGDwQEbyRzkGHBVgGh5dIT3H79teXXUewBPHTABFenioox5vXBfH5PVjQP2eeF2HkjwWv8N1co/J/KYD1IC0+NaQp9eO0nJ9N8d/BiHWfwCS4TtMgOMwUBf1067+meqDXWmNPqfaIhLuATu4wJ22A8aAEY4Altqj+kKseu4lLT3a6la5BxbjACZgI+b5xe+uVx3fhyAGv+Wn0UC2Uh7F1nuq2r2tr2eHge2FtioEatQxZrftdpz2Mft86v9QDHXjnZaLMxt0AZJu+zTXR1uEgbokn20XlKZs35VW6aI75AV2cLWatsNAXRnlS7XbeL/txN7cd7riA4lDbRsE6k8++USE/qKZBR6oWoQeSjQFUzAZynwxsWHi848RoC3Mx6pjajJHXYZcH9foOAJ062PgAT4ReijRhNNMAEU+ZwHqwjKhbI0N8vbVttqyw8bJc3N04FxfA1xEl/L8M2gH9SrtPzi/FKiRzu+fiI127NFlg5Ttu9IabdJdrqZ8FwNqWdbAg2gL+aKWUq+1uj3vAE4BcEA37lFBoQNc6rxEHkjrQkoKoqJpVB3hmQ/YKVEWVV5DI9nfpaAucj3UwwVVK89TlTdQJoAhwNE/jgPUpfmktFDbKmX7Avt1l6vRlatVpAsvLGYA1Nwyb5CHPgrUVkcPdMjY79I7Jd+AiAlV3ioNnlswGSrwCN4WhrfMmahR5pJ8kAbH1GSOc7an9zJaMGmAsowzlm9AxIN8MkQjeG4hvJ4FqB/N10OdBdO1fk6vnbrvoQ8U9B8AaBFQ98hH9e1Y2ESqDyK/WFrVR3VIR7g+8YkwbYd4uuCYZ5Sn63fp1ZNvfQPoyFvMXWnM38MT/zAPaA4U6nMAuqljA2190si6oo71S2zMmF7YOQVfOKfPsfC6un42pJrt1fw/rH3860X0CfAMhlXA22yXFbYOgyTSRBZwBfmcC6jRJuH6ROxmaK40XXbbbLfi/CEfd2K3al83zpCPonHWbdfRgVplgMluhFAMBSjBiVO+6ll6ly4F1AB6GQMa74jKLj0G8CAkG2CtHjr8MBI+cS6gDuT/uQpTicdQZ4eWoM6Z9RlicyttCuqc9lRajenROv/02pH1UGUq6D9I43psresd7ZAPpAmHuET6KcaJYNn0nalg3+pI27cNzXSXAmpVBgU/NuCo3y09YfyJAI7h1S0FAgBI0sMqtWa8YhyLgfhxGFDnxfXm75CStilsG37gMpZW2yOn/dBuJyizoRNVpmAoDEKG7PIijeuxlfXGb+5Dier7gny6gDoJ9ugrwfyM9pO2KFwUoX2T+Rs2xvl9jucHamkbPpTYp63cNAOBWk6S8ql5ZxeANl6zeUI/ArrKsysf5uuIuwbQWBO43O/W3MpqhHzcDoF8Y1729nwFEsdm7217B4FVbR/X8CWfG6Bu9mqWO198bu7P/OiRkJ7q+tXiAaBVadut7x4y4q6LPdTK22w+YGjsCFLn7QL1I6G3zGv2tv4cwNzWKbrLh5VfPI68xMbJczN1IPdrbu7MxLToDOom7J5IO3W9UP6S/gNYlWmwz3tgH2Zrl48h+RyWwtqv/W5j3OmK2RMe/owxxBxv6t2C/LYIaeA8QC0hRu424OyeIPWhdjawASdUVvmdFUMd8GoryHnThEhYY5XcFSOwy8daecrzyhAtW+aLXcz0KG8I5HTMsRM7LXdGwZZrOXDljvtdnzNhrI/dUF8Jp95bMCPtY9or63+U39qVQ+4XbW436LQ1YFWmQQhSYB/mlXmnYEg+r14Yb76U4VDNm0GbxZlTNtVe8PDLbf/sHVJ8uxjn1rudZI4HzraO/nXzrjO9dATqMdpkOFB3POQT9Cy1HQCTFcJD1NHzVumJU52j8q1ElfJQp+Kvi/KJxIDWddGeRr98BS+GUQOD3SldKEaIh3tMeXoByW4aEdg7Guemrud6zTUcGy+caR86fB19sQseWHTTtJ9jISyPHgmUMVWf/h0kpbeIDhSA4vfw0ff4nlY7jQ1S9Yn3n2j/3K/bZxpsD/XWgFa/H0Ty6bSbm4fdN6Jl9Pp28wC1/YIat418cMf1U+NYf52hLnpyj3lzPY+yApxwSEX14rm1NaAuo/aCBvNyIbwjH1wjDLyoX3MELOaci/J2pkmWzwlBiIyvyCt+7G4fz3OfLJduM98Whe3Tq06p+rwSVb0Y8aEV3lm0uTq+eNaG37j27pFPp93cPGyNRcsYWlhZCwjdJqpegecEcH2vP/ZqB7vscf2d4zwC9Rj2HwjU8sGqwFsSj1W7Z3SXEORerssWiI3JLTQZeg8+yjwaz3gz6fmToTZQbj4p8ED54vnUHvMDvJTy/Fw7pO2k4DX0lsQPPxDeWwUNT69K+0h6jB+LhxpuDYAdCajlC1zkHtWNp1xeX5ar8R438Ot7qFE2GRbyYL0pMadO3fXR7Z+2r39eDx10gmGjHx+om7KdSjuqbr36j/tWQf3206bPBWC3NJ+o3dr+3TlR5fbtVgPB8Sret88D1M0DiTJmutlnF5P7KyHBOPj2wiB44Hx/uzGlg9aetTfylY7Rlh7RYF7BfFA+ffTB0O9znXAcaOusNN7DnLIuXR5Kv3yujfTnFBjCBg6ADrRbdvsEbKbLnahjzGZPEJvu1KfOx31zoX4QtAHNAOyW5hO1W26byv2gX7SLArRNYi/y1stu9zuk821AoE5oqq8WZ5RuOFDPyBhZA9EF6gvw5FFviZdji6m2J8tlDMoA6tAi+gJ9jW1jtA3tP+gBJWqph5YA1CGPMvV4Qj3SQz1GfyVQX0EnzYFHnuPD9hgdhNfoMSmW9CkC9QknyRO3XUk781y2c44GCNQX0gmA+iDuuXVe7zYgUOd08gufQ1j2YTnHJoThKwAqAnXvwZv6vgJ9X3juuDqNEKgvNh7slsfmbYnVvdgRqnu1A4H6Cga8HHjkOT50X91kktRiTlw3YoHbY8fuNJOwD4G618A9ibZL6nVqsJsTB43Y2fboPqA5qfrOrT6tXgjUlxsPNvfiYL45cXEU+/XU+vG0y0OgntQgGRYLYdmH5RybzAs6CNTzas9wX2cdT2WXuQHo3OrTtjuB+nJALVlosxP7qn3JC4G6uC0I1ATq8NsVgzuF9APbHPg9xTmEk1PBCa9LbVED1AA1QA1QA6YGCNRXANRmg/F/duBTa+D/fvpTwT/agBrop4FT909en3MANTBNDRCoCdTFtzXYmafZmcdqF4JUP5Ci3Wg3qYGx+iGvM+9xlu07v/YlUBOoOQFQA5YGCIYEQ2qgvwYISvMDJbYp2zRHAwRqwpQFUzmi4TnzHlwUTH3xjvj3cSGOx4X4958e12EgX//prfrz8fiW+OsX/aFD5cHwEobXnFUDj8Vf/yU1Xajfgr7A8XHe4yPbl+0b0wCBmkBNoKYGLA1o2N2Kf7RA/Y/ftPD8m9X4QP3FY/HHv72l4F0C/PFfb4l//Gkrvh4btr7Yin/8C4uCBqz+/bf8fPSCQi8ytL3CC4z8NL4d/v2vlfjjKRYuX2zFX/8GO6zEHzvt3KdsfdKEbdhl4/zfewL1T/P7Qmyy5fcEMWpg3hogUBOmLJhih593h89pXw0nKYjIgbAcOALgNJ7wGqZbiG/Aeqx8fir+7zcrG9qtfN7phnfDS2l67bW9AvXNTeOcZ9uh0JuagOOvf/OO+EftoTXt3WHjPmXrkyZR7qSNi9JBb6U2ze8LOX2M53CcpQbmpwECNYGaQE0NWBrQ8BKACAVKHRCWDTmPa0/pP37z2ALar794R3nHEW6iyxUA1878UJe3hMwL1/ragGzlhQ9eS4PYP1rPbne5ctPgPOmZf8fwSDce3gauR7C3ajuZz0r88TcI6Uldu0/Z+qTp06Z90qBsIwC1sqdtP4LS/ECJbco2zdEAgZowZcFUjmh4zrwHF8Dm//00AB+AiH9leHSDYJoPQQiV6AbXzGv+ZiVC0PzHv7Xe2r9tFWhrGzTXRlmOMjykjSPvKhfO60yDMJqITVG+UNndcqY/68VLfR7a8mgDoXWNPmXrk2agVqwyJ68V0HTyfGgrkA72c9qN4+O8x0e2L9s3poHrAGq8nrh+lfJGrPeVqI54zXIlqv1abIJgvBGb3UosD5VYqPMXojosxWq3cUCyfROdzONOpmmuL68tjbe5xzUqsdwFBHXnliuWTyBtsOw8LyZafn9abeTDCWDDObbxuXigsQndsD3DOXkASJMg6cVEL8S//2Z6eZ2yBeAJ+UjwDZcL3u0GPHF+Gqjz0wCYg9cDtMnwlGj5uusYrJe6dhyo+5StT5qmfI9FE5KC2O5moSPjyP9q3FXw6lKktwAYQxPW3Qp9F8PLD+dHjhyfTjs+0b6071Q1cGVAvVSgawJy/X8LvqahNQQDvu1jdW9CdQvUBzePSqzulxaQL45LsTYhGMBvQLtZPjsfdgazjfj/9PRQChDW+QrSzBhd/X8Sjg1AUaEYjvfPzAtga8cbd3ubzWvI/9V1IsAKQETZcX4QgNs65KeJA97Xf3JivhO2cOuU9Vm1VQyo+5StT5pmQQC7BtvT2GnGqpuqg9aYmR5tptOEy6f0Vrr7h6FZ5MExbXpjGtuEbXIODVwXULfAanqkNzvArgO5tVd5Kar9SqzvTHDeinCaFqjrPCqxujO90guxqL3gG7GqPdfN700D6e+W9xvLUy7zaTzp5vkU9jmEPdc8nv7qQYg/iI6/B/Hy4/46Axj0OSqQbLfZwzW+br2IPuC03lWECRgPCiZ33zDOd8+rvZx/inmbXW8uPMmRmFrkY8A2wC8K1EVpAHgm1Jqx02+Jv8oHCaVdLgbUJWXrX596AVHfXbC9wxJ2G0g2y9G0Y7neUD7d3vr6+jvots9xrmMP69V/TKXtbsN2VwfUvrdXA62E4DzhIo0J4RqokYf2cOM8pDMAuQV6pHHzxzViv7vn83NuG97medMGasDKwnrwLwtKFDQ5nsYgROp8olAb8ByGygEgC4dTALZtkEsDdWka5/w6hKW1gdoyzzkns26h+lrfKe+uXT99jpNvVtn6pHEXOe5ntLdbTnxfojekaeAZbVk/pDmSXTmG3+bYzHZnu18XUB9Wlge4EXAAco1wjFAMtQ7HAChLIQCo9Xc+DPt54Rx9TTusBN8TqNnZrmXA1UDlgk3GZxOMZexrz72kpUdbbe/mQbUDbT1BSMNU+AFL/O561fF9CObxW34aAJ6ME9YhHrbXva2vZ4eM9kjZphOo+5StTxpdj1AMtQ7hcIG62QpR/Z6lN5TvLYHdWsb2/F9LP2c5OSdRA+NqYNZAvd6H4RaQa8dC9wPq7jyaMhCoxxUuB4LT2XMQUEuACzwoWL+oJfVgWRD8NPxYb2UECA4ATIDvMbbDRSIPpPWAuk8atZMKPPOBhzcT1x3UVrhuzAa9yoY2K6+PultghP0oWK6/CwB1sd5QvrfEX/8UDyUZYleOTacbm2hb2nbKGpgvUBsPCi69HT3gadbe6KEe6uDOH4anfMoiYNmuZ5CadsiH9jQCSKTHUb+RT+7AkRvb3FwLkGV7fId5qAHEUZg2H1SMwh2AUR4b0NPXNX+L/a/hEHWsww5Cb0WE17/QdmiD6LETqH8q+pStT5r/U2UJhW8AgrXNYnXq1huuxZAPjvvXM+6zra6jrWYL1CoUIxgmsm53CxkO1Fs8FBnYZYSd4Do6wTW107UBtQIfBUzdUKTSKA+p+7AYoEjClw/xOr3/m4bedDn0eTEgNr9vrtUnTV3WJDD3r2vKDvVvOW3Sp2w90ijbBe86IPwn3WZWfaN1gz21ptJ5+xqy8gncWbmm8YRl5RxFDYyngQsD9Tfi9W+bHQsedi/F05hHF97mIBzD22w8KCivA9A9mt/Lfamx84YMxRgBqFXs9aLdUWS8xqHQactLaKALGOK/S/B5S/xDxk07nlbpOWz2pc6DIiuGOuCZVRB0bEIkvjbApo7DDezy8cf2DYfwKMfrkYYo5O2FfBhlcK+dTgOPe+PBV3WRO6PgNeFB0EyX0y2D9zkKneZ1+5StRxpAuLVtndyXWseV++3WR28+UEu7aK96OJ7es12irf0+uxP31VEcF0dxWO4yH5zn2OfbkTahTaatgYsCtette/3ziLH6ALUBujpmGjHVlajq7e/GAOoG3vWLZpCHeTTzidQxtpjg95yAzqyBEniwz9UgZce+am+u51FWUKfPMdPKl7QowLQgBmAUTuft2tGRD/LMgeQ0HJswqv/vTJMsn/am2vbW18/7vsNmbXhLWRtFylZcn5R23hL/rhcW7mIslabRhVeXjLseQx9S9KBncy8OiwaoJVTv15wDPBudeYxj/tTgKTRwUaDebk/ooZYd9E6GduANhxJw27cq3m1F8zChCbr9HkpUjXK3FivrDY4EamUbDpZXtSjIg7MIzIXeWnd8K/72wiB44Xx7P+JQuWoP5r/MN+shrVO+YD4+jF8MqOViwXuYU9ZlG1lQOPWzFhux33oCdd+yldYndv4X8CC7QN3YTMboW2/lTOktCtTSZoZ9BtwRCI17d6tD7aGuvdSru6saD0L14XcEUmrA18CFgdovEBuJNqEGLquBELjyuxik8ntqw9ZAcPwyvNT0UF92fAu2D50+XOSNoAEC9QhGZAflADknDRCQbECiPWiPEg14Y8FmJ/ZtDPVxsRc7zjmEN2pglhogUFPYsxS2N6mxnbPbuQQeeC5hkxqwNaDGHsMrLUM9jouDuN/Q+aDswzE5e0ymza6j3xCo2anZqakBSwMEJBuQpmWP7gfx8IClOgZ2SZlWnaZs7/KyKfgBUFcHsV/txB3HGWucUXaiXWiXmWiAQD2ThuTgdB0r2GtoJ8JWOUSdz2YE6vPZup8OrqGPs4ycL6iB8TVAoCZQc3VMDVgamDqwsHz9QI92O4/dCCrjgwptSptegwYI1IQpC6auQbQsIwdXaoAaoAaoAWqAGpiSBgjUBGoCNTVADVAD1AA1QA1QA9TAAA0QqAcYb0orI5aFK3VqgBqgBqgBaoAaoAYuo4FZA3XzNkTzjYULsdivuQLjIoIayNTA05+/FK9/K4T4Q/v329fi5ceXGaw4SYxr91/+5W3x9//+j/jzP9fiZ5l6mEMb/PKfy7resu7q75/vcEy4IQ3MQcesw7jj4Rj2JFBzEOFEQg2ENfDz1xqkAdT18WFcqP7FT8Qv//m2+PN/DdD5z9vi9395Z3zQ+8U74vf/aUCygam3xZ//mZ/Pz1oIrUH0Lz8J283uPtN2AAAYhUlEQVTRU34a3w5//s//il/+4hQTxzvi98reb4tfd+Ux0G5jTFZjXYNAfQo98Zpj6ZPXuV4tzRqoLWHulmJxpIfasokz8fO36+3I47fdU/Gy9Uw//OppC45Pxctd66nefZMFk93l+on49X8MkDa9hvJ/CZRj6fTr/7Wh3czrPxle2l+srfR/zgHq3DTOecpzWpcxA3h72CjbQz3Ubj3K1q2bkfrq1//beKnpoR6pP4/ULlPWDMtGrUQ0QKCOGOZsAzrzZ+ecpAa+Ea9rb/Rr8Y1ZPnitxwTqf74tfv/1Tyxv9M9+sVYe1CxwNcsY/B8e2SYv9O+fGbD4+69TMADwf1v8/p9tqEQnUOemwXlyAbE2PNKNx7qB6xEXFkH7xOo+1G6x607kewI1x9+i/jAR3bLMk9QtgZrCnKQwATw8XmoADwP101891GEg2mt9uvIhVGIcoN6K7df/K0LQrEIAEl5KlOXvMjwEsccdQI3zOtMA6iJecpQvVPaz9I8BdjtL+YaM4bB9ou0nX4ch9Wdazn/UwGgauCKg3ojNbiWWh6oJ3ZDhG8eFqA5Lsdptug1SEPIRyqcOF2nzXByXYu2K8G4tVvueZXOvxc/d7UkbndxG37ThHQ08PxXftDAt/uB4rd22+MU74tehmOiv82KOATAA0iRIerG9zUN2JXHHyEeCL/K2j/DSNl5inJ8G/fw0AObg9cxQkGj58hc1yMsKKel5Xdghbret2I7QPnZbuHX9ifjZ12snLv5/hIw9/3WO3gqAOpSPZcf/Bu4itH3BPC+7bG6/4udI/3Q1wc/pPkP7nMo+VwPUm3sbVm3AXYjqvgOqM4G6K58mXweod0tRKdh2dhWR0N9VNg6UHCinqIGPX4oH62FEIR52L8XTVFlNADRjlNv/k3BsXFeFYkS8tnJAVEAXyCcJeUY+1nUiYAkIRdmRbxCA22vnp0G4hx8n/bO/ODHfCVvkThAolwl4JbYy84EdYunV7wPbx8zT/T+Zh9zBpOMugrxrUdsi0vbIryufxp4OUBvhRJa9W3t0ls3RKcrCI4GQGpimBq4IqJei2q/E+s4G5w1AOeQ1NgcknJfcNm8tli0YLy2v90aoLfjc9HcrBdPVfi02Ks+NWBuLgOVumgJgx7yudkHIhdrGzgHe5vuxduHQDyaKPzyI1z/Hw4lxmwHYfu+AzM9aTx2g1NMdwMaAr+TuG8b57nm1J/EvMW+zW3Z4kn2grcuIfAzgAlxFgagoDYDahDEzdvpt8WvpgZU7cowA1JbdA+W0fldjmWsz+TnTbvW2fPYuKmXtE8pbf1cvOv4p487tux9yQRaEXLdOOM9oX98GqOv/1LH++nfZTu0DtW56Y2Fp6/MnAg+DyvJF+4NbTn6m04UamLwGrgao9SCmB9Pmu41YHaRX2PEau+LLAWrA8WFlgHGbX+Q3eLRjXmj8zv2v3Xbj57im47Y5H1AjhlqIh982cdPit4Z3Gt5r6+FEwKELHvH6KBsAbAygroEoCJE6nyjUuv0/8jkKRPX5ACkTdrVnPJx3aRrn/DpEooU0tWWec06kLsqWub/D5i4MZqRP22289imukyo7ymC3nXe9HBsAjkNajPzWtejC7zHvvldOVa+MvsRzJw9ebN956viqgDod2zwCUG9LPdSA+Uqs7iICiYA4O1TEXpwMJjAZaM9045XWn9XDiLHdPgAoEoxlHGvPvaSlR/v32E7PA5lxAFNBjXf9Rpv43fUi4vsQUOO3/DQa/H5thAjYXs22vpFy9h5L0FaFQI06xj3m47RPbr3Ssc0jALXyxrsLxZiHGm0aueshx7gIiOfWmedx/qAGpqeBqwFqFXIRjVUeA6i3QnmUg/m44AygTuXdQnrI6014nAA8Tq9TXnyghPfZ9EhvtcdaQrb9wKJjw8CDaH+XL2rJeUjM6hMRMBkBRhQUhh4k6wAepPWAOlGuaJot6oi39gXslLjuIK30AGrU4+8xu3XYblB5LW00mlOecvfOhvo8BlDruxKhWOi//9cFZ7RpKu8TLZICNhrb5ryeM97R5pzHWw1cB1DDy3tcCDu2WQo7B2q3YpsT8qGuVTm7iVRt/LbbkZC3C9rGeSg7gZqdboSB9ywhHzHvM0BbxW13x2pL76Hc8QMgIj2vJRMygMn2+A7zgOZAoT4HoJs6NuDUJ420BepYv8Qm9MbCHuCbZePC6+r6pUBRjn3D2ier7LIvYaFRxyLbMdRbtVDpKGuWDQDIbzu7ici3bJr7hmPc1+dH30CJso9912GEMSbb/syraCyjXdE/5nu8CqBWXuMglK7FcqwY6ha6Sx4ghOe8K4Y69js72Xw71yna9qxAbXmom3ay8rfipzvaEQCR8mx6E3QMTPB9+UNduVCoz0uBNH4bBtTpnSb617VTf1kw2bSrtkcHoNZteMIyGxpRZQpCKUKGOsqbY4P2HHtRl9Y7FkneXYy2/Ch77PfOtjPswHPTbUH70D7n0sCFgfob8RqvN05txwXv8tH0BMt9qc3t6lJhF3keagXu+5XY3G3EJhYXbQ5mqmxyezxnlw+1L7VZbor7XOJmPn21psM7Hnbf6G3yPv5GvY683k3EA24JMW+L38u4acfTKj3Vf5Y7VWQCtRVDHfBqA0jk7XbvLYtyV4zALh+/VJ7yDsgy+3fgf+RdAkPpNPDoyj20jR0x5M4o0Tjyvm1rpMuBydqDjjsM+XZDfUvap7i/ovxWyIXcl9rcbrCjzLhGQGMoj6rLP9fiZ7/4iadtnGcdcd166z6jTbfODi5OP9HX2In76iiOi6M4LHf0hAb6obaVoWmeR61cUAMXBWrL2/UHIV7/PNYx9MOC7v7Ti2MlqqCHOpUGe0U7EI7wjGD89EIsDpVYWtDclFeBeDBdJUo83hwkYhrg9+fUhts37W36HsRDuxAWlpdagyFCPNyj5+VTnmt4e+2jvKX+s+AAqb2gbh71ZxeQOvLBNXIgGYCVcy7arDNNsnxujG7fvtDdPt6CJ1ku3Va+LQrbJ9jGXfVM1edt8ed6MeICdSoN6uOk6bIBFpFOHdDm0JZ9lAvBRP029+KwaIBaQvV+nTjXyRea45E2owbOq4GLAvVWPuiU46GWA8adDO0wX+4i45rXtRe5Cbtw4NjYscOH8AhQb7dibXiVKys/pFmI0BZ4oR1Imn2zz9ug7EC091gaePrzl6p/Yn/r2mP98VZsjXhqtfOH7KehtyT+NxZrasfBauDA+W5crN+2tTfyP/CgSiBCWufcLihqH2LzwdC5jvFCmZxz0RaAq2Qa72FOWRfTu+mXBdfPO54AJjvslt0+faEwZrNfIDbdgWMV3w14Dh3dNPJa0JgEdfzvpHUXcVIrobc4BuOu/ba9Wx1qD3XtpV7d0fPYVyNMR+2cSQMXBmp/EMmbGE6TTnmarRe06Lw298v2tecuvOtzLll+5s12oAaoAWpgXA1gMST3jA7dLZEvl2kWgz6ID2oLw0tND/W4bTqoXc4EZyzj9bU5gVp1DuzYIXcSiTSkCgkhULOzRzSi9MTfqRFq4Po1oENXoiEa6u7HiEC92Yl9G0N9XOzFjuMKvazUwOQ1QKBWItVAvTjIV5zbk+GmDjlpwz6Cu43Y51//RML6sA2pAWrg1jWggVq+yOaXzkOE1sOzwd1GCu1neKVlqMdxcRD3m8JrqDmN6dh/qYFzaoBAbQ4+xo4dybhrB7bP2WDMiwMENXDLGsiJg+6O7Z2Ohq6gPsaOHTrO37Gx3L3Gge1eNgZQVwexX+3EnTk/8f/Jeyh7tTnbdTbtSqB2xXy3Fqt9JSpnxw75gGJohw92oFuGG9ad+j+3Bq4AQN0xNfn5SuoTfNj2f+oHFOttIpN1PLdGmB/HJWrgEhogUHMgnM3q8BIdiHly4KYGqAFqgBqgBqgBAjWBmkBNDVAD1AA1QA1QA9QANTBAAwTqAcbjipQrUmqAGqAGqAFqgBqgBqgBAjWBmitSaoAaoAaoAWqAGqAGqIEBGiBQDzAeV6RckVID1AA1QA1QA9QANUANEKgJ1FyRUgOOBjbiZbUQYpHxV63E09Z+3yyb81+vIwPrZiUe5DWXayO/jLyMPKxJa7MWL5dVc02UtarE69Valck6v7CdUR+xWIpvvLRr8Rp5WvVp6x4o20O1FC/XG6Puzbk6H9veD4m6IE3U1utl035u2WLfe/XTbYi8onpw80hca0h7MK1uE9qCtqAGpqcBAjUHf2+CZ0edXkc9b5tkQC5g0oBdgFcU8kYE6qerKg38I0Ae6iNB0qsTwNRbIGzFFvWEjZzjw8qGajOfMLRW4qXzcg+k8cqF8Qzlc+0Q+x7pAkfkFS6bu0C69b7D+p93rKK9ae/paIBAHZhAKNDpCJRtMY22AMC6MGi2D8ArCnkATRfyjD6Yk48JrA+uN3qzEd+sluIhkYdZ5tT/dX2q1gPuXC/+m/ZcyzLAe7/dynLpRYBpo7DdNuLpeiVeqzsFtpc8nMbQSgycY98bbeDapDOvRFr3WvxstBHtRmcONTArDRCoKehZCZoT9mkm7BzQ7QSvkYAaZbFDR8avd12faiVe1qEsJtA20Px63cKzAduwQaxsquzZnn0N6OY1kY8J5pb2Y+Ac+z4xDnbmlUhrlYnncaylBqiBGWvguoC6fYuh+Vrw6rAUq519C3XbvkK8une+dxpyc18Jea3lrp2M71bNGxL3MsZzI9bWGxMrUe3XYuNcQ00Yd+75CxEsW5t+vV+IxbESK/kac69elVi6dYrly+85QJ1BAwDBKXioURZhQKnqh6PZog17kXm0CwHAa5O/BOwWdlU5AL9+iIYuH87RgN4JrIBgI5Y7O40B+3UZcC33+4TdOvNKpNX1Hn/Bw2vTptQANTAlDVwPUO+W3uvALbA24dkC47jgLKiVk4JKtxTLgwTewF8N2841kS50/nEhQmCPvJf38Xop0OeERWi+sAYAsVMAajPkQ0L1N0588TgDrAHU2/b/GkLN/x2ghgdeAbYzTrRt6AKq+9krP6670KDemSYGzrHvE/rqzCuR1qsLz+VYRg1QAzPVwHUAtQGstpd4I9atl9nyNG/XYinh9rCKe5S3W9FA7VKs0bhGPvJ6Zl6b1uu9OBrn1+k2YlXDdyWW9xsrP5mmqiG79UQjH5V3C+yWl92oUwjejWtwsgoDy5zt8vRXD0L8QXT8PYiXH49rmxKgjj68hofzEt7RnHzq9l0vrd095A4a32zSd6TKdGEC9VYor3QNtwBbB6gzYdUFVPezX054tZHvVnSmiZUl9n1iXEFesXZNLbL8uoyrS16f9qQGqIGpaOAqgBqhGSFPrzQkfl8oAG0h1wTqFoi11xcgbACyAdR+XjjfgeOO8BKUzb1eA/M2tCtRoBxm+RMTnkrHc2a/8idQG5NHuzWdBXpyq7nA1nTlfcSB5RakXy+XQoea2NC9zYRVLBoQQgJgxWe/rARq3yaGDjjuzX7cY/tT79eggSsA6gjImoOoB6BIo2EZAKuhO+DF9q5jihjXtIEawBwMDzFCQGJArQHfzIv/X0PnuaUyAgJT3shOMETowhgearP/b+WOGEvxoHbEWIywy4cD1Aj7WCyEtkEL1IhtzgRq107uZ19X0wDqOPBzvPLbjDahTaiBW9PAFQG1hmO/kXw4Roxy/dBfGwKy3C+FDtlo0yivthFDHfQMh4FagboBzyG4JlBzcPF1ez02mTZQaztKsIbHehgAthBrwH9jAx12IR9cbl6A0z5giAVDMoYaafR1OoEa1wW4by8T8jHMnrqNrrkfsOxsR2qAGohp4IqA2vYMWxUKeJbhOa49wHVYxlKs2/Pq79r/LdANXEfnEwZqKx/La5YWHUCcHuq0nbT9eZ60xTWEfETBC2BoQKrbvjng7qZxPwNQtSe5j3Z8oHbz8YAau34Y4Oungbc5f5cP2ESHmhCofbv2aWOmoR2pAWpgPA1cAVDj4cHwbhlSDIBaC46NmOkaXmtPdAvF8n/jdyWoHkCN6+hQkrzGIVDn2Um1TcFiZc5pCNTduhkFqDPgXwO1722OwTzKlr2nNMrhvK1RQXZkcYJ8vHLAgx9JF+o7uFZ0ocS+yRhmaoAaoAbEhYH6G/H6t82OBQ+7l8ZbxZxJs4XfeueNe3Mv6Gbv5ybEwvFgKw/0qt7xA57gBr4rsap3BwmnCe8OEvZQb7GjSL0ryEqs5b7SGcIiUOfZKceWPOf0tgTAeYBmaL0TvACHCZjLy6cSr+UbEt1dPeq3JOJthBpye+kjo6whoFYPJspYa/dNictw2YJ2wxsfsTOKG0aC8tUx3bE3MmovuLLB2YF6J+6rozgujuKw3GWNjaqshrb43en7OG1MG1MDwzRwUaB2vW2vfx6vDLzQofhk+YIUALMWRBsjXcc2G/HX8EK738vBG78VxFDX+ant8QL7VofyMbbN88sdt4GuG8+hLc6rgTzQXdTxy1FPJiDQAmrEFDdpEf9sHR2YBIBa5wA822MK/LO0Eyyrb/OmLDa8w1bh8sldSOzrdNXnYbkKOhu+UYAesp2fT11vALVjL11Wuy4yTVf5TG+7Z9vNvTgsGqCWUL136u6dT4jmooMaoAauVAMXBertNtND3Rp3s1uJ5aF5uyHAutrHvMLwKC+EG44B77Dnie4L1LJ87dsOm32nXbA2gL6tC8pAoLbhghPsNO0BSEyBKsDLBUbVpkFILQdq6Rn+ZrUUryt4fFugrCoh4XOUF70APC3499smBNSyvk/XK6d88bLBbhpqF0KouqT31nZ3N5HXaPbk9statwPqdS6g3m7F3epQe6hrL/XqjrBwpbCg+jHLTw1TA0ENXBioI4M+GyvYWBzQqBdqgBq4Og0YXmp6qKnfq9MveYQ8kqkBAnWmoTgIcCKgBqgBaqBQA5ud2Lcx1MfFXuw43hJOqAFqYKYaIFDPtGE58RdO/NQBB3lqYDwNGF5pGepxXBzE/YZ9kuMyNUANzFcDBGpOouNNorQlbTk5DWDf59CDe5HvOuKmOSFmTIgA6uog9quduJucLjLqwDJzPKMGqIECDRCoC4zFiZSTEDVwbRogUFOz16ZZlpeapQauUQMEagI1V6DUADVADVAD1AA1QA1QAwM0QKAeYLxrXEGxzFz5UwPUADVADVAD1AA1MK4GCNQEaq5IqQFqgBqgBqgBaoAaoAYGaIBAPcB4XN2Nu7qjPWlPaoAaoAaoAWqAGrhGDQwH6vVevwWr2osdt0biCo+LFGqAGqAGqAFqgBqgBm5IA6MCNfcb5aryGleVLDN1Sw1QA9QANUANUANDNDAcqNXq407slnID/6M4LndclSm7UKBDBMq01A81QA1QA9QANUANTF0DIwK1bOyd2Eugru65kT+BmosqaoAaoAaoAWqAGqAGbkIDBGoK/SaEPvWVLctH7ws1QA1QA9QANXC9GrgwUN+J++WhDhM5rO4IdoR7aoAaoAaoAWqAGqAGqIGr08BlgXpzLw4yRKT+24sdBXR1AuJq+npX02w7th01QA1QA9QANTCOBkYG6jtxX0lAzoVjeqgp5HGETDvSjtQANUANUAPUADVwKQ2MDNRbtdPHYbXjg4n0uNPjTg1QA9QANUANUAPUwOw1MDpQ1zt91F5qhnJcapXEfLlCpwaoAWqAGqAGqAFq4HwaIFBz1Tj7VSMHlPMNKLQ1bU0NUAPUADVwixoYHajxchfu2sEOdYsdinWm7qkBaoAaoAaogdvTwMhAXfpQ4u0ZnJ2MbU4NUAPUADVADVAD1MC8NDAyUJe+KVG+rrzZh5pvV5yXsDhQsD2pAWqAGqAGqAFq4FY0cGGgbgG83YuaYSLseLfS8VhPap0aoAaoAWqAGpiPBi4M1FuxXe/bF7scxXG54wNyfEiSGqAGqAFqgBqgBqgBauCqNHB5oN5qLzU91PNZqXHVzbakBqgBaoAaoAaogVvRwGWBeiPflIj9qg/ifkPh3YrwWE9qnRqgBqgBaoAaoAbmooERgVo+YNjCcWfohvZKH+v46YPYr++uyrU/FwGwHhzMqAFqgBqgBqgBaoAaGKaBKFB/8sknwvyLGtqMgW4fLtyvuwoFoD6Iw/Je7OiZ5mKCsWLUADVADVAD1AA1QA1cqQaCQB2F51AlDaA+VHuGbYRsxO84QFAD1AA1QA1QA9QANTBbDQwHaopjtuIoWlhRB9QBNUANUAPUADVADdyoBgjUN9rwhOWusCT+To1QA9QANUANUAPUQJ4GCNQEaq6mqQFqgBqgBqgBaoAaoAYGaIBAPcB4XLXlrdpoJ9qJGqAGqAFqgBqgBuasAQI1gZorUmqAGqAGqAFqgBqgBqiBARogUA8w3pxXWqwbPQnUADVADVAD1AA1QA3kaYBATaDmipQaoAaoAWqAGqAGqAFqYIAG/h+aZWvLMmt3pgAAAABJRU5ErkJggg==;" parent="x74ONLKLbEEUaDy3nGKP-32" vertex="1">
          <mxGeometry y="26" width="239.2" height="104" as="geometry" />
        </mxCell>
        <mxCell id="x74ONLKLbEEUaDy3nGKP-39" value="i2c设备驱动" style="swimlane;fontStyle=3;align=center;verticalAlign=top;childLayout=stackLayout;horizontal=1;startSize=26;horizontalStack=0;resizeParent=1;resizeLast=0;collapsible=1;marginBottom=0;rounded=0;shadow=0;strokeWidth=1;fillColor=#d5e8d4;strokeColor=#82b366;" parent="WIyWlLk6GJQsqaUBKTNV-1" vertex="1">
          <mxGeometry x="527" y="509" width="265.78" height="130" as="geometry">
            <mxRectangle x="220" y="120" width="160" height="26" as="alternateBounds" />
          </mxGeometry>
        </mxCell>
        <mxCell id="x74ONLKLbEEUaDy3nGKP-40" value="" style="line;html=1;strokeWidth=1;align=left;verticalAlign=middle;spacingTop=-1;spacingLeft=3;spacingRight=3;rotatable=0;labelPosition=right;points=[];portConstraint=eastwest;" parent="x74ONLKLbEEUaDy3nGKP-39" vertex="1">
          <mxGeometry y="26" width="265.78" as="geometry" />
        </mxCell>
        <mxCell id="x74ONLKLbEEUaDy3nGKP-42" value="" style="shape=image;verticalLabelPosition=bottom;labelBackgroundColor=default;verticalAlign=top;aspect=fixed;imageAspect=0;image=data:image/png,iVBORw0KGgoAAAANSUhEUgAAAvgAAAFmCAYAAAAYpu5NAAAgAElEQVR4Aex9P6skx9X+RGIwHpAYwyAGs7MLyy4sBqFMgbWBbiCk+wYGJz9tOGAEXhBYKyVOdOGFN9MKZ/sGA8bBRutIyeALiz+AMk96P4BSfYD6vfXnVNf/rqrununpeYJLz53pqjp1zlOnnjp9qnq22WwY/qADYAAYAAaAAWAAGAAGgAFgYBoYmMGQ0zAk7Ag7AgPAADAADAADwAAwAAxwDIDg4wkGnuAAA8AAMAAMAAPAADAADEwIAyD4EzImVu1YtQMDwAAwAAwAA8AAMAAMgOCD4GPFDgxIDHz8HntzvWKfJvTx/HrBvv94DcwkdISJFRMrMAAMAAPAwKkxAIKPiRpkbVIYWLPnmQT8048dMv/xgv38zTvsjS6/Yt9/8R57/gE56jX7/suZcw/9huupnTnaBwaBAWAAGAAGCAMg+JMidwA2Afusrx+8x958saj6+0kQ8Bl783EGFj54j/30zTvseyLwguAv2HMaEy7hF/fP2E/XiOCfNb7IvrgiuAEMAAPAwGQxUEfw1UT/8xertGIUQdAEAkBK66tEP2SDL99LplSMj4g0UWDgIoOE52LiAx5tf4f9/M2M/fTFe9lpNM+/kBF5YQuL4K/Ymy8N8r/ZsE+vef3GAiBXti73dfUhNE7afFUXGVG2P78GXUKXwAAwAAz0goEqgm+RgpQhxOR6ZEKQkkf8JonQT0XEuKZMj+Qt1CciLkX9GFimkJzed2Mh+CO0qaerPHt9+vFCROJ5ak0qfz642DPHqEHwn3+xaCL7Si4x7o9NlE35KvST7asq6g7qE/X0MjFBt3ljH3qCnoABYCCGgQqCv2JvvpmxnyPEkkf53tAjfGtyXrPnX/D83hMbo4YY15QZeqIfo0xZfR4JwT9b/cnx8+kHK8b/RCqPzpnPH1uffrBm3h8RfP0bT+GhlBw+7mV+vlfuA2XTL/tZzPfnQ9K+KuYU8X0+jqAr6AoYAAaAgXFioJjgy8f0sRxfSeJ5msDPfLL/mBMEuqrNeUT+s8jgAEqrIXY1ZYbu3xhlyuozCH6ZM1yz7wMn2wQj0yJ3vyVtTtno02uexrNiz+lPpN+odB36zryK9J937DIfr9SmW36yDtXVNT+/Px+S9lUD+JYs/KPdMvxDX9AXMAAMAAM1GCgk+Coi1pqHKydpHv0TZJ9H/gIkpUbgzmVqiHFNmaEn+zHKlNVnEPw2DEtiapxmo/LQm9NtNsxLl+HRfDHe3pGbYDnZ54vsD3IItyz705c8x/4d9tOXC/bm2j89h6e16Q24ytZCjsjTvLZ+pn/v6kNIH/08VUjLiskH+gEGgAFgABgYFwbKCL4gGvTIPtWRNePnZVsEvyY/OEkY1+xTfm63ICW0kJgJcuKd063klouN5l7vf5Oo1JTR8hbIpssofXKi5vbJOqqQ7pPpEzJVytf3T70uqGr745I0GSGmRZ+/ybawHVrkiLxwv62fvggdA5mwPy1ITRyY9vkg0MaX8XPhrSi7sQmW+m8SdtMxSoJvE1M3Gm0RfKUHq7+h78y+0Ge1MBAn4wjM83ZlP7mcIqWO5/hzHX/8npOXrxZrg+Tl+5gu2mOQ7atSfgy/mbjEZ+ABGAAGgIHzwUABwc+JvBoEaOAUHSI8HklXJM06yq+GrNeUUaSpSDYiWvqUkggBdUkUkVsebVVHI3q6cMsYbZUM0qr+kHxEmr2rfUILl6e4HWqDHymZo4MONt1QW14/pL0svCk9E8F/Yy12bfuG9qRIPdgEf7NRUXaV4qYJPiffIlLvOB0lb6h+bXt+j3lSjtBP0y7fM8P79f0X6ruPeWTffCJgy6TrrcSZLN+HD8nxVY6+OsmMuvqxPfQIPQIDwAAw0BcG8gk+EZwW0ig20hIJEGWIMMiJO0k4CibZTzlpEpFtk3BsGD9RRBJdatcBC/UjFqUNyVBYpko2LTc/5tCOPIsnFddObjXJRAsao0yrDkJ9THxX3h8iWKovdM46b0M8oeAkN0TwC22a1IF6whFoRwweKpuFA+qP3EBunlQjT7AJ90cSfEXorUg/j07LIy1DR82GCf5GbIqlga8XD9ENtpJ8x8Ybt+kbAzOiXhGpd45d5aSeNsZznZnjX+lQ/57AEMmdc+3sQ8i2pqw9yZYjP+5xfC50j5OFgAFgABg4OgayCT4RCj+tIuHMnYjgcSY+ImOnI/jxfsZko+9z0p+UvonE6FNOTDtQfT6Jjstmls/9TO04uqbFSpBgUZkS2aiM046hg1C6Cz0RCEXXdUQ+h+Cr/gTrMZ48uL8TwXcXbMIGJHug/RjBl+X48Z48aj9jP/OjLPnTiyDJjxN88QZbc9ElHK+Kxruk33LKPH3MsIHQS4kdc3Fl3FfhQ6p8ldVPo318f/RJqV8fBVtCn8AAMHCZGMgk+HLyjx2NGQXPwAQglIPfpKkYRMScpBPEKtqPijJlsin9tm5eNkCalIkIcX/kq6Q/RGzDkd20bCXttJJ0RcxDUfLWsgZmaKHQYMtOs6HvYwQ/rAfDlkZbHINBgq9y+GmxIHQsFlCUL29syhX1xQl+EOdKV6asPMrvLuh5dJ2+EzIEFijB+p0+Zt9T7EMqfVWtfCiHBQAwAAwAA8DACDGQRfCJ4JiTf/YEPVCniUQSufKvpyP4xbIlyXqECCbLpEl0qe1K+0P3h/ESl43K+bYkQu3YNKmDDdv0RPDb5ZLy9U/wadOxOnbWiLoLmYwnJDRGm0V4iuDzvPp35Bn6/AkAfyLAU734fg71/xuefy++M0/TUYsP0a6s3+1zKbb6vp/0EMZeZCwN5KP67hvqg/2AAWAAGAAGcjGQQfCJkDnk6pSTIhE7ccqHnYO/2bTIS2VLIo8lZejeItlU1HGMEfyK/hAhDpMssk8TCRZgrWinNQrfE8GvJY1pPcSdlGyPvz9CEu/QiUguwec6JDkl6U4RfKdtoSdnfIe+E2Oe1/sO+/6a73VxbHhKnyDaJmw5fTm5XI6+IQ+ifcAAMAAMAAMDY6Cd4CuSNKZIHRGZJlppTqA8T5hHVCOTPBHJgQh+nWxETGIvEDP7pz4n+0H1dSdgNf2hMiHM0G8uOdTfB+0SsWlSB+qseDrq0R1ILWWtFXJqoeDWa/zfmeAbdVnybALn4Kt7xQZVsSk2l+CH7pPfhezH5aB+BVOfEjK7fej9/xH6qt77eEr9om0QEmAAGAAGzgYDLQS/P6LY60RHhMuKIPJ0BvPs/QjBV8cN8jSQUGQ0LKckPFllKmXTBJe/FMx5Z4DIS4+dohMkxD3araY/RJ65fWgDaOAceMrlFjrv0o57TOQHMgVFpvr0gQPD/qF3EkQcHhHh8JOMwKJN1SOx4Motz4XnKTTfX/P3P/BNts7JSpYcIeIebvPTD1bsOa+Tp+V8yf94uo5zmo6um7BVsCFclw23Hx5zpfeSXN0Xtf3IUyo/7ofegQFgABgABvrDQJrgE1FLEon+hMk3bEO4/HxtRVBiEXwzAumeaR4lNUbUsrVMrWxEUCjf3Lm6NiDbBGWmuvogO3X9IXLr2eeLlYoAu7JVtEM6cG2i/3fbsLEalTGkU2vx6NhGtOcS8gYz/RB8JbtxzGi6XqnP9D22PnjKE184/GS8V4AfRdscC6pwJd5xodKHkqfuOPUPSfQJC+44GbJN1H02kaz8ueWImAV+gB9gABgYEANJgi8JUJokncxxem98fUeeH/8BESufcDWyqrdkilQeg6yFiJ1WfkGZDrKJpxDWm2x5v+yNjqIfRGiCMvdJ8OnsenVuuyCzObo2XlikytBxjlFcleqNdKAJPdlSyadtF5u0C2zK66KTbLz2eLs+3mgBUUSydS69X5/G7wdrg3TH+lZC8NVJPNZZ/fydEpLwC/mJ/JtvSNaLHvcEn5hMw30fxVQrBoaTSdsLMmASBwaAAWAAGDgyBhIEX0VUgwQSkyIm7xFggAj+pDDaLM6aE23M021yP8tTcJKLC1qw8DfVfuBuVif7qoVaaJHJnRXZgBZ+5gLgaM4Mvgr+iPCKK7AADAADwADHQJTgU054kiAcbQKHsTBgAxggcjkpgs/7mROhD+jDGo98YzLfA+HfxyPzPI//Oe2PsMrR/ZTzH3h65N3P7zVTeaiO41zhq46jZ/gg6BkYAAaAgfPBQJTgw4jnY8SLtdVkCf7psfdpNKJ/etkuFu/ewgq2ABaAAWAAGAAGwhgAwb+ISVOlMARzxylv3bmew2ZFEHzkNF7E+A07b0xq0AswAAwAA8BADAMg+BdBEEDwYwMA38M5AgPAADAADAADwMDUMACCfxEEHwN3agMX/QGmgQFgABgABoABYCCGARB8EHykeQADwMAAGLh37x7DX7kOYpMVvgeRAQaAAWAgHwMg+ANM7ABgPgChK+hqqhgAuS8n91xnU8UD+gVfBwwAA8fEAAg+CD4mVGAAGOiEgTV7dbtgr67tyQsEHwT/mJM52rLHH/QBfQgMXC/Z3d2SXXfy8eepy4sl+KubOZsdZmy+W7L1yAw/ZtngNM9zoMNujt2efsvmb9+y2etvO4//F7czxtiM3b2yXxYGgn9agg8/6mB+s2bL/YzNDnO2vHJ/w/+dfeQnt4x9d8defXhMXT5ly9dv2ezta7Z8esx2z6ct8s/sdnVxgayBCP6KLXdzNt8PTZ5r21mxxYE7ujE6u2PIVqu3YwzqZ2z58jWblxCvp8/Y4vVrNuOETfy9ZvOXz7KJ2/rbpuz826cX5wTKJrYK+2xqygyMtZ4I/vWruSD3ocmjO8F/wF49eszuHj9kn08inz+vP2V4jOGk0I9erdhiL4M+NC/Md6tsH9KPzLG+9PX9WAj+mOefDrr+8BW7++6WvThqwHAsBH+EPt6wA5F8NwhzHuO2HpPDEPyrJZtz8jw0we/QzpijO4PL1kFvgw+IUuL17KWMxGpyTyQ/MzpL7anyIPgtzoT0VbQA6y9a3hv+avphTBhCDv7ol/Ho/SI4qXcm+PcfsrsnTxibCsHP7E9fNs72o9uFnK900IeCP0eYw1xMDfr/SAj+mOefQv1f//GO3f7xWgaFLIJ/zV5s79jtJy3+tLA9f2yMhOD34U876yKl6xW7Fb567qVS+jpN1XNev10swZ+yUVv7NmYHW+QonrGFitgvnjWR97VB+hfPUgOycY6LlzKKD4Kf0teGbYrso+qqKTOos6/shyXTmr26k6k5ty/COgPBd1J0jkzwW/2gsCdF+udssW1SrNYG6V9sw/bNq39MZUHw+7WZJPHsO8bYX27Zi09UBF9c/+/B3ncG+bd8R5+YaOawk6bojNHHuzp/sZBPWy8oHx8E3wXBJfw/GYK/YZtnL1mIxK9eqkj+y2fRlBudmsPTeVSaDgh+y+RT48hrygw9DrvKlDFZgOCfA8HfsM12wUIkfrVTkfzdVHJ3QfD7JfjkKyXRv+NEX/xxYv/iSJs6QfDzbdoelMmvi2w/7ms7wb9S+XLm48u9He0QStkuVE678XjTLEOfg2k7a7beLp0cyBmb7xdsaURVurajHTbJwq+5ztvL0ZQbdFc9bVYqlo1IupB/zVZ8z4Pu15x5+aOd7FMD4qds/exbJzf+LZu/fsmWRrRd2PTZSyN/3kixcdNuCtJCiLDPogSfov8v2WqzySf4Xr7/WzZ/+S1bORuc9AIjKDO1/ZaZC4qaMvUOaWD7dLJpgWzuQiDTPvaTiKds9a2Z6vWazb9N7+GgnM5Y9J7bxSL491X+OU+5ob/Hj9ntg/v2fQ8eNb/TfaFrIG3n60e87sfs1f177J5qT7f1JNBWMqJ+n716bNQX2gNw/wG7ffzYkvfu0UP2NW+f7q/oTz2mN6zYj7r4Mf5fq4MYknPEwPPCZlMwNxqy83L2nCD3m9H+An+TbWE7yfmHz43O/oWu88+V358gP1A6kDhQm4kVh5F9l3own9Z0wZsse81e/PGWWQT/k+sEwa/1b0/Ziu9Ps+ZF2j8W2mRb2A4FPcSc6bfl7Wvr5OP5U9RAGyF+QDYVQTvVz6cy59/cd2c+xY/alAIzF7LhNk3waRBr4miTdyvq0WEAa0caaWd+0zw65dGWZqDa8ljfBxYStc4/KV/uAsFyvj5hLpaNbLNbsIU4GSGgC1O2DnqLDpZEnzTBtpxRQ95NYsuj8M1Abe7xvguSZV+XXF7dfoTgE5mm6D/db8nl9I/u8eTiffTaociK/xu13U+ZcP/bbJbsy1t74VFlnw42LZLNsFGynGsfmsxev2QLcQpFAHduGd0W5XOGc+9J95rkEpEOEfUnT9jtg26EmNohgn/78JHM3Q+0Z7VFcgUWC/fupQn+5w9tYt8sJJ4w9ujBRRD8Y8wLyTb4KXDm3Ej4pLkhMp+GTtEpbofaOMb8Q21F+hPSARH8xU18f4XFX0h3RVcjcl+QopP0U67vJXnIX0Xm09ApOsXtUBsvM31iBx+vAyyR/oTmYTlvvmYLKxhj+22az8kH+9c83+2Xq5tnT11PkuAT6Vw4TmStVsTRAUIDMkCyQx1e80G4W7LVlUHkOUnTpHQhoqxe2cJ2rPJUt0mCaTCZV7pPHKlpRyXEU4ebAR7fUpsp2ajvyumZEZNB9WbqJvF5zQehiGw3ufFc/zw/XhJkGTm3bMLrIydTQOa9OjYUIQ9FNWRaj5DBIHDkDEOORdSv5eYRezu6K55UfBtKBSI53jZpRLqeSP+17CVlyp3PUe1TaNMq2bReM+1DMqkJxrRpK0Zpc21LFMgm3k/Y7UM7Wv+5irJbpJsi3/yaJODGokCVkQRfPSF4/Ii90k8H7rOviZCb5DtZf4LgG1H5u0cPrBN+Pn/wkN0+NAh+RX/88VyOb1FHjh+N+rAmN9+Pdsu0Hgoomb6Xt9vnvFA+N1Iajoqim0+YxdMGGcF2+1TcTnL+UYdsxI7jpLJZ/ID6M2ech5hHWjf7JPxjP4m7CBtZmQBrRpuvk09moriwsSg20hZusi33b02wSPgp82mxeGLJSa4/1xW3k/SJ6qCEQDtirFHZrHmb+sPJ+lPbpnr/nN8fHRjjPtuK9PMnsOpJhjGnh/0IpelcxmbbBMGngTWzNh+FlWaDflM0gJ2y1sAiGU5F8Kn9SKTEkjXVj8LfciYm0nEwikNy+45P2I/KZjnYQtlbdUKDO0JwixxFWDbtCIKDnUi33X6a4JPMTmS7ta/GguXtS7bizlgQSt95WeOKdFBSJkeWrHuor7Z+tHwkW5YjV/apKROUNSYbfV9gH5IpGDGj+iJ2ynzMKwk+EWUeqbcJPi0AotckAY8TfJd0i/pDdYW+04Sc5FYpP973T9ids2CJ9oPKJttr+qOxFsRAeMwHy+T40UgbmiAGgyzkX488L1iykgzO3JjsM5WJzAtW/aRnKuO0Q3PIIcwP6IlAKLpexA9Uf4L18MUUvc/GCUKS/dzFl8AJyd73/CfOwe9yTCb5Hcf3UvAiOJ9RmYivCtqUyjjtGD4xlO6SnCOpbM68oPoTC6bF2qF53QzG6HFf0H5OeqWuN6g/GhvjvyYIvh2lmPFV8I0dwY4qoWIAhXLwKUIyOzjOhZRe0Y6WOekIyXAUxYm0T3L0fc2RLdl3csoRR54sS33vfg3l4DfpLY5zIR0WDFRtSyrLHT6t5COOhn53H+XR92GnQ8Q8IrPRflImihZnnLVP8pC+wnJ1s9HR7FNh0zLZKuyTlIkmwPCkSWfft52prAmvEfFmPLL+0I566/uICNM1kxBTeYrgR58IUL10TdYfI/gP2K1I/XnEvqZ6cq/J9sZD8Ik0xo95Pu68UDI3ErENP11Pzwsl7bSS9NQcVjD/aFtE0nOII7gLgLQeuvnNkI8X3xW86KrEvxGxdecsKUfaV5W00/r0PLXQSPpTW9/u3EZznHt157y0Huw2ojbabFiu/07VcS6/zX7/+98z/hcVOLCJaBbaZGuSnIIBzNulwUiD1b9GCHZhO1YfUw6I+tKlfqqj5tpZtrQjb3XONTI7ZWgwuoO2+T9ClgschWVPk9zzyLcjj7g3UTc5HdeptJVzZQj/T05YPloMyubJW1Mm38kd1T4JvYf0VSxbYf3tNiXd90TwOQEObEhloU22JlnOJMRHJfiFMpFs4ppZNoSJqu9y/Kgz7hpCGZlz+P1HnBdK50a6v5TgUzl/7qW9XY4+2nSQ0n1bWcMm7XJJ+UZB8A25U3gt9W90fynBp3LNnGvnq8/cebLNj/ZE8NvlknK6czGVC+shf+67KIKfAqL7G1/h8zfUkhPgj7/ce8T/BQNYO8vgoz4iqo5zoYFU0g6VoWvKAdE9m+NGarQuc2RL9p30dqIIPjmKtzyP3M7B32yIPJWTcK0fbZ9mUBNB95yWcW9zj+voQv+b8lVEiEPt0tt2g49am77wfmpZC8qk9GP9dmz7UHuRpyrdZauwT1ImwmiY4G+KUnSayDSRXZ6nzt9QSxtTeUoN/WZdMwkxlUEE3x5D+kCG2DxljFEx5ujUnNgTY33/keYF8vEFcyMR4iKCX9GOnrdjaS6pOYzai5XVem5ScML9cextlEvrIV7O8kVGfb19T36nYG5ME9uIr6po59gR/FKintZDvk2RotMGbBqgMUdIvxcM4PDjUP76cL5CPxXBJ6LM8wzzAdTZGaScI9kmqWOS+zQEvyGn31obaKRenqlTS0wCbeiWHFMOGVS60O25EQnSlXdfiNC735nykRM1Nr46dUdtTlEP0Z+mHjc6YZWvKZMrj7V4OI59WicOQ3Zty6D9Y9hp9Jo9aSRxRvVFCD5tsm15YQoR7+iVCPyTSLoL/R485cZfOFQT/ED7n+u0ongOfnYqED2VyOyPNRYMbBR/n+NHVf1ZkXstC/nXYecFLVNwHg3PjVTGjWhz3dFv7ik6+vuCdtoIfpJgJ+cuYy7g+i6woYmPZPvajk5bR/i+xr9RmdCcQb+5m2z19yV+NOkTNyxJsFvKmrbRp7JlBLrMcsn2C2wnCf7Fb7LlDoTvXF+xtbkTnzuKLe2SjxBvHfnmm5Ba8vZpAFs77vmZvObxVj204wKA2m2J7mjnd5Bn/9u7+JdCPyYIe/mcI1vSSdIEFCH4JfZx9ZbzPxFUa8c9P5PXPGvcJNCmo6VoLN8waZ9WE9ItPxdYPoKM1WfWHf9MDjHkRHm79Dt3pPyphIUDft5/6BQdcnqWHpr+BcloTZkcm5j3HNE+0mZNn1ttWilbsX1Iz8EJsIXgb/KOWpPEXp4Vz0+W+dw8H/7ePcYj+XfJfHbKd+cbWtvz9osJ/j2zftoAbJy4I2RzCf491hyRKc/W/5wIvOpT9BQdq714f0LjvOq7HD8qUkTpqXRsnvH9xlHmBZK/ZG6keYGXoXfIBM6Bt07R6dLOfsGsd8FcrY2n/DF90hOQDH5gzlXipD3fFiFsjJXga3JrzQktcyP5Kl6GnogHzoG33mRb40epndf8QAhDz0+fsmXrPFvg442T4kLvkAnZk3/XD8HP890xGc7t+8Qm22YQUkqOe01FtWmAuWX8SH2qnTmbpyL4qfx9LxqRaieSZyhIEZFluse5tiwQ8gBRIRs5cq+ffGCSzDGCn9j3EKzPGOwmUYx+bga7n//3ms3FueNxQk4D2SvrkjFySGrzqnd/xabWGMFvUovcSL/634tGNDrw6gw6X67jmjKltrHb8XXWo30MfGTb1NBBmWxEyjPtQ9hxMSVkproiEfzNhuU85tUEP3AePaXn8GsqEk6k3bxffA5E9eneVH3u04SGrBsv4FKLjtvoi65oA65bRv0fSzm6d4+RjKn+5PnMEO47+NHCTZyNj3XmA6pn8HkhPjdG597dSu13c+eFlN4i7dD8Q/31rm4btr2iMobmHyvYF9K3v5Cg+lMcpR5ndl/K6ml8fIl/i/rPl88U8XV9VUU75BOj86nbhq2HqIwhH2sF+0I+2+cHVH8wMGbMNUl7ZKZXJuvIbWsE9yUIPt9MFHiL7YG/JZWfWW8b11cIP292oQi6MShDA9jbyKvexHpFRNQfwE17ue2knBjJF29HPFHYU6SH35+rhzY98d8rZCMHG9JnBsEXbzrMtU8NUL03ir6W58c/pZW4P4Abm6o3i7ovIHIdRatDko7DI9iB/lAEuO1e8RSC8uKFI+T9ct9kSwTRf8kV9ZGc1Uz3qaZMDrYi9xzDPpaeM23Ky3SQLc8+xvGlWv+mnsgWiQmNJopEmo4m06G32D55zLy3vhqRcF32Ho+oP2J3gmwbhLongs9faMXPyJdPEnj9XC4ZXZdk3I/gk2w8jefOepNtTp/a+0NjpPzawY96BJXmBHkNpbxw+YadF+QczJ+kN4GynLnRfetr8+Z5SXwD5Lt0Dqb5x9Obks8a++bYos+587a6P8hFyEb+vD1egl/r39y3vsonyRyDci4J+KpSPxqdT9Xc3WrTAh+v/Dx/MmC/mZfIvs8PaM6sJ/h0Bv6Mpd5AXu53CNPju6YJfqtBx9ehKRkHfQG+gIGxYqB9siAijKu/XyClE2B+rJg35CKCHwwwGfeBQ4QPIhmjXojgB4MeE7BpRlBmar4HBH+MAw0ynY9ThK0u11a02ZYt2IsADlIkFr/FSf/UJtlJ9gcEf3p+b9IEn3LvL2NzLfkcEPzAxEzKwXUCq3bYd3oT0YhsSmcqs1v/yGCQ+DiJT+kGfvcM/C4I/vT86oQJPu2Zans54dR8Dwj+iMjC1MCF/gw5Uac2UVEeo3P1NgIPKd/l1K0nD4fkp0gsfouT/2n5jZx9AZRLrq69bNAdePyB4IPgnwl3enE7Z4zNWCgIMy1f4495EPwzAenUgYj++YMzrRMQ/LR+SvXZ5X6ej+8/+gWJj5P4lG7GY9cumKCyIPjTsifZdYLXqUbwr5fs9nbFri+Q64HgX6DR4XAn6JyB49FF1FIkFr/FyT/8E/wTMAAMAAPdMQCCD2I0OmKEgd19YEOH0CEwAAwAA8AAMHC5GADBB8EHwQcGgAFgABgABoABYAAYmBAGQI7WrFYAACAASURBVPAnZEys1C93pQ7bw/bAADAADAADwAAwQBgoI/jrLdvN9+wwO4i/3QqKJEXiCiwAA8AAMAAMAAPAADAADIwBA/kEf33D9orYg+ADvGMAL2QADoEBYAAYAAaAAWAAGPAxkE3wtwsZtT/Mb9h27VcE5UInwAAwAAwAA8AAMAAMAAPAwOkxkEnwr9jNnBP8PbsBuccmFOxbAAaAAWAAGAAGgAFgABgYLQYKCf6ObWHM0RoTK+bTr5hhA9gAGAAGgAFgABgABk6NARB8LFiwYAEGgAFgABgABoABYAAYmBAGQPAnZMxTrxbRPiIWwAAwAAwAA8AAMAAMnB4DIPgg+FixAwPAADAADAADwAAwAAxMCANZBP9qtZNn3y+2MP6EjI8V9ulX2LABbAAMAAPAADAADAADfWMgQfC3bGeeez/HBtu+lY/6MKCBAWAAGAAGgAFgABgABvrGQBnBxxGZeIKBJxjAADAADAADwAAwAAwAA6PGQILg02rqim2Xe6ToAMijBnLfK1/UR+MfV2ABGAAGgAFgABg4NwxkEHxuVHrRFdJ0zs3AkBdOCRgABoABYAAYAAaAgcvCAAg+IvOIzAMDwAAwAAwAA8AAMAAMTAgDIPgTMiZW55e1Ooe9YW9gABgABoABYAAYCGEABB8EHyt2YAAYAAaAAWAAGAAGgIEJYQAEf0LGDK3g8B1W9sAAMAAMAAPAADAADFwWBgoJ/p7d4KhMrHCxKAIGgAFgABgABoABYAAYGC0GMgn+hm0XB3lU5vyGbUHyR2tQrNAva4UOe8PewAAwAAwAA8AAMOBiIJvgb9Y3bG++2XZ2YLsVFOoqFP8DE8AAMAAMAAPAADAADAADp8RAPsHnj2HWW7abq5degeAjio9Hc8AAMAAMAAPAADAADAADo8NAGcGHAUdnwFOuDtE2ohPAADAADAADwAAwAAyMDwMXQfDv3bvH8FeuAwzY8Q1Y2AQ2AQaAAWAAGAAGgIE2DIDgg/xHFz9t4MHvcDDAADAADAADwAAwAAyMDwMg+CD4IPhIPeuQerZmr24X7NX1+JwbJhzYBBgABoABYGC0GLhesru7JbseiIOA4IPgD07wVzdzNjvM2Hy3ZOuBgDzaATx0f6+WbH6Ysdn+NLp9cTtjjM3Y3at1h0VC7gR0xZb7A5sd9mx5lVsG9w0xNq4/ecVu//J/pv9O/f3llr368Fi6/i37038W7B+/vMv+9FlumzVlcuvuet+YZevaN5QfYvydR51rttzP2Owwh7+O8ACaP9ntapD5EwR/MIL/gL169JjdPX7IPh+sjfK8+pK9CP04kRVbcAIq/jIG+tWKLfZyQUBl5rsVFgYRB7E5IcG/fjUX5H4o5+TjbywEf8uWuz2b728uE5ef3DbEngi+uN4dieTXEOKaMscip0PI9j7704/vsh/+s2IfxXzH5L9fseVuzuYlwY+O889aBbNEQOvmGEGPY2G0pp0hCH6FTY+G8zrZiOQPESQDwR+KfN9/yO6ePGHs4gn+hmVH8LcLGY3WCwJaGJwuQu2TzBpHN2CZUxF8/miR8ej9gr04mgMdCcG/umHzw4HNLpLgX7NXKnJ/98drFXW6Zq+2KpK/fTFIJMoehzWEuKbMgOPWGjMDyPbZiv3wy4L945IJfqlv7Dr/UHtq/pqD4PcfwScdlyzarLE24Jiulm3FbsVcOu891RUEHwR/8BQde3KODTCK9M/ZYttEPtaG011sY2Uv+Ptqp9JFZ2v26k6m5ty+6FJPaVkQ/LyxVKrXkvtfsFsRrb+1F3YU1QfBr1jggOAPgusi39h1/mmi1YudSkkFwQfBz11cvFjIp+E95+OD4IPgj4Tgb9hmu2AhEr/aqUj+bpg8tUEml9yB3fW+okmshMgl7h3IGbXbAQS/XUcJu3XFmigfJvjXf7wTaTtNVH9IOWoIcU2ZIftg1j2AbIjgs+L0xQ7zj07N4emktOcMBB8EP9vnDhM0uyiC//WjJ4w9ecxe3b/H7t2XOfKMp9GIv8fs9sH9MNm9f599zfPp9b1P2N3jR+yVe/+DR6ouqjNyddN2kuk899mrx4bcxoKkuD/UzqMH7N49t0+P2d2jB9Z+gS5kQpNyM92mkqCTw5ylynu5k3JT76qPzZhEokX7a7bieZ1Gv2J7BKQO1L6DK5mfJ/cVyI1H5pMKS9fevTM23y/Y0niyoe8n2cQjyzVb3dhpTjHZRPmrQF9i7RiOinIG86L3V2y9vWGL/Z7NeFqL+pvvd2y5vUpEO6/Yiue5G2X45lpZPrTJtrAdSrPZbdlm47c1323t/PrtTstOfQheY2k7V4E2EjpY7YzNxFcy579pb88WSd2Z5LH/zy9UOo4k89fshSL37Dsnqm9gZrP5LfvoqxX763/eZf/45df674f//Ib96avfJnDwW/YHnkvO0010Oaojtsm2rMwffjQ27H4mc9fNtv6alK9Uv2WyFentq98YOmp03PRFfRdM26m1T2n/a+5fs/V26ezNivjE7ULt9zLSOw1frf1vQYpH+/xD0f8FW202+QQ/c87Sc2lQZmp7xsyUoJoyek6xxm2uvfy5hG+upX10wUMRcuefrjbNbcftd459uspmtkmBs6wNt1fsZrFnh9mB7ZfxefQiCf7tw0cWWW9I/hN2+8DZuEqk2CD35v13D41FwYkIfnZ/qC+PHrFbsWgILEAE+Zc66DLgtYMxnWuKoJtAdz63OVj9u9kWfa5s0+o7kejdgi3EqQCBySPQDhH8hUO69SRzmPlPLIyUJPM++mw6cUnS6RSdMtl0dIv05Fy9drRNKF8wL/d+fUOkvCH3DVE9sPlNwDkR+bbIvVneJ/jF7VAbux1biJN5zPrVZ0H+1QTXheBTW5H+hHRABH9xs3MWOY2coaddFm61zXIn6cz7PnzF7qzNtYzdbV8lj3r76G9EysPE84e/BUg+RaE1sXfLBgh+RRki+H/922+chUTT3l+/ytRNSucVshXprQPBL2on1ccBfkv6d346mxkp75Nwqb7o9gM+no83mutoPNL9llyOXuge8uvW1WuH0n9mzA1yUdvu95tNTZlKjNP86MwhTZ8Ch2u0lLF018WmJe0YNsq2TxfZjPak3y6YW9c3bD87CIJ/mO3Y1qtL2vICCb4itVYE/j77+uFjGX03CC6PclP0/PbhfSu6/fkDWiSoJwJGZF2cVENk2o3Wu/fx/5P3NjKIJw9GeRnBL+gPtaMWK2bEnvdHLlwesa9VG72RBRoEnuPKcSgUoQg4CQ5qqlscw2mftiOiPjc9pPU4TsKMivM2ZDTfl087X+74rMg4j7Sr6IapE6Mdsw3urPX97qLAKMMdqlkuLhs5/zlb3KytSHWz58Hvj8ADba7NijLwaNaOzXc3bHVlE/m1Jsw7EfVqsEZpOAcmoujmE5irrSLjIYJf2I5Dus2IPX/iIJ8c+O0IOalsLFpvOVvqz54tbq4cXRN599uRBF+ReSvSf8VWtGgyFyBWmznjqss9zUZb9t0du/2ENtvG6/yIk+cfV+wPn9lE/iNNSn/D/mD1gdJWfs1++PF99pF5HOZn77O/Bo/JrCmzYZLgU3TbfKLwW/YHWpj8+H7iKUO83w2u62Qr15uShRYTwWi9L291O5bN/Hqb/tf/tuYBkt2Sra6avVm8Xu6rJImUkXOvLfKNwch3rjyZ84/hx4kcWiTV1JOW2/bXsk9LtgjOWSSHERTS9UT6v6kpk6sXuo/mEtUXy1/zE/Hk02o7gk9lKuafIptWtqP1WmKfTXlKmIkJ8ZnSdHI22yKCrx0yHQ1JhNgktvRbkGQr0mtF6Q2C/blaFAR/JzJ9BIKf3R+S6ckT5svsLyQ8h+kBkgZ5y5UGjOEEc+vWJDlYlgawE8WplTNWjpyKINf2JCOcciTnkmQ3SbfuN9VpTD5tEwP9bkVrqJ4S2ZQ9YhMQtRP8vegxYgoXRHwdgk/EP0heqYxPiLVePRtSGacdIumHQzDdhZ4IhKLrGyqbQ/BVf4L1iMf58gmH+zsRfHPhoftY0r6nj5RNcn6jHHzG7v4i8+7ZX4zoPUX3szfbEvF1CD4R/yCxpjJOBL+mzKYh+GIh4eqrkChrG7n1VMoWrW9DOnD0Ru32JXdbO9TeSa7k/yMEl3yj4WPj+gxjn3y45XN1X4lA2+0n/acRWQ/6V113QB7qz2HBVjx9RETMI4EYqqemDJXNuSbndrKPI2OX+Yf6k2PTqnZI5gpOUSJbRLdl6a8BjDj1XmQE30vDMUi7Jvz37jEi8GZKTuizT5bbovKRNKDgYsAn3iQjLVhy+xNcxOi+++2UOsPo/UknEAcpOcr4S5zIydkONiqHA/7s+9oGbqR/NDnQo9t0e+RYHGdoyhySI/SdWSYgm9Zr9JGqTEEKTUB09n3Jmb2hHPwmTccm3kRswzojsh4m+CXttJL01EKjgGDTQqHpb5NiY34XI/hhPcTHTBpjXcs1kXsZtW/+15trE6fphHLwm/xwm6hSVD2cGkPk1ib4NWW4vtLluupMlk+3Ee4P2bJEb1RmU0Hwq9oxfc2An0M5+E0KSMT/t/nGFnm1n4yQSfrdHaP0fch/bnRUPSJzrkzKd4fbsDFL8pC+cspoHLXIk57jwnOaKw/J5V6DchbYtK6dDpyiQLaYfmvm11hd/HsQfE1wHdJ97x4jAh0i9eZ3IPi2Q/EAFyCZ3j2OI2kGZ8IR9jCg2uQQv7e1E+lf2vm5OiNnmOgvTQ7mhFMhG8nlOlT3/5CDLXVARNhNMmt/7ofgl7ZzLILfLpck/GdB8Ck6b0bsN01En5N+ewNug3EiuA2hb/Lb5Xcg+KE385bqTfuzQoJf3Y7jt3X7PX7f7q8iPrPNNyZkbJ1/EnVT2ZD/1HufTB+ekMPXJ80TMu2Tb+r173G/qynj1hH+n2zjLnKkTNSuHbSiMu584/7fVX9V7STs2qrnLmWVHUvn1zaZQPATBJ8i+NkRcrMuSocJRuWdxUTyXj+yPvUIPjnIGX8UmXRgHVbbyXodZ9Y2cHsl+LYztAZwSI7Qd2bfArKRfsNO2em7WRf/XJKiQ5HuYBoMReN7IPgV7RyL4FMEv1TXtDAoLWfhxbVd1/9j0Xki/nrjrfNGWyKbv/ya+SfSUPQaBN8j+BV60/ansjk5+HRvgX10O10x1Vae/FswBZEIZGSeoLKFZJr8Y2r+ae4JHLjgPRk15es2Z+l26W3vwdRV24fXlMm1L5HosJ8i+9hzGskTLmPL7slRYNO6djrYp0A2r19qHCBFp80hBH6vJsS08dTaeOuQc5PUm5+TpN2pg+590mxwJZmbza/+Zl56wpC9AKF2gosOfyERA2Hx9wGSGauDBmXKuTZlyYEYG48C9m/ub3EesbItAzfm5GLfx+Sh+4ORi9jxazWyFdjDk5U22Wa8kIPIbfiNr7Rh1ib4VMaNaHM56Dd+XKa5aUt/H8yJD7fTRvCTBJsWFMH2HIylUn1ieBMnc8jIftUkmKjXs2fJvUTwrQi+7C+dg884yXfy7/UJLUGySRtmbYJPZUKn69BvLiGm70vKcH1Q9DqcDuTYs0Rfxr01slGZ8Ntow3rT9iXSHtS53adO7Rh91G33+J2eD4IknTZxmgTa6FuLbwzJq9trCS4195US/A5zFvltoYumnth8IfpXU6bAfqSHkAz0Gz8u0/TX+mCMjMWJZ6MSm1Lfi9pp9Frse0tki+hYEvycTbYGziN1cd0hgm+Scu/zA3arT5x5yL7m5+d798S+M8o+tM+X9+sw76VjN42TfYQM0yf4/Hx5+Zgu4rADQDadCD9Xfm3c0/spOnu+uckYWFdrtkzITIQ921GQQxJHv5knAskzhqVuHGepnQqXzdgArM7+DeuTohT8lAB+OoXRJ0N/nnMVvxUc5UXk1iLk/Lx6Oj2Gk1ib4GvizcvQWe+Bc+DtCYPOqDeJf2Y7+53d/6srttzR0Z6ObFo3W7ag8/xvnPPy9T2kU+NecZoQfZ++JhcYXhtuXVt2M5dHqO0X/Jx/9/fa/5t0nLvti+ZYzA9fsFd/+b8XMVIE310A0AbTX8yceX7uunkspU3wdQ45L0Pn0AfOqP+TdbrOSh1zWVDmSAS/qj81etO2fp/9Vb074Ie/vc8+0t8HbN+pHV7fUHgzT0kz/R4/F99830dsvjD83I3pTwM6EIvq8vknNLZoTgqRXn4//c6Jb/acRX7eIstN/4JzTE2ZFE5Cv5lt0HtavPe4mLbjum/krpl/5OZivgm2zaZ17VTZR+jGaK9VthAGC+bWzRXbqnPwD/MbdhWyDQh+jJwb3+vjMANnxgvi7UfdicBThN3M1xefAxF0Sgfy7n1CZ9afE8FvgO7m1TX/O05ZO4p0RMR3ms2Ku6nbqKNo9R4adMbxV96jV2rHdWCynmKCbzl/qtu88gnBkbFVb2HZeBTFfFmXrzvHPoYDyX+M2JBbO++eE/s9m4vz530STeTWK7PbMvmbSeS5PiraoSh85Gx69ymBO5FHZQxF9a0FjYzM232L68Czt2EHVyb9v3VG8oHtVg5mcuqI3GNF6onQ6+sduyOib0XxG7Lp5+C/y34QR146BN8g3l6ZH99XUXdzwSD7SNH4mjJDRvC5bcplq9Mb4SDanhfV79bOZkC8mWTQ91FzNhfHMMZ9Fflgr6z7RKDVj0o/7M8//tgighi/t3TOauZTr04dFHL9fE0Zvy+EpdQ1quPdSr0jwJVNLtxq559oe65NuQ+rmudK7dPorUg218eWpL9utmynz8GPv+wKEfyciLx66635JtuGiMcJvnhbLH+plvtSqQDBl/c+Nl7A1bxZVi4UQPC5k/YcnBokIqJDeYmCiM8rotPNQLUcWtT58zbiUQQa7KUkLXRiRDzS0bzl0XaYSrZUdF5FWuxytKCIT5o6Dz8jTWcjzq6niLgi9vwtsVf8BTGBCL6wp/vW1+bNrWGCzxdhPBWnoJ0owd/L8/dd5+v9z8+j36lFikHaQwSfl1VPIew381K5ngn+ZsOulvIth21vOrRw7vUxPB6uP3nFbonIC3J/x0RE/8MN2xj5+PpkHV6vOLvefNnVu/p8e0lEfYLP3+Jqv8X2XZ3DL8v4BL+mDBHhoQl+jWx1eiO78XP8f6MWUMamZo/g19qH2hkWbxvvjaKNb5M+NuGrxDtEFmohQL6Nb1BdWk979ebXaBCnT4Iv9ZY3ZxlkMxKsonmm6VNNmcaW5T7BfYutfDLB65GyBQi+8Iny7e7F80+uTcmfVc5zefZx9abeJu++ENPFG8mmr3QG/ozlvSF+wzarnXrR1YEdIk9qL4rgU2QdV+MJRWKBUz7QXbBP5H8i+K2DdCL91U4n1p8KZ9RaZ6ytgb4ngh8j5GOTt1QeI6raZwQfPmEgPJbad2z3A289psIBYxfnZyh6nxM002O/ieLvl/aLJEl/IPgJgnvpCwECycVfQfD9yYs227IFe6EdzhlNTFMm+Ost26kc/NRrzC9+XJ8jbscoM/Dm+8cx2gkyjdROlHtfsLl2zd9kK/dZHWZ7drMOz70g+CD40Y3DIABq0IDgBx0jndnLblfB30eNnykSfCOKylNzUo5/1LYBETmP8QS8nYedMJ5GbSfa05b38sgmak8+frcKR++5jwfBB8G/EILfbDryNlzF8i4p5xEEP+ogtXM6N5I/ZYI/37Pdchs9WQHkPhztatdLajOqkeP+i/H5x/ejY6e9vVo5j1SOCD7wduY27jA3YvHQyfYvbuf/d/zYjOUHyYjg79l+ccO2kcg9+RYQfBB8EHwQ/A5OiufjFzxaHMuEMEWCPxbdTlYOEHwiDrgeaRF1lLEEgn8yPF8v2e3tqjlyuGd7g+CD4F8IwZ+SQ0ZfTuaQe3bA6AewDAwAA8AAMDAEBi6C4A+hONSJAQkMAAPAADAADAADwAAwMEYMgOAjItchPQODeoyDGjIBl8AAMAAMAAPAwGVjAAQfBB8EHxgABoABYAAYAAaAAWBgQhhIE3zjTVn7+a51xy5Wi5e9WoT9YX9gABgABoABYAAYAAZOj4Fsgk9nbsYO1IcxT29M2AA2AAaAAWAAGAAGgAFgABhIE3z9qOKKbemtWYstHuFovQBAcCLAADAADAADwAAwAAwAA+PCQCbB50KrA/bnN3iBCgg+FnnAADAADAADwAAwAAwAAyPFAAj+SA2DlfC4VsKwB+wBDAADwAAwAAwAA+eCARB8EHysvoEBYAAYAAaAAWAAGAAGJoQBEPwJGfNcVpWQExEQYAAYAAaAAWAAGAAGhsNAAcG/YjfzAzvMdmwLUoxVLjAADAADwAAwAAwAA8AAMDBKDBQQ/I0+SWe/3GKjLQA9SkAjGjBcNAC6hW6BAWAAGAAGgIHzwEARwRcn6YgoPo/kI5oPkJ8HyGEn2AkYAAaAAWAAGAAGLgkDIPiIxCMSDwwAA8AAMAAMAAPAADAwIQwUEXx62dV+eQUQTAgEl7SiRV8RwQEGgAFgABgABoCBqWOggOBjk+3UwYD+weEBA8AAMAAMAAPAADBw/hgoIPh4ky0Af/6Ahw1hQ2AAGAAGgAFgABiYOgZA8JFqg3QrYAAYAAaAAWAAGAAGgIEJYQAEf0LGnPpqFP1DxAUYAAaAAWAAGAAGgIF2DIDgg+BjxQ4MAAPAADAADAADwAAwMCEMgOBPyJhY0bavaKEj6AgYAAaAAWAAGAAGpo6BTIJ/pd9ie1hsscLDogAYAAaAAWAAGAAGgAFgABgYKQZmv//97+PGWe3UG2vpzbUHtlth1Tf1VR/6B4wDA8AAMAAMAAPAADBwvhhIR/ANgr+f79jN+nw7CpDCdsAAMAAMAAPAADAADAADl4CBNMEf6WOHSzAM+ggHBAwAA8AAMAAMAAPAADBQgwEQfCxi4ila0A10AwwAA8AAMAAMAAPAwNlhAAQfoD070NasZFEGERBgABgABoABYAAYuBQMgOCD4IPgAwPAADAADAADwAAwAAxMCAMg+BMy5qWsStFPRGCAAWAAGAAGgAFgABiIYwAEHwQfK3ZgABgABoABYAAYAAaAgQlhAAR/QsbESja+koVuoBtgABgABoABYAAYuBQMgOCD4GPFDgwAA8AAMAAMAAPAADAwIQyA4E/ImJeyKkU/EYEBBoABYAAYAAaAAWAgjgEQfBB8rNiBAWAAGAAGgAFgABgABiaEARD8CRkTK9n4Sha6gW6AAWAAGAAGgAFg4FIwAIIPgo8VOzAADAADwAAwAAwAA8DAhDAAgj8hY17KqhT9RAQGGAAGgAFgABgABoCBOAZA8EHwsWIHBoABYAAYAAaAAWAAGJgQBkDwJ2RMrGTjK1noBroBBoABYAAYAAaAgUvBAAg+CD5W7MAAMAAMAAPAADAADAADE8IACP6EjHkpq1L0ExEYYAAYAAaAAWAAGAAG4hgAwQfBx4odGAAGgAFgABgABoABYGBCGADBn5AxsZKNr2ShG+gGGAAGgAFgABgABi4FAyD4IPhYsQMDwAAwAAwAA8AAMAAMTAgDIPgTMualrErRT0RggAFgABgABoABYAAYiGMABB8EHyt2YAAYAAaAAWAAGAAGgIEJYQAEf0LGxEo2vpKFbqAbYAAYAAaAAWAAGLgUDIDgg+BjxQ4MAAPAADAADAADwAAwMCEMgOBPyJiXsipFPxGBAQaAAWAAGAAGgAFgII4BEHwQfKzYgQFgABgABoABYAAYAAYmhAEQ/KMZc80+/SC+0sIqFLoJYeDTD9ZZDvf59YJ9/3HevW47n368YG9ayn563X6PW2/4/xX7/nrFPo2OuzV7zn/HWMmye1jHGEvQCzAADAADl46B8yf4Hy/YT1+8FyEMa/b9l++wN9cr9vxj++/NlzP285cL9jyLSPB6+P3vsJ9q/76ZsZ+/mbE3H2PQXfqgy+7/B++xnzhuvnyPPY8SYomnT6/fYT9/w7FeTvJl2Rn7KVpW4f8bfk+KnGdg++OFGAc/J8csHyvvsO+zxmZGmy26y7YH6sGiAxgABoABYOBMMHD+BH9D5GMRIEHqty94RJBH0OlvJQl7lGT4pOH5FzP28xcrG9iCrLjtrtibAJGXJMq9128HZAM6IQwQac8huuLeL2ML3bROW7FJCw0X/8VOLjVWScZmzJIecCXd4AosAAPAADAADORhoI7g5074ggAfIRKnooJ+dDxGFmLfx5V2TIL/XERjZ4knE3E5xw98Inn942JaepN6ikfVbQwMSfBLFhpJ/Cm/ke5T+dhMtpm7COnqq3J9Yq48uM8OpkAf0AcwAAwAA0UYqCL4guzmPEIXk94xotYr9j2P0nvGj5GkUhLR3N88BVgznrv88zc8zYeeDPArRfDN73heMU+hyNGFLM/TebLSFHh7X/K6ZQoQL/NTUBc2IeyFFHn6zmlD6TIHP0X1F+qtqO6cfvV8D8dWQUQ+TPAlNtry6zeEY6WTT618fKlXgSkL5ya+1T3RFB+pG+E3WvvUjLUQRm3ZetR5R1+V7RPHjjvIVzSBhjCK73ocl8Aj8AgMVGOgguArIhWZqDnR0HnA1qS5Zs+/eOe4OegqqpYf2Y85JkU6eD7/F4vAn8zND/+m7uc5/FkEf6MWAxkRfL7/QBN7IvjqGrHP6SefoQh+gd5G7zC4jtwnHHwR+55IM/uejyMXhwJfge/VfVaazwf2fhS5+HyHff8xb0PiRy8SifxHyT1f6Mq9ArpMUL/Sb+ix6Mqg98i8x+T+mPe8fTO832Ih29MCtj9flfaJpx9zMb+G72EbYAAYAAamioFigi8f18c2i0oSLyZhvoFVTPx05cTBIP9BEtAv0KSsoag5EfYmZ5lH5p9/vA48BZAy8d+jIFALCZ6j7z9FUH3ihKbXTYOKVHCdGhFX/lSBSL8mU0fQdVQ3XtvDEfx8GfrFWe/tchs60XAadzESLX6vXNS1jZNWHEUX0o2epXzmpna+MDCfAsgnYoRdvgmXFjTW9ECz7wAAIABJREFUUzNaaHi4atrKs0d/vops06qnzjKX9hH352EBeoKegAFgYHoYKCT4RCpDpNlUjpw89WQtiH2C/BZPfA4x4ATDOxHHiRg6bdCk3KS2qMilQ6w2fBOvGy31/peRxZ+87yna/44i3TYZ7zygxPGGpt7lZ5kuENgU7Oigc/tV9YHgp/XO02qahae4VxFol/Sb9UgC7ZTLsg/Zwx/TvE7dJifWsfraCL74nT/lkot862mCUSeluYj7+GKZH/3Z66LYHyt8fPMni/W+KtcnhtrGdyaG8Rl4AAaAAWCgPwyUEXzxuD51nB4JxnPOm0iyiNwnouPlBpWkm6cUiOMvaVMqkXOVl25GtsvboL7wK19QmP87nymNwSArpe1pUm6m3FSeWqIXL6nyXu6+TAnq9ymDS54kwZOLKjcFZcOI4AlS9wFPF7H3FoTsWaY3IrOxJ1AbJvPR5dGUHqHlT3ksMjgTC8vY+fPF/SEi/yUtDI30rpQtNxsWJPgfZCyqVZs0RjVuP3iPvTHalJiKLFCVX4hFsLke+EJB6MOoU7fFxw31/ZpOuFrJ72L3dxhrVruc4HfxVdk+0fEZvcmPem17Qh/QBzAADAADHAMFBJ/IkU/MGjAZBOiYKToGweb5wG++8PN33XPwxf+CQKb644KE90++UMhMG+CkT6TnUPqAvsroXvyc/qb+MqLalGt033zXRvD17+Zigj73Rag0cZRPRtwnJZxQutFZIsRvLMJll3dJZKnedN8j/aT63HaIgPr9kPLpSLdB3Or6wzdJvyc3bivi7qXliHQyO49eLIa+5NikRa86b959GmDIx7Gj9fENL7uQCxZVf7PAUWM/ojNaFHk6423xOlU5oY9IHeI3IavZFv/s4ySE+fLv+vBVOT6xGZflMqIsdAYMAAPAADBQh4F8gk+ELTJBkwHERlodSeeb7+jRv5xQgyTAIR1UV/ZVE3wz0q7SeNRbOk1CTp81ATNy2NNtqgmdv3iIiFTyql5U1KIzr00VFfTO3c/SE6UMRIgR1c1fWuTsGRCLo2vnrP+sNl3wEfFRbZhPP8STAxnJDxN8RegFWaV9D3QKUUvaEfUtqW/SD+HSlD32G/VH7iFpiO9GnKQk0zt8fUt8devPTxGCThjOukZtKPvFN+zSBnCS2RqnQq9+/zRuY7+rpwCkL1F3yDbKt8g2la7pPl53RAe6/Wj/TNv6nzv7qkyf2FVOlPdtB51AJ8AAMAAMpDGQTfCJDLukLKlgMfGHiFRaqGSdock82c7KSjVo6lZkjohEqF7vO4d8eL+7/ZJthKK7jRxuGSNNpEg2WQ8RtPDigIhqTppVQK7W/qoywh4xMk4y+ISRZHcXHkJXRKZSZC/ZbtMfascisbxvsfLq+5gdKQru/k7tVPWH9zfV11xbpO6jNkT/aJz6mOX90H0L5eKL8q491+x75623Qh8epiUedP304jp9n/t7Y8fkGEr1O/SbpYO8NqR93X7nle1V9lB/8F38UAToBroBBoCBC8BAJsFXZLiUcAQn/gEmwOTkzAkCkZembUnKSifnhpz+9KU8GrPtylM6GvLStJ+c4EV/YgQ5XgcRzXjEU9lRP1WJ15WUr2VgELH1CLQo1+jQXSymy2XImqs3us/Bc4ywab1SGlPk6tq5uj9EvA09i0g9f1qkSDPPG+e5/6kIvkgnM5+eGPVx+3L5hI3c8cPboXs9WQKbgEX59rEk9KGJu7Sn0K1lB4UP8z5lrzCeMnBBfUldM/vQjItKn5iSAb+BdAADwAAwAAz0hIEsgk8EZ9AJtkuHXILC6zIjjUYesJyg1eRskois9gPkI1lOtuMSv4YkRMiJIjThKHy4DNmIUi2CbXCyxsmpRajC9QXLJ/va1JMmtiMg+BQltvYBxAkb9SeWf0/fu3amciXjhp8cw21kLRz5kZHOJnVRdzJVjNLDIifrcCwQ/kPjR9habmbXZF/ZX5LyZtEssVdB8EXOvytfeIw1uqS0rQZvXbBaW5bGW4lta9tCudPaGvqH/oEBYOAcMZBB8ImQNRP66DrqEBSZS24SAd6HhoBIslDTH6WLJLEyNz9KkuUSv1b9FRJ8IhtJci/ImSKxlx7BNzaXatsonYcIG+k39FvKlg0pLXCOYhGm3kbcEn1PLwClrWMy8+g+EXfZv+Z/2Sd5ms1P1w2e6bhYfbqRWiDI8s34iulE6IMWFeLJgNsm11OA4It3SBB2/b0jsfaG+/4MfGLmYnw4HRVgHrIiYgkMAAPAQO8YaCf4ivhoIjRGIxgEn5MNHZk0ZVX3fH8tTxeJEZ/0hNeQj1RqRPObJCXFulM6TxM4OYES+Wwn9wZ5+iZxTKSps8rPJFOo3/Rb/BSdDrIV6G2zUYRRPc1ILvqK6m2ITRXBz9S5RZaDZRIEn5809XEjp7SJT7al/HxjMd9Ubm9g/56faW8RfL+8O5a0zHyjNX8rL19oiVOv7GNB5VMmeisvnVHP37T7HnsjNodLedz6j/a/wkMI30eTIWjzxqaQA7oABoABYOCyMdBC8ClS1R6dOymQxISrXqRDEUJvAuSn+KgjDaP3tIGhIfh5/R2W4IvjOUU+eDu5InlNgs3PlacTTvjvvZ2iQ6lAPAWGTigKnGt/shx8hQ0isN9zwsn1GMWF+p3IZSKyTnrmV8KbSabN34s+86Mrr9URsB+ouqPychwnCL4zNmIEPymfkQKXW14S/AA5t94SXTrG2sZs37+fiU90bJy0Je7tPXIGffc97lAfMAUMlGIgTfCJqCWJxOmVrklrNLec5xLzlybJqKDIcRZnjZfK3kzuVo50YsNt3ibbhkBSPrd/dUg82Say4ZPK+1FG6oM6vtEt35OtidySHPr6xUoRX3/RSGXyCXGF3kwyQ5HYLyU23AWHNZh4vrirK+t/xz6dCD6PlvMNtQv2RmHrTdaJNCaeByb4hh6l3fz+W/ojfbTia+QEn8Zdaz9MW+CziwX8D0wAA8AAMDAsBpIEX07cPhEbnVHEpBuW81NFzKyjCvVZ7HzD6UIe52dFEWNKLyUfkmTZJNtMdaB2KogqEQ2LZPqk3W6b2lPntwtiS2XoBUvNPd3sbLxISMjYvAU1hqujE3zK9+byRReHhj7UU4gw0fcJbnF/LJum8/BF3cm9IHL/R85iKTcCz/Eg0s8Mck9PCnL0J2RuJcalY8ywjyXXMN9Lm4Z9TbfxMoy8kAl6BQaAAWDgMjGQIPiKdOYQnyNMrGUAVa+f59FP/jKnSEoFkX8dXbZerqRO4tFvpZVRVco9bvLs+fexPyL4XIa1SIGR5BAEocyelzM4n1/LhZCZOhXSVTtZltjrm+Dz06n4kwXxFIzn4asFZns7ucQ9975TYOKcfeIp9IU2Q2MX3wEXwAAwcAwMRAk+pb20T9xjMRTlKPMNe++x51kReSk7T4fgL+VxFc5z0vn3eW+tLb3Pzn9328b/Y8HVOOXgBD/2dEZih5+Cs2DPI4tbE19yrJcuOhUR52lvtM8iudDn98s3AZtt+5/pPn88+vce1zbn5xOPq59T2wftw97AADAADDQYiBJ8KKlREnQBXQADwAAwAAwAA8AAMAAMnAsGQPCTUcdLBrJKR2jJ8acUDXFtza++ZH2i7+fiFCEnsAoMAAPAADBw7hgAwQfB91KTJKhB8M99cEN+TFDAADAADAADwMBlYgAEHwQ/QvAvc0DAEcLuwAAwAAwAA8AAMHDuGADBPzHBv3fvHsNfuQ7OfeBBfkwewAAwAAwAA8AAMDAUBkDwQfDPcoEx1IBAvXC2wAAwAAwAA8AAMHDuGADBB8EHwT8xBs7diUB+TITAADAADAADwMC4MHCxBH91M2ezw4zNd0u2PiHBQ3pOeXoO11lfjmQsOOirP3Y9a7bcz9jsMGfLq34dz7T11q+ubJug7tPo4ylbvn7LZm9fs+XTfm2w+vY1m719y+Yvvz3pXHIavfary6w+rLdsN9+zw+wg/narE8hwQs6QpSPI1xtHOGd9D0TwV2y5m7P5fmjyXNvOii0OnPgMQ35KANGd4D9grx49ZnePH7LPJ5HPn9efEh3H7y3EwdWKLfZyYUjYme9WI57UhyL4hXrDZMM2m2ds+fI1m78uIIFPn7HFa0keOYHk5HT+8lk23taKeAry+e3TC5/whiL4z9hC2GaYxUPcd10oqV3fsL0i9iD4F4oBzCfZvnwYgn+1ZHNOnocm+B3aGUsEsjPBv/+Q3T15wthUCH5mf/qa+LJxsF1ITOuFIS0Qj4Dzaoc2FMHfsGy9Vcs+scnr6bdszolgLsF/9lLer8kjJ5DqL6cOak+VmYPgI4I/gbG4Xcio/WF+w7brifmICdinr3kZ9fSD7Ysl+GMBEAi+k6JzZIKfhwOKWM/ZYrvWq+e1QfoX234GZJ48uW0NR/D7lTO3P2d8HxHuHHK+oajwa7Z41kTe1wbpXzxL6aKJVi9eqvQREPzBCD7GQgqLff52xW7mnODv2Q3IvZ6HgL8+MTatukDwT7xqBsE/B4K/YZvtgoVI/GqnIvm71QgdLgj+aCa/IoK/YZtnL1mIxK9eqij+y2dRvOnUHJ7OQ/nhIPgg+Cee67qPRSL4O7Y9+75Mi0h2ty30MYQO2wn+lcpzN1MT9nYkUwi2XaicdiN1wSxDn4NpO2u23i6d/OYZm+8XbGlETLu2o8kYycKvucTMy7+WG3RXHTcvWgT/vso/5yk39Pf4Mbt9cN8+6ebBo+Z3ui90DaTtfP2I1/2Yvbp/j91T7em2ngTaSkbU77NXj436QnsA7j9gt48fW/LePXrIvubt0/0V/ekyGDrhwJlY1mqzdhJHA2HH1sGarfi+FxPbB9ov4G+ylTpQ36sxLvcVyH0p5pMKaqdMb7S4mAUXRtZYDvmEK78/QX+g7FHTH+pX2fUpWz/71smNf8vmr1+ypRFtF3U+e9mk1VB6TeiaFdWXEyAR9lmU4FP0/yVbbTb5BN/L95ebRlfOhlS9wAjKTG2/ZWZKUE2ZMpu45OApW/H9DpauaS+Dv8lWyqe+fyr3Suh0qLf2UxSSS/fJbCNqE3qi8ja4aLOwEtLrU78/QbzRWBCLwLL+UL/GfQXBH7d93HGI/09trzTBpxx3izQ0BN6KaHYg+JokRdqZ3zRpETyS2hCRRhbvuwBpKCMoDTiT8uUuEBxiSIbXJJeIdIioP3nCbh90I8TUDhH824ePZO5+oD2rLZIrsFi4dy9N8D9/aBP7ZiHxhLFHDy6C4A+JHcLQpmWchk7RIUK8uInvLbDG92bDSseP7ntkjFB9bjtt/bH8AZEa8SRlzkr6o/UXGZuh3zXBNomd8dkktjwK3xBFI4feuF/8HiJ1EZl0+xEyScSTov90vyWXUzfdE5TVa6chq+4ig9p2v99saso0/jdkh+h39KTE1bH+P07wF9/G9z2QPqld3Vdd71vm97vpg9axp095D9XntrNp6U/IrrKu16ykP9SvcV9B8MdtnwbvkHMcukgSfD0BmwSbR4VUxM+bmGniIMIRINkhw685ydgt2erKIPK8HU3mFyIa5ZUtbMcqT3VHyIe+l+4TR2raJ6aIpw433VIzbOL9hN0+tKP1n6sou0W6KfLNr0kCbiwKVBlJ8NUTgseP2Cv9dOA++5oIuUm+k/UnCL4Rlb979MA64efzBw/Z7UOD4Ff0R9uHMFd7Jfu24SBYf5ObHzyGkuoeCDtSB02kXJzoYz5REk8OZETelY/GtlgYW0/K1noDbfKpBPUtqTfST2j8xn6j/nCyvrZOjGn2PMSeSKgFf01/gvb1nfSak8CX37LV0yY3ntuB58dLgiwj5x4+iagVkHmvDiM3P3jUI8lgkEgiliEiKOqnMuKYR/uEHvGk4ttQKlATqdeEVNcT6b+W3Yhit5bx9e/rxLynWUiI04bMpw/iCQVfZMUIPm1gNp/EPGV0BGaKvOuFnKF3X07SWUg/sd+oP5ysP7XHgt6PMUB/MsbC9R/vGPuOtfzdsVcfmvbp+hkE38dVV52i/JR1miD4NNHyR+w28W5VSBfibTkXkiFEEDZMR/oyFxKW3FkEhdqfsVDU0KrPkjt/0EiCT0SZR+ptgk8LgOg1ScDjBN8l3aL+UF2h7zQhJ7lVyo/3/RN25yxYov2gssn2mv70oXtRRxYOwvbUJDlIcofHTrv8JEOcEAeP+cwZv5l6Ix15wYBYefV9bLzRUwH3d2qnuj+V47fBIZGxEIHbMB2J7UDwKcobJpthkpgm+CSznVLT9CmMe/E7LVjevmQrTp5FJNsnm1ZdNWVK7EILhiDRpr76MpJeg0eQkswpuyXbbXRI7ehFEfUtVl59H1ucxWxL7VT3h+RKXE9B8K9WO3n2/WIb3X9i4S0hP+5rcAldTFcXCYIvNxbq1BceFbuxI9hRYOQQBGfwhXLwdduHUxH8WJSxP0BowmtEvBmPrD+0o976PiLCdM0kxFSeIvjRJwJUL12T9ccI/gN2K1J/HrGvqZ7ca7K98RB8Iprxo2CHxw4ff0RsPQItxlc7wQ+Xy8B3jKA741qn1DmLcCm3v/DQeo2k65FPiBH86v64cif+D+XgN+ktwxB8InOxYzbpd5c80vdhkkjEPCJzQgcce1Q39T3cho2lmjLRecaRj4itqwNZvp3gh8vZ8gdliRF0Rz4d6XcWC1Juf+Hh6or07F5dvaf1kNEfV+6T/r9lO/Pc+zk22AYxeFIbnRumLkfe2e9//3vG/6KgCWwQnIU22ZoAKyT4RFJo8vavJyL4hf2I6tDUjfOZiLe4BjakstAmW5MsZxJiaucoBL9QJpJN6iDvXP8aXQfL5BJVw24NCY3gkt97BOzw/tDYCRPbERD8TUgGtfhxSL/ZH98H2PttTkXwiTy5JKv5P0KWcyLBBsZMrDZEr7xuKuuSQFF/B5mkfESa+fn+Edm8PtWUyZuQyTZhok7t+kQ6XS6j7VyCr/cimDKoRZZD+sVYoBOTzDz/wGfXtp3749ksQweDlQkQfByRGedrg9nhlBhA2+Z8UPI5HcF3wMKj7PwNtTT58sfhwcZKyA3dewilAhE5iBApKhsgCkG5zP5kEbvho7AWuTWIO89T52+opY2pPKUmeG8hmT4Kwb833Qh+FrkXOBseOxzj4yf4G0Y606Rcjb3QooTuDf2WGtNpPfQ0QRAhfsvzyO0c/GYjaYToUtkAkUv1iwj6jKfCmP7L+Nzck9jIq4mhWU9PEXx6224wNcbWvZa1oExKP+ZvaWI7BoLfPPXQpFwtDkKLEtJV6Dez3+7ntB5se7hlc/8/forOFdsu90jRMcZ9rq1wXz+YP0c9FhF83UEi1j2kztCEHk51WLHFnkfuTkXwaYGROOqv44ALknaD6OtNtE8i6S7HIviB9j/XaUXxHPzsVCDqc2Z/NBY76l+nkMQWq0b9GqsxPBr3bnTkejjscB2QTJo8GzLQb/FTdDrIlrVAJsdqR+wlGY+M6aJ6qf62hU5zXxfcEOEKp8k8Y4vXnGCbBNpot4Lg6/ZidSpbN/eVEnwivcbGVwM/SV1R1FosWJp6NHEN1VNTJlRP5DvSQ0gG+i21ybaUSGv9UL8yFjgb2mysFnqSjEcwU1Rvg7VpEnzeP2yy1ZiLjAH83owD6GLDEgSfk2t+ksWKrc2TOcTpNkt13nZkkt5Q9JJvTm3J26cJ/WDm4/Jz8c3j+3poxx0Q1G4LsTNJEt9svDbq6e8UHXlWPD9Z5nPzfPh79xiP5N8l89kpWs43tLbn7RdH8HU03twwa5y4I2RzCf491hyRKc/W/5wIvOpT9BQdq714f3obvJk44GfMyydXMSz6jmVo7Agd6MX2vHlnROBc+9gpOqWRcq33TL3R/ZLU8zGufEN03Bm+Q5ys5euV6jSvR4ngE+GyTmLh5+KbxytGyBoRO35azbf2aTVmP+gzP8ddpv3E6svTCxHbEOnlbdHvnPjypxKWf+Pn/YdO0aHFiqUHehoQWSzUlDF8LekleTXboCcsgXPt3ROIOhNiwkUWwd8w2R5P01E6i5ZrdCpPbsqzeef+lOr9aPeD4CfxfzQ75OEQsp5eT2mC37LRLUUOaMKldB599dJpmgld36PbnbN5KoJvpCh4ZYvaofzeEHlrovheG1zOKFHJM66M4DcknVJy3GsqEk6k3S3DAmfX072p+tynCg1ZN17ApRYdt9EXXdEGXLeM+j+WcnTvHiMZU/2pdx4pvEVwoEk0/R6++lH0YbFDOoiOtd1KpfCYi2eJSyqTGsNUv7xW6M2ccNSCYL7nCyVfHqsta3Ef0rU/Tsv7kzc+LbkMkt7k3FPU/DWbpyL43FfFcqrdtB1NVKnu8DVG2k2ZicDH722i736fQme7G6TTfTsuEV2L+HM915SpsU9Cxy+fGcTarpvskh/Bb/oT1JlIh0oszJSe5iJNyczHt+USdrQWjyEc+O2U9yfQrjl2R/MZBN8c2/h8Lrg9nZwJgs83CgbeYnuYqzPr24Tm52kvFEE3JmmPeMt2+NOChkDzNuSTAzlx+xN6A+7cdroRFPFEwZORn93fpof075pMh95i++Qx8976akTCddl7PKL+iN0Jsm0Q6p4IPn+hFT8jXz5J4PVzuWR0XZJxP4JPsvE0njvrTbY5fWrvT2P/tH79+ypwUE3wpWxDYafpm/vW1+ZN03L8+IS6nBBX6M0iBsZiJ+QDrHtjvof8iO8PyvtTiht1v/fG19eMzlyXxMonXI2d+LnqL9VCwCBrJyX4CqOcSFJevCCovF/8vH9TT8ZiIBJ1JnLZpDHVlDHbLP3svvW1eROtlM0n1CTz0Qi+3mzLNyd/az01abBi9Fs9hbDfzEv48fFW3h+jLXccjup/EPwgPkZlo3PB0mXImSb4AE54E3GPeiEijGtzBGaOLuDoLsNBwc6wMzAADEgMgOBjLGAslGAABL9Hsl6ieLo3h8ziHp/8k/5whcMDBoABYOASMEAEf89ucFTm4MFHjKnzH1Mg+CD44eM3g6lAPtE+1eIDzuf8nQ9sCBsCA8BACQa2i4M8KnN+w7Yg+SD5J+ZvJdg9xb0g+CcGyKkI8rm3e4rBMlybOfntlH+urh03dw/XFxAW6LYLBnI2sFL+ubpG9gPADl3sMNKy6xu2N99sOzuw3Wqksp6YWwD/wAUI/okH4bkT7VPJPy3nBYI/LXtiYqm3Jwh+ve4uBHfrLdvN1UuvQPARxT8xhxvzeAXBPzE4TkWQz73dMQ8qyHYhROPEvgM4A86AAWAAGAAGYhgAwcckjQgAMAAMAAPAADAADAADwMCEMACCPyFjxlZx+B4rfGAAGAAGgAFgABgABi4HAyD4IPhYsQMDwAAwAAwAA8AAMAAMTAgDIPjVxqQ3c/pvCe26Ql7dyLf6znfL9rccVst/OavYVntg0xacOsYRMAAMAAPAADAwIQyA4FcbcyiCb56o0v/ioZXsVuvjTBcMOHYNDv3SMI/+AvPAADAADEweAyD41SAfiuBvGCL4x1ss4MUpx9M1FpfQNTAADAADwAAwcBwMgOCPkOAD/McB/2aDV58Da8fCGtoB1oABYAAYAAaOhwEQfBD8yT+mijsUIvg7tq3GwfEGa7wfkAG6AQaAAWAAGAAGgIEGAyD4WcRuzVa7OZsfZmym/+RG2NnBz5Nf7fh96vurFVvu6F75/WK79ki1LGPWP2Oz3cq7T4KX0oNmbLFtjGkBe7uQsu4DG3Wv/P7M9wu2DMjF66zpjyVLlo4j/Ri0LAj+edjpFNhAm8AGMAAMAAPAwPliAAS/jUBeLR1i75BwIvJGPUSIFzeLaFmXmJcR/A1bq5N2YosAqs9tZ9PSn/lNbPExZyX9OQ+nAIJ/HnY6XwcL/cJ2wAAwAAwAA6fAAAi+Qcx9AzSR8vluxdZXBkivVmyxNyL1Rj1ErkW034qMr/UG2hgxFzJQ9D0awedy0Gk7C7Yy2pZ9iP1G/eFkfW0dwbne0mIk9kRCLWxq+uPJZ+hR/Xb9xzvGvmMtf3fs1Yd+Wd9uufeA4NfrLlfHuA86BgaAAWAAGAAGjo0BEPwU+UwS7YYsL03ir1NaZkwsCtz6KYIeSp2he5PtNoOEFhJelD5WXn0fitJz4NFTAfd3aqe6P9SvxPUUBP9qtWOH2YEdFttIKlSj62MPTLQH3QMDwAAwAAwAA8BALQZA8BOkk4itR6BFmXaCHy6XAdYYQXdlpfucxYKU24/EE4Fv9hG46Uby/xjBr+6PK/dJ/9+yHSf19DfHBtta54FyGWP5pFiHfMAoMAAMAAOXigEQ/MQEPHqCvwktMlR6jkP6OcCpPyD4DsFfwwFeqgNEv4F9YAAYAAaAgSliAAT/rAl+IK1GRfVD0XaK4Id+S4GbFgal5VJ1ur8dP0Xnim2Xe6ToJPDv2gj/YxIEBoABYAAYAAbOAwMg+AmCQ4TYTVnh4Kbf9HGYRj2dCTGl3iQ32RLA7Ii9bDu08XbDNkX1Uv1N5H9aBJ/3D5ts4agbnEMX0AUwAAwAA8DAVDBwoQT/Bbv9izyx5W77il0b5NwyLG2I5Udh0hnxgXPtY5tsqwlxIRGXpJ7n3CuyH10Y0Ok6fAPwkq2czcFW3w2ddF6wGHXF2jjN9yD4p9E7JhDoHRgABoABYAAYGBIDF0nw3XSQ20/iICNy6+Wt71b2C6AMEktl8gl+Q7y9dvSLtSJRed6uWhDM9/yFWv7mWgtA+jjM8Abb2cFvp7w/cX1ashg6O833IPin0fu54ANyAh/AADAADAAD54mBiyT4m01mBF8QUPetr3NGb6KVxNcn1OWEuCPB15ttZ2wW2FzrDU71FMJ+My8RfhB8T18nX4icp3OBHmE3YAAYAAaAAWDgNBi4UIJ/GmUD5GPTOyL4wOTYMAl5gElgABgABoCB7hgAwUd09oJf8kQEf89ucFTmBeOguyPFZAQdAgPAADAADIwJAyD4IPgXTey2C3Um/vyGbUHyLxoLY3LMkAVEARgABoBgCb03AAAgAElEQVQBYKALBkDwQfAvm9Stb9ie3mqrrrsVnEoXp4KywA8wAAwAA8AAMHBaDIDgg+BfNsHn9l9v2W6uXno1OzAQ/NM6JUwK0D8wAAwAA8AAMNANAyD4IPgg+MAAMAAMAAPAADAADAADE8IACP6EjInVbrfV7rnp7//97ncMf9PSwblhEPJels+BvWFvYOB8MACCD4KPFfuZYgDkflrkntsTk+f5TJ6wFWwFDAADY8YACP6ZkrsxgwqyHcfpgeCD4GOsHWesQc/QMzAADJwbBkDwQfARNTxTDGiC/1/vs38fZuxwmLF//88jkbbz1f/8Svx/OPyK/e9/TY8I676fQ5pSgX3ObQKBvCA9wAAwAAyMEwMg+GdK7jCgxjmgjmmXhuRu2D8Vwf/nnxWZ//NyIIK/Yf/791+xf//rffZVLrn+rw37579owcEXIr9i//77Jrt8s1hpFjBN389h8ZJvn2PiB23BhwADwAAwMF0MgOCD4COCf6YYaEhuikAu2X/nEvGc+yganUvw/7zUTxf4EwbrL6cOas95QtH0/dwJvm0fTLbTnWxhW9gWGAAGjokBEPwzJXfHBAnaGqdTakhugOBrYmwTyKZMJTGmenPI+e9Irl+xf/5Zpg7x9r8ySL9+4hBcXDxi//svGfH/59/lEwBKQercj2B7lTpprYv0MGO6v6THg20fjLVxjjXYBXYBBoCBc8MACD4IPiL4Z4qBhuQ2RFjn2xOBzCLiBcS2tN4/LxtSaxDh//67iub/fRM96lOn5vB0HrWn4DwJfr59zm0CgbwgPcAAMAAMjBMDIPhnSu6qBtRnK/bDLwv2jx/fZ5vNb9kffnxX/v/Lr9k/fnmX/fDj++yjoD5+yz76asX++p932T/Evfz+X7Mf/vMb9qevfussEN5nf6U2PuNlFvJe0eaGffQ3quNd9tevAoPiM1euWDuBskHZp3tfQ/ALCLom2Y/YV39+38mNn7F//2vJ/teItos2dD6/k2JTk3Kj2ifCfogSfIp6ywg33d9K8L18/xn799/fZ//tbDTWC4zgAojatnP+a8qU2qhqXF8Y7qGj6fo02Ba2BQb6wwAI/iVNjprg/0YTb5Owi8+KiJuDrCHlkti7ZX74m0nyFcH/j9vGu+xPf/uNtUD4xy+/YX8w9U/yGYsIsy27nf4GgdnXc/pcSh7N+4kwWznxBmG3iPQJCD6RaUppIXktufRiRS5w6J5gn7yFBEXVZ8xdZFDb7vf/73c1ZcoWX+eEP8gKHwQMAAPAwHgxAIJvEsypf3YItBmx/+grIt8O6d7wqPtv2A8/rtgfPjOJ/IaFyyiCr54K/OkzM2r/a/H04KPNb9mfRGT/XcZ/lw6i+e6vf/ut9SSBtyOePPxi3k/lxnm9/uMdY9+xlr879urDevlNwl76+av/WarIdpMbz+vg+fGSINu54br+0hQdh4TLeihCHjnCk2QwSDmR9yjBpzL8qFDnhB7xpOJ/QqlAJIeRG6/rifRf7ysoKZNP8jFZ1o8H6A66AwaAAWCgwQAI/tRJvdk/g+D70fCGYDekuwFKeNBQGXNR0BB8aqN5AkD3UTmDsKsFBpVx26M6Yr+795/6/7ETfE3YPQJOUeoIwe2B4Mcj5JwIE+m2208TfJLZTqmJ99Eg3NQfvtmVp/eIpxiRhQfpqqYMlW25nhq3aL/N5+F3YAQYAAbOAwMg+CYBnvpnIvj/WVkRcjlYA6Tb0EcoB79JnyHizkFPBL/5zifnflt0T1NnTjrQeQyyoZxhFoFNEMpQDn6T3mITbN0Wkdtg7rpBnCPtElE/RMrT75SaQ+3S9+EIPhHziMwRWdy6qe/hNuy+kTwlZai91HUorKDey/YVsD/sDwxcHgZA8A0SO/kBUEnw//Cj3CgbJ98Nma8l+O1tqI29Vr7/5Q1YE6Mpotj2m46iG3n3RFblNUKWOxD8hhSX101lg+S7g0xST80TgMO/IrJ5i4SaMvYiIWQj0774fNnjG/aH/YEBYKALBkDwQfC9HHgrRYcWBb/8mv3VOzGHIvHdCT5F8IMn65yhjUadokOE+MDzyO0c/GYjaYToUtlIBD5EWvl3RNAPzrnv5v3NPS2n9YhFiSlfTxF8etuukftvymd+1rIWlDHLxz53ceYoCzIADAADwAAwQBgAwT9D8kjGK74SWS9I0SHi/Y9gmffVaTzdCf6GNvkGTvEp7ucIbDpmgt+Q0/fZV15kesP+KV4uZRJoI/JcQfB1ewlyzwlvc18pwW+i6W5qT4xI6+9pU61YsDT1BJ8UkK5qylDZlus5Yh0yg1AAA8AAMDA+DIDgj4AMdh8YL9jtX+SJLXfbV+w61qcKgq+Jt3WCDT8Xn0624akzPRB8nbv/a3Viz/gGS3c79dsnTVJbSKN3HxHUg7mZlJ+Lv2T/1ik7EYKvN8HyDa2bwALBWAz87nfsv9UbaFORe0++QH+I/MeIN/1+OMi35poLl+gpOrRYsfRATwOMU3JMeWrKmOVbPvsY27Kb+YEdZge2X2ydd070iye/bdQPnQADwAAwcK4YAMGPkeEz+t6NFt9+EhmQNQTfIN5+Dv677Adx3GUfBH/D+GJCHocZ3mBrLyQifTwju3V1GjnEOHxPQ2LtvHseOf8V+3cqgi9IeyTC7qbtaDIcuV8tJmKk3ZSdCHz83ib67vfJP+u+Oa0ncPJOcAHEFy6N3jw5omXsBY/Zp9BnDxPrG7afSYLPSf5uBdx7OrqgMY++A//AADCQiwEQ/ElMDgNG8Ll+PuOpOPQGWk6+1VtvP9swuTm2J4Kv2vqT9YZdk+yb7WCQhwhi9nfeG19/Jc+P/y8edeeEPBbB54T1Eftvfo6+WAgY5P2kBF8SafEUgvLixQKC98t9k62xGIjk2+tNyLpPNWXKyD23XchxXy33IoIvovjLq+A9oXL4Dj4CGAAGgIHLxQAI/iQI/uUC+JKdVzaZb0kLQT3lRHwonQXxbETxEcGHrwtiBPMYFr7AADDgYAAE31EInCcm0HPBwFAkE/WejvB72Ftv2U7l4B9mO7aFv8IkDgwAA8AAMJCBARD8DCV5ky7KYHCNAAMg4qcj4kPpXvsaI2rPU3MOsz27WWPxrfUzgvEHWYBHYAAYGDMGQPAxUYCsnykGhiKZqPd0Cwc9WRDBn+/ZbrllV2eKUd0fyA8/CwwAA8DAUTEAgg/AHRVwmPD7i3iAiJ+OiA+le4yP/sYHdAldAgPAwCVjAAQfBB8E/0wxMBTJRL2nWzhc8mSEvoOMAQPAADDQHwZA8M+U3GEQ9DcIoEvoEhgABoABYAAYAAamhAEQfBB8RPCBAWAAGAAGgAFgABgABiaEARD8CRlzSitP9AWRFGAAGAAGgAFgABgABuowcFkEf7Vr3gg537Etjp3Dah0LPGAAGAAGgAFgABgABiaGgYsl+Dhbum5FiJU09AYMAAPAADAADAADwMC4MXBZBF+vzq7YdsFfHnNgh8UWq1atl3GDFc4E9gEGgAFgABgABoABYKAdAxdK8LlitmzHCf78Bi+RAcHHIg8YAAaAAWAAGAAGgIHJYAAEHwR/MmDGir59RQ8dQUfAADAADAADwMD0MQCCD4IPgo+IBTAADAADwAAwAAwAAxPCAAg+CD4G9IQGNKIy04/KwMawMTAADAADwEAbBi6Y4F+xmznfaLtjWxA8kHxgABgABoABYAAYAAaAgYlg4IIJ/kafpLNfbrHRdiKAblvR4ndEPYABYAAYAAaAAWBg6hi4aIIvTtIRUXx1ZCai+Vi5Y6EDDAADwAAwAAwAA8DAmWMABB8EH4P4zAfx1KMQ6B8ibcAAMAAMAAPAQBkGLprg08uu9ssrkFyQXGAAGAAGgAFgABgABoCBSWDgggk+NtliNVy2Goa+oC9gABgABoABYAAYOAcMXDDBL32T7VadunNg+8V2Equ7cwAoZIQjBQaAAWAAGAAGgAFgoAwDIPi55+Cvb9h+RptxD2y3KlM0gAl9AQPAADAADAADwAAwAAwcAwMg+LkEf7NhV8s9OyiSj7x9DNBjDFC0AZwBA8AAMAAMAAPAQCkGQPALCP7GiOIjgo/BVjrYcD8wAwwAA8AAMAAMAAPHwAAIfi7BX2/ZTh+pibffHgOcaANOEBgABoABYAAYAAaAgXIMXCjBv9JvsT20bZg1ovYyPWfPbtbligY4oTNgABgABoABYAAYAAaAgWNg4LII/mqnc+gpl7411YYI/nzPdsstu8L5sDhBCBgABoABYAAYAAaAAWBgxBi4WIK/n+8QiR8xMI+xukUbiKIAA8AAMAAMAAPAwBQxcFkEH4QWq21gABgABoABYAAYAAaAgYljAAR/4gae4qoUfUK0BRgABoABYAAYAAaAgTgGQPBB8LGKBwaAAWAAGAAGgAFgABiYEAZA8CdkTKxk4ytZ6Aa6AQaAAWAAGAAGgIFLwQAIPgh+esV+tWTzw4zN9ku2PitdrdlyP2Ozw5wtr+DQLsWhoZ/A+uAYOFufCGwMjo2zmiOBh6njAQR/sAG5YsvdnM2LiHFNmYEH6dlOZmMh+CO06WCYHxiLrXJX6PpqxRb7OZvxRaz4m7P5bpW9mF3fNGXnN+v0YrlV/lPrb+j2K+yzqSkzcD/O1icOrJeLxzf0O3XCfG79A8EfyinVTAI1ZYaSn+odo0wkW/I6EoJ/tvo7w8mqVNfbhXw6pck9kfzMJ1bUnioPgt+CGdJXSdCjpkzSL7TImFN2jDLlyI17sAAHBi4KAyD4QwG+ZhKoKTOU/FTvGGUi2ZJXEPxzizZ0lrcIqyu2UBH7xbaJvK8N0r/Ypshgg6/FTkbxQfBT+tqwTZF9VF01ZZJ+oUXGnLJjlClHbtxzUeSusz8FXs4eLyD4Q4G4ZhKoKTOU/FTvGGUi2ZLXhoCdNAf/bPXXAxFK2meA+kt1vV2wEIlf7VQkf7eKOnidmsPTeVSaDgh+i01L7cPxU1NmaNyNUaah+4z6o74ARLpl3AM7J8MOCH4r+NZsvV06ebozNt8v2NKI/IlBvl0YubzG4343BcB8RF1TRstcIJsuowajl3s8Y/Pdkq3cDanWZLZmqxszrWHO5jf5+crtjrC2P2u24vsdLD1TbnRok21hO6QDQfj8tryc7U425aQm0EYIb8qmkpCqfl7JnGUzp9yMULfbYAzOusA+XXXtjovNRhP2WZTgU/R/wVbG/a0EP3PM6QWG6Se0nNT2jJnt1ZSpx8LA9ulk0wLZtE7H7BPHMB4hQ/1Yge6gu9NhAATfdfLO/xSdawiTTdzNSXZTMzHVlFEyFslm9CtZziU1RG73C7YQp9LY/Rd6ccsYbZUM7qRcB5vQ6HpJPovcmzL6BL+4HWpjl6mDDjbVEctIfyy8KT0TwV9Yiy9TB7NgpFrrsNJeQ5Uvsk8XXUf6rduP4JrINEX/6f6QbUhHdE/Qj3jt0NOnGXMXGdS2+/1mU1OmbuJJ9sUdpzX2qSmjbFkkm2H/ZDnXPuQPjuATCT+41mEVeoPeLhkDIPiGkw8BYc1Jk4hsN3m6/D6eqysnaxnF88rqSaDgeMnCMlWyabl5xN6OvosnFTdOWgLJpAinWaZVBy26dXVW3p+G1Ai5zKcPIlrKSW6I4BfaNKkDdYxooB3RPyobjMa6zpf6M2eLm7V1kkuTG+73R5M+biMr0s+fuKgnGS5JKbTN9R/vGPuOtfzdsVcfun0q/78cB6qNIl3H5KIIua9nYU8aP4Y+iRxGCT6V4eQ3Z8wJ25AcxuJM1xPxOZuaMjE9xL8/qn0KbVolm9Zrpn1IpiP4RNdH4v84LqEb6AYYsDEAgl9IdBoAERmLTLY0CWQRO2WUmjJB+WOy0feRaHioLpLJjcyJe6m+CBkK1Vf1HbXj6JomZoNs+fYpkS3SjqGDULpLkuBR2RwcqP7EiGKsHSL4LnkUuihpP2GbYxL8xoa2s2qi1A4OSO4e+kq69CPkXBYi0Hb7MbvIfhCmCsac25/Dgq34glUQyhY8kw5KylB7na/UV1s/2p4kW85YIFlqylBZ6xqTjb4vsA/JdFKf6I4N/K9xZtkdeoFeLhcDIPgZziCUg988aj/tZFYmG5GEiMwhXdBkFpyUaXJsIR2heiPflfSHyBilStiOLC1bSTs6bSaogw3TqVmhhUZSf7bjIaLYYMtOs6Hv3QVAWg92G7aOxvtbkX0ISwW6DulB6z9iZ/rdxRt979pFtlEx5qg/Rn5/zPbJflCEeYDz+Y9mnwqblslWYZ+kTGm/E7IXvhuvH4JtYJtzxgAIvjGZhgxJ5IkmWP8aIcvJSSAyaArLFMtWWL/QR7JMv5NZaX/ofpdwSTvGZaNyvi2JUDs2TeqgP4LfLpeUzyWSVC6shwjWWnAfGgvH+o76k20f6kubnei+wJVI+oxHvgO/pxZ5VNa1S/v4ybEN4VimXwVl8+StKZMji7znqPYptGmxbIX1t9uUdN9f0ONY4w7t5I8B6Aq6OgcMgOB7k6MBXHL+B54Ha+fgD5IuQO1FIogWoOjeItlGHK2q6A9N5mFiG5loK9pJkTthk1SqELWXYVMiiuH+GLh0MJvWQ7ychSenTve3o6XokL6KcK36SGUzdG32j/QeJfeBSHp88cEXYeYioWLMGbbQstHbdkNPiYz7eb9qypj6SH4mHR/LPtRejk3p3iLZKuxD7QRlivgdx0ZJHePekx0rCLv0M19Aj+PQIwh+wpk2E2Vooyx/xb07mRtGTU4Cxn1m+wVl6mSjycfYuGe2H/qclInq6x6tqukPlQlFTuk3d5Ot/j44OUdsmtTBhiUJdktZyxGmFgoh26jvku0nylltt9x3LIJfZR+SvUTXqoxuzyLl/vhs7qOnPKmrSfBpjBSMOeoP4UFgtaknhHdty5oy1F7GVeuhZPxQvRX2aV1cU93WwqbEXzd6zV5YJ/tB9XX3idqmRh/xnT82oRPoBBgIY+BCCf4LdvsXeSLI3fYVu445UJosrRNS+DnL5lnw5mRuKpkiQ3zzln1aTRyMBWUqZdMT9GEunkqsjb6L3NXYKTrBCb3HyaymPzTRcvvQE5bAOfDWi666tLPnmx0NG1+t2VK9xdSO2hr36I2ZOTgw7B96J4FhKxNDxyD4ZnuDfq6xj9aLob+MMcffnSAj8bExbNox/pnGVIx40+98scmfBLaOOd4fE9sac03/gmS0pozWXbx/lr2PaB/ZbtPnVj9aKVuxfUjP1T5xy27mB3aYHdh+sUW0uhSDuB+YAQayMHCRBN+NRt5+EpvcmsnFfyQ/Z/NUBH/TRHa9ssGJQcpAZK29TK1sRMojEUg3BaDzZBbTrft9XX+i+tqtVGTdjaRVtEM6UJsWPdtYC0C3X4U4sBaPIRv5ZJR0ECR9Z+cIK+xj9JF04dnIHXOtNpW6j5F2k/QSQYzfWzjmrEWhkxoYJLEcc43ePDmiZXysmv0Kf27a8XR8gE9sUjddv2Poen3D9jNJ8DnJ362M3wwsh/WPe6EXYAAYyMPARRL8zSYzgs+drff2ybk8y/qKiJtPuBrwqTe/ui+IcsmG5dQLynSQTTyFoLxedfxe+5tsXVARcUlMZlbf3PLO/1X9cd/6KqOk3AaS7AVkK20nSgYVFlr7WGBThTn+ZMB+My+RfR9vRGqnQfCPNOaiNiU990nwJc7zxhyNKf8lV+RXyN4z7UdqyjhjrxXDxv2l48equ3AsiLIFZTrIlmcf4+mK1r+hG/3CsYDfMfRwtdyLCL6I4i+vsqJxZH9cTX3jM/AADMQwcKEEH4CIAQLfB7BBZDA4oQfuNyZy6BP6AQaAAQ8DRhQfEXzgw8MH5hAsenvAAAh+D0rE4Jy4gwbBh7OFnwAG+sLAest2Kgf/MNuxbV/1oh5gFBgABgwMgOAbygBRnzhRr7U1CD6cZi12UA7YIQwYUXuemnOY7dnNGj4X8y4wAAwMgwEQfHK+uPYwEac24Nm5zXqDnrupd4x2AMHvARvDODBMDDV6neg4HaPvMGUigj/fs91yy67M3/AZPgYYAAZ6xgAIfs8KvWzCMVHiAIIPxzspPzHRcTopG9Us3FDmsudf2B/2tzEAgo9JAeQNGAAGgAFgABgABoABYGBCGADBn5AxsXq1V6/QB/QBDAADwAAwAAwAA5eIARB8EHys2IEBYAAYAAaAAWAAGAAGJoQBEPwJGfMSV6joMyIzwAAwAAwAA8AAMAAM2BgAwa8m+PT2yPQbC88ecCPfYKrf6inexqtO6ik4mWd1M2f8RB/+Ft91NRbsQXX2NoceEMWqwgB8IsY+fCEwAAyMBQMg+FUTGQfwEJPZii13czYf0xtTJ03wzdNExrRQGyEOqsfJMZ19hd6uVmyxl4s8eXTrnM13q+zF3lotEMUi8WZ94QsD+MSxTOyQ45h+B20Bb+PEAAh+NXEZYDIbI5keo0wxm20XIho/O/cI/jnpPGaLU3xfqrftgs3NJz/m55xFNrWnys1B8Nlyz5+i9bhYJh3n2ONYmBujTMfqO9q58EX8OIksFhhhu4DgVzssEPzRDaoKgj+6PnA8gkDUTaJFeqOnN3O22DaR97VB+hfbsNOUmGnG/2Kn0rxA8EHwq+eTFNbw2yj9NGxd56eht6PpDQS/GmzNBL+86skBFxGUntps6/8YZYrJDIJ/NMcxygm3FKvbBQuReL2vI/EkSKfm8HQe2scBgg+CH/NN+P6yfRPsD/ufAAMg+FlKX7MVz403H+EfKG838jj6yi8z3y/Y0ogWCpJEpNSqW20WNb8LPqJes/V26eQQz1iwHbefXu6x3Gi6chcrFmlas9WNmdYwZ/Ob/HzlbFKYK5vbJ9JlgphxGTSBM/XbUkbInmtTLhfpTdTrYiGQ502ymzKFPgdxcKTFnqvvwf4vwPUAeiPCHk/1ouj/gq02m3yCn4lrjc+grantGTNTgmrKZI/HoJ1dTMvUHNrHEAx65I6fTjYtwI7br0z76LEt7HMkn+jKiv9BGIEBYKAFAyD4LQrSzjxEtsR3AYJP5C5SxpyYNx0mM01Ectox+pks5xJd6st+wRYivzaw+HDLGG2Vkogi2dx2SJct8mgyZOqtpUwbDiybcrlIb7tMvZHspkyhz0HSNy2Cn8QAP/HIjJQPoDfdfgQThB+K/tP9llwONukeSYCdMeS1Q08HZ8xdZFDb7vfNpv+SMpW4IWyH8Cm+g0/07VOpawdHpf4U90PvwMDlYgAEP+lAm4lWnKxhRrdFtEdGrexoFZWZs8XN2jqNo8nvDUyAJinMJHFrHk3fLdnqqskh5oOZtyOJhIwwWgNc/8Yj9nb0XTwNuFnZq2JnMjfLJNtJ6jUy4Eplc9ug8h5hirTHy2eVqbBpF71R2UwcWPZ1ddLT/9d/vGPsO9byd8defZjQdaYsVbjmdfeiN4qQR8ZoAC9E3qMEn8qI41gzxpzQE8kxa9KIdD2BcV1dptReNBaU/4BPtPxo7z4xc8wcwwegjdKxgvuBmdNiAAQ/5UBpQg0SRproHCKgysQm+yQZ6IWgcECRbC4RoO+dKGhKBySTGzkVZag+Rwep+qK/UV0Fsrl1Je0VGWg5ZWps2kVvVPZCCX58UiCMuLhWtu1Bb/EIOW+DSLfdfnJM67FYgWvqz2HBVjygEIuOm+OgpoxZvu1zcryQfRx/UDN+SA7qT+exQLLZtmt8ZYF9SKbBfWLEZ5FucLWDUdAH9AEMWBgAwU8AgiZ7ehRvEw+aMOzJjCb74KN445F2cAFAE0fBZBbKwW/adiczIgnu94mJJClTWAe2nhJ1W7qvkM0qnxuNd+RJEhZ5b5VNu+gtWdaR39XBRP4vw7XSSUe9aTtHxh/97voD+j44piOLgtwxQnXTmA63YWOipkyuPPCJbU+K+vSJtl1zbYT7oDdgABjgGADBTxCimsmMytCEHLsGJ+pCgtLelkPkC+sXTiJZpsfJLNlO5mDNIOue48so065nmVNt2TTZnxa9Jctm6iKBa08HI7u3Xd8Orkn+DnprSHF53VTWsn8PMkk7EVZmbLaPyEZt6WtNmTxckW3cRY4tqx30oDIxX0jf96G/9rYcHdZgJlmGdG/rYOxjDvLl4R96gp7OCQMg+HpS9IFLk0XJZEaTfbiM34YFluTE4ZSlew88R9fOwW8eOzuTWU00kdoJRjX7nMzGH8EvsmkXvSXLOjhI4NfCVsf7jpaDT30vwrXSCZUNYjWuNxqzM54KE9FTc4+zQdZ4KkdE1a6nG651u/S23WC6oN23mjK5WIFPRAQ/Fyu4zx6X0Af0cWwMgOBHJnRuCJooQ5El+s17a2NGRDhq5AKCotsPkpmVOvHGJSxEyI2Ne4n+CzmTMlF9fUSrqK4C2VzZa3SfUybnHleWLnpLlj2NkzwWwa/DtdJJhd50ewlyb/qChsSniL457jrgmnAnxnhTT8gfaZ9SU8bFbuJ/0ldIBvoNPjF0+MJpxq3GRcKmuAe2AQamiYELJfgv2O1f5Ikgd9tX7Drm/Igw8FevU5T8asWW6s2VcrJ3yS1F7CLnysfaEt8bZdvOl6eJ3HotPD8D2jyn3iQaEsDmJMwj/2tDnuQpOsGFBJEOVwd1g6VYNkN24aBIJxlRTu3QssoYdhGnFmX0j7BTpTejvTYcuDo49//JHoW4lvYs0xt/t4Ucw/440fjI0CfhNkR6eT30Oye+WWOOt0n4sfTQ9C/4NKmmTEb/LF2YbcAnWv5T6inHJ27ZzfzADrMD2y+21qY4S9eltsH90CUwAAwYGLhIgu9GI28/iRM2eiTtRe52K/XCpAC5tUh2KNIXJxTR9jyi2Ez2nmyHOZuLM+tD7dAEFJLLP0NbEw2vfa4zqiugAwNk+ZMW1Zcpm045itwv0idcHaT0RvW4ZeQGXvtFZ3QvXZ0yRIQq9ZaPgzh28/U+pjpS9knhWvYhW29kn2CKDdk072QVIvAxgt+Mk6Zea8x6C9JGB16dwQUQ73tNmTq7R3UMn5jnE9c3bPbZnoQAAAUFSURBVD+TBJ+T/N2qzg7nOb7RV9gNGDgWBi6S4G82mRF8QVLdNzbKKBw3kJzoIuRWRfrDpNAhgxYZVm9GdF8qFSKK3psX1RtSr0i2eDsi0k95vYLk8LL8TH1n8BERCrXfO8GXbWfLZpAaizBZpM3VQUOE8ssonZTYtLPeCnBg4cex3zn+1gHXnEyLty23jR+yj4UVn4B7BDugz3aCX4JrY5HrEX9ZjybYekzWlOmCE/hE4de1/k1dki0i84LCz9VyLyL4Ioq/vELUMTCujkWC0I6JX3yeEh4ulOADxFMCMfoCPAMDwMBZYcCI4iOCD+yeFXaxGDubBTkIPsB6NmCFE8RECAwAA2ePgfWW7VQO/mG2Y1vMQZiDgAFgYAAMgOAPoNSzn4CgEzgbYAAYAAb6xYARteepOYfZnt2ssWDDfAkMAAPDYAAEH5NYj5NYTn67k+ccyTPGgB9mwEOv0Ku5ITe+DwXjtPexQgR/vme75ZZdYe7pce7BuO4dr8Dn2eMTBB8g7hHEIPhwsphox48BjNPx2wjjCDYCBoCBbhgAwQfB75HgdwMjBjP0Bwz8//buHblBGIoCaEo3VClcuPFG3LETrYSNsA8thPUoA4M/hcMnQAbkU6SJk4x5OvHcJ4TEAAMMMMAAA8sNCPgCvoDPAAMMMMAAAwwwkJEBAT+jwdTxLu941VANGWCAAQYYYODoBgR8AV/HzgADDDDAAAMMMJCRgeGAf66fp+2d6hRs6QV/RviP3p17/2aYGGCAAQYYYOCdgckB3769AL0D5HtcMMAAAwwwwAAD+zIwHPAfs7VlCkV7MEeTmiKYxX7UZV+D6Z/LeDDAAAMMMMAAAwxMDPhtoUKq24B/qhzQIeBr8hhggAEGGGCAAQZ2akDA3+nA6L513wwwwAADDDDAAAN/MbBhwC9TVcRuWU/8LnV4GgkGGGCAAQYYYIABBv7BwHYB/1Kl2C7p6b7qFP7hYv7S4fgdnTEDDDDAAAMMMMBATgZmBPwyVac2sE8N62bwc4LiWnzwMcAAAwwwwAADxzAwI+BfHzvpxO/gQVt3JNxiY4ABBhhggAEGGNihgVkBv9tJp5vFt/RGB3uMDtY4GScGGGCAAQYY+DQDAv4Ou65PQ+h6ffAywAADDDDAAAPrGZgV8O+HXdkVZ70BgFktGWCAAQYYYIABBtY0MCPgz33I1kCtOVD+Fk8MMMAAAwwwwAADUwzMCPhzT7ItU+j3wXf6LYxTMPoZThhggAEGGGCAgeUGNgz4fUPQ74VvWc/ywQJeDRlggAEGGGCAAQbGDGwY8K/peq77g66a1BTBNkoe6GWAAQYYYIABBhhgYGMD2wb863MW3wy+bnOs2/Q6IwwwwAADDDDAwHID2wX8S3uS7X2//Jiqy/I3a8DVkAEGGGCAAQYYYICBYQMTA377wGwf1keX2jxn7Ztu/X1M9bl0K2bjWzGgD0NXH/VhgAEGGGCAgU8x8HW73X4P369r6PuHZevzGI57wI8pFlUKZu5/r6/QrzYMMMAAAwwwwAADKxsYnsF/CfjxVFtms3LxP6WLdJ1jTbHXGWGAAQYYYICB9QwMB3yBVkfJAAMMMMAAAwwwwMChDAj4wB4KrO5+ve5eLdWSAQYYYICBPA0I+AK+gM8AAwwwwAADDDCQkQEBP6PB1IXn2YUbV+PKAAMMMMAAA3MMCPgCvo6dAQYYYIABBhhgICMDPxNG60lI9WzOAAAAAElFTkSuQmCC;" parent="x74ONLKLbEEUaDy3nGKP-39" vertex="1">
          <mxGeometry y="26" width="265.78" height="104" as="geometry" />
        </mxCell>
        <mxCell id="x74ONLKLbEEUaDy3nGKP-43" value="" style="endArrow=classic;html=1;rounded=0;" parent="WIyWlLk6GJQsqaUBKTNV-1" edge="1">
          <mxGeometry width="50" height="50" relative="1" as="geometry">
            <mxPoint x="154.66" y="400" as="sourcePoint" />
            <mxPoint x="330" y="370" as="targetPoint" />
          </mxGeometry>
        </mxCell>
        <mxCell id="x74ONLKLbEEUaDy3nGKP-45" value="" style="endArrow=classic;html=1;rounded=0;exitX=0.539;exitY=0.009;exitDx=0;exitDy=0;exitPerimeter=0;entryX=1;entryY=0.5;entryDx=0;entryDy=0;" parent="WIyWlLk6GJQsqaUBKTNV-1" edge="1" target="x74ONLKLbEEUaDy3nGKP-22">
          <mxGeometry width="50" height="50" relative="1" as="geometry">
            <mxPoint x="621.4100000000001" y="399.99999999999994" as="sourcePoint" />
            <mxPoint x="463" y="370" as="targetPoint" />
          </mxGeometry>
        </mxCell>
        <mxCell id="x74ONLKLbEEUaDy3nGKP-46" value="adapter控制器与i2c_driver设备驱动匹配过程" style="swimlane;fontStyle=0;align=center;verticalAlign=top;childLayout=stackLayout;horizontal=1;startSize=26;horizontalStack=0;resizeParent=1;resizeLast=0;collapsible=1;marginBottom=0;rounded=0;shadow=0;strokeWidth=1;fillColor=#d80073;strokeColor=#A50040;fontColor=#ffffff;" parent="WIyWlLk6GJQsqaUBKTNV-1" vertex="1">
          <mxGeometry x="269" y="400" width="250" height="248" as="geometry">
            <mxRectangle x="340" y="380" width="170" height="26" as="alternateBounds" />
          </mxGeometry>
        </mxCell>
        <mxCell id="x74ONLKLbEEUaDy3nGKP-47" value="① i2c_probe(adapter, 设备地址, 回调函数);" style="text;align=left;verticalAlign=top;spacingLeft=4;spacingRight=4;overflow=hidden;rotatable=0;points=[[0,0.5],[1,0.5]];portConstraint=eastwest;fillColor=#e1d5e7;strokeColor=#9673a6;" parent="x74ONLKLbEEUaDy3nGKP-46" vertex="1">
          <mxGeometry y="26" width="250" height="24" as="geometry" />
        </mxCell>
        <mxCell id="x74ONLKLbEEUaDy3nGKP-48" value="" style="line;html=1;strokeWidth=1;align=left;verticalAlign=middle;spacingTop=-1;spacingLeft=3;spacingRight=3;rotatable=0;labelPosition=right;points=[];portConstraint=eastwest;" parent="x74ONLKLbEEUaDy3nGKP-46" vertex="1">
          <mxGeometry y="50" width="250" height="8" as="geometry" />
        </mxCell>
        <mxCell id="x74ONLKLbEEUaDy3nGKP-49" value="② 将传入的设备地址构造成i2c_msg传输包&#xa;然后调用adapter控制器的传输函数发送出去" style="text;align=left;verticalAlign=top;spacingLeft=4;spacingRight=4;overflow=hidden;rotatable=0;points=[[0,0.5],[1,0.5]];portConstraint=eastwest;fillColor=#e1d5e7;strokeColor=#9673a6;" parent="x74ONLKLbEEUaDy3nGKP-46" vertex="1">
          <mxGeometry y="58" width="250" height="42" as="geometry" />
        </mxCell>
        <mxCell id="x74ONLKLbEEUaDy3nGKP-50" value="" style="line;html=1;strokeWidth=1;align=left;verticalAlign=middle;spacingTop=-1;spacingLeft=3;spacingRight=3;rotatable=0;labelPosition=right;points=[];portConstraint=eastwest;" parent="x74ONLKLbEEUaDy3nGKP-46" vertex="1">
          <mxGeometry y="100" width="250" height="8" as="geometry" />
        </mxCell>
        <mxCell id="x74ONLKLbEEUaDy3nGKP-51" value="③ 如果收到该设备地址的ACK回应信号，说&#xa;明存在设备，并且挂载于该adapter控制器上，&#xa;于是会进入i2c_probe设置的回调函数中。&#xa;" style="text;align=left;verticalAlign=top;spacingLeft=4;spacingRight=4;overflow=hidden;rotatable=0;points=[[0,0.5],[1,0.5]];portConstraint=eastwest;fillColor=#e1d5e7;strokeColor=#9673a6;" parent="x74ONLKLbEEUaDy3nGKP-46" vertex="1">
          <mxGeometry y="108" width="250" height="52" as="geometry" />
        </mxCell>
        <mxCell id="x74ONLKLbEEUaDy3nGKP-56" value="" style="line;html=1;strokeWidth=1;align=left;verticalAlign=middle;spacingTop=-1;spacingLeft=3;spacingRight=3;rotatable=0;labelPosition=right;points=[];portConstraint=eastwest;" parent="x74ONLKLbEEUaDy3nGKP-46" vertex="1">
          <mxGeometry y="160" width="250" height="8" as="geometry" />
        </mxCell>
        <mxCell id="x74ONLKLbEEUaDy3nGKP-52" value="④ 回调函数会分配、设置、注册i2c_client，&#xa;并使i2c_client与该adapter控制器绑定起来。&#xa;使用i2c_transfer读写该i2c设备会找到对应的&#xa;adapter控制器来驱动底层的硬件发送数据。&#xa;同时回调函数中也可以注册字符设备驱动等。&#xa;&#xa;" style="text;align=left;verticalAlign=top;spacingLeft=4;spacingRight=4;overflow=hidden;rotatable=0;points=[[0,0.5],[1,0.5]];portConstraint=eastwest;fillColor=#e1d5e7;strokeColor=#9673a6;" parent="x74ONLKLbEEUaDy3nGKP-46" vertex="1">
          <mxGeometry y="168" width="250" height="80" as="geometry" />
        </mxCell>
        <mxCell id="G1KVdKzn01JXvxTFv-ep-3" value="" style="endArrow=none;dashed=1;html=1;rounded=0;fillColor=#1ba1e2;strokeColor=#006EAF;strokeWidth=3;entryX=0.114;entryY=1.008;entryDx=0;entryDy=0;entryPerimeter=0;exitX=0.518;exitY=-0.016;exitDx=0;exitDy=0;exitPerimeter=0;" edge="1" parent="WIyWlLk6GJQsqaUBKTNV-1" source="x74ONLKLbEEUaDy3nGKP-23" target="x74ONLKLbEEUaDy3nGKP-10">
          <mxGeometry width="50" height="50" relative="1" as="geometry">
            <mxPoint x="160" y="400" as="sourcePoint" />
            <mxPoint x="310" y="340" as="targetPoint" />
          </mxGeometry>
        </mxCell>
        <mxCell id="G1KVdKzn01JXvxTFv-ep-7" value="" style="endArrow=classic;html=1;rounded=0;exitX=0.5;exitY=0;exitDx=0;exitDy=0;entryX=0.491;entryY=0.995;entryDx=0;entryDy=0;entryPerimeter=0;" edge="1" parent="WIyWlLk6GJQsqaUBKTNV-1" source="x74ONLKLbEEUaDy3nGKP-32" target="x74ONLKLbEEUaDy3nGKP-25">
          <mxGeometry width="50" height="50" relative="1" as="geometry">
            <mxPoint x="110" y="540" as="sourcePoint" />
            <mxPoint x="160" y="490" as="targetPoint" />
          </mxGeometry>
        </mxCell>
        <mxCell id="G1KVdKzn01JXvxTFv-ep-11" value="" style="endArrow=classic;html=1;rounded=0;entryX=0.577;entryY=0;entryDx=0;entryDy=0;entryPerimeter=0;exitX=0.5;exitY=0;exitDx=0;exitDy=0;" edge="1" parent="WIyWlLk6GJQsqaUBKTNV-1" source="x74ONLKLbEEUaDy3nGKP-39" target="x74ONLKLbEEUaDy3nGKP-31">
          <mxGeometry width="50" height="50" relative="1" as="geometry">
            <mxPoint x="600" y="540" as="sourcePoint" />
            <mxPoint x="650" y="490" as="targetPoint" />
          </mxGeometry>
        </mxCell>
      </root>
    </mxGraphModel>
  </diagram>
</mxfile>
